<?xml version="1.0" standalone="no"?>
<!DOCTYPE svg PUBLIC "-//W3C//DTD SVG 1.1//EN" "http://www.w3.org/Graphics/SVG/1.1/DTD/svg11.dtd" >
<svg xmlns="http://www.w3.org/2000/svg">
<metadata></metadata>
<defs>
<font id="roboto_condensedbold_italic" horiz-adv-x="922" >
<font-face units-per-em="2048" ascent="1536" descent="-512" />
<missing-glyph horiz-adv-x="426" />
<glyph unicode="fi" horiz-adv-x="1034" d="M55 0l175 876h-116l41 206h116l14 70q45 225 165.5 327t319.5 102q62 0 123.5 -15.5t132.5 -43.5l-84 -232q-52 22 -96.5 34t-106.5 12q-66 0 -112 -47t-64 -137l-14 -70h149l-41 -206h-149l-175 -876h-278zM849 0h-277l216 1082h277z" />
<glyph horiz-adv-x="0" />
<glyph horiz-adv-x="0" />
<glyph horiz-adv-x="35" />
<glyph unicode="&#x9;" horiz-adv-x="35" />
<glyph unicode=" "  horiz-adv-x="426" />
<glyph unicode="&#x09;" horiz-adv-x="426" />
<glyph unicode="&#xa0;" horiz-adv-x="426" />
<glyph unicode="!" horiz-adv-x="490" d="M402 506h-278l190 950h278zM297 0h-270l52 258h270z" />
<glyph unicode="&#x22;" horiz-adv-x="576" d="M397 1419l-122 -410h-135l64 398l25 153h191zM678 1419l-120 -410h-134l65 406l24 145h188z" />
<glyph unicode="#" horiz-adv-x="949" d="M484 410h-108l-135 -410h-166l135 410h-165l33 166h186l98 297h-167l33 167h189l137 416h167l-137 -416h108l137 416h167l-137 -416h164l-33 -167h-186l-98 -297h166l-33 -166h-187l-135 -410h-168zM539 576l98 297h-108l-98 -297h108z" />
<glyph unicode="$" horiz-adv-x="945" d="M576 381q13 88 -5.5 134t-78.5 95q-165 89 -232 183t-36 279q27 175 126.5 278t248.5 123l35 212h139l-35 -217q128 -31 187.5 -149.5t29.5 -310.5h-276q19 123 1.5 183t-61.5 60q-46 0 -76.5 -49.5t-42.5 -130.5q-13 -80 5.5 -125.5t80.5 -96.5q163 -93 229 -188 t37 -278q-30 -181 -127 -280.5t-247 -118.5l-31 -199h-139l31 200q-140 24 -216.5 136.5t-40.5 334.5h277q-24 -145 1 -198.5t85 -53.5q49 0 83.5 48.5t47.5 128.5z" />
<glyph unicode="%" horiz-adv-x="1244" d="M239 1176q28 140 110 220.5t212 80.5q120 0 173.5 -85.5t27.5 -215.5l-15 -77q-29 -141 -110 -220t-210 -79q-119 0 -174 85.5t-29 213.5zM405 1099q-13 -62 0 -99t55 -37q36 0 65.5 39.5t41.5 96.5l15 77q12 62 -0.5 100t-52.5 38q-37 0 -67 -40.5t-42 -97.5zM622 357 q28 139 110.5 219.5t211.5 80.5q119 0 173 -85.5t28 -214.5l-15 -77q-29 -141 -109.5 -220.5t-209.5 -79.5q-120 0 -175 85.5t-29 214.5zM788 280q-13 -60 3 -99t52 -39q43 0 69.5 38t38.5 100l15 77q12 61 -1 99t-53 38q-37 0 -67.5 -40t-41.5 -97zM324 110l-115 74 l771 1138l115 -74z" />
<glyph unicode="&#x26;" horiz-adv-x="1132" d="M50 388q19 125 82 204.5t191 176.5q-42 96 -57 171.5t-2 156.5q28 181 132.5 280.5t260.5 99.5q129 0 198 -98t46 -239q-17 -104 -66.5 -180.5t-131.5 -136.5l-78 -60l155 -298q32 55 53.5 116t33.5 130h202q-23 -144 -66.5 -253.5t-115.5 -198.5l135 -259h-312l-41 79 q-76 -51 -147 -75.5t-151 -24.5q-173 0 -262 112.5t-59 296.5zM423 206q37 0 76.5 12t80.5 36l-174 340l-2 -1q-33 -50 -49 -94.5t-23 -92.5q-15 -91 11 -145.5t80 -54.5zM508 1100q-7 -42 1.5 -82t31.5 -88l49 36q51 37 70.5 72.5t27.5 83.5q8 52 -10 89.5t-57 37.5 q-42 0 -72.5 -42.5t-40.5 -106.5z" />
<glyph unicode="'" horiz-adv-x="292" d="M405 1407l-128 -400h-134l60 387l27 166h200z" />
<glyph unicode="(" horiz-adv-x="601" d="M131 591q65 407 225.5 668.5t334.5 354.5l27 -151q-110 -100 -207.5 -315.5t-151.5 -554.5l-5 -28q-56 -354 -27.5 -560.5t108.5 -310.5l-75 -149q-142 91 -219 360.5t-14 661.5z" />
<glyph unicode=")" horiz-adv-x="598" d="M530 567q-64 -397 -231 -663.5t-345 -358.5l-29 149q109 100 206.5 316t152.5 555l5 28q56 351 26 560t-107 312l77 149q145 -90 227 -367t22 -656z" />
<glyph unicode="*" horiz-adv-x="771" d="M379 966l-214 92l85 173l205 -127l51 352h172l-90 -358l250 125l15 -175l-256 -93l99 -269l-159 -107l-70 294l-187 -285l-120 103z" />
<glyph unicode="+" horiz-adv-x="916" d="M666 810h265l-51 -254h-265l-82 -410h-262l82 410h-271l51 254h271l79 396h262z" />
<glyph unicode="," horiz-adv-x="452" d="M283 30q-23 -111 -92 -216t-157 -182l-117 76q44 72 72.5 143t47.5 164l45 226h244z" />
<glyph unicode="-" horiz-adv-x="711" d="M597 514h-457l45 228h457z" />
<glyph unicode="." horiz-adv-x="524" d="M305 0h-270l52 258h270z" />
<glyph unicode="/" horiz-adv-x="603" d="M82 -125h-198l701 1581h198z" />
<glyph unicode="0" horiz-adv-x="945" d="M891 571q-63 -316 -192 -454t-314 -138q-172 0 -252.5 150.5t-21.5 441.5l63 313q62 315 192 454t316 139q170 0 250 -151.5t22 -441.5zM682 909q38 191 24.5 265.5t-69.5 74.5q-52 0 -100 -82.5t-82 -257.5l-72 -361q-40 -194 -25.5 -268t72.5 -74q50 0 96.5 81.5 t83.5 260.5z" />
<glyph unicode="1" horiz-adv-x="945" d="M550 0h-276l230 1150l-207 -6l38 190l506 123z" />
<glyph unicode="2" horiz-adv-x="945" d="M797 0h-786l31 193l438 503q88 114 129.5 195t53.5 151q15 99 -4.5 153t-76.5 54q-55 0 -97 -68.5t-59 -181.5h-277q34 213 159.5 345.5t309.5 132.5q182 0 268 -115.5t54 -316.5q-24 -144 -94.5 -250.5t-239.5 -295.5l-202 -272h429z" />
<glyph unicode="3" horiz-adv-x="945" d="M369 783l11 70h134q60 0 98 53.5t54 151.5q14 89 -6.5 140t-77.5 51q-43 0 -84 -47t-53 -123h-275q29 187 152 292.5t288 105.5q178 0 271 -107.5t62 -307.5q-17 -105 -75.5 -187.5t-148.5 -129.5q85 -44 120 -130.5t16 -208.5q-34 -211 -165.5 -319t-319.5 -108 q-157 0 -256 107t-66 314h277q-15 -89 10.5 -141.5t78.5 -52.5q59 0 104 55.5t61 148.5q19 124 -5 173.5t-95 49.5h-134z" />
<glyph unicode="4" horiz-adv-x="945" d="M797 546h106l-45 -228h-107l-63 -318h-277l63 318h-424l20 178l631 958l1 2h277zM329 546h191l98 492l-3 1l-11 -16z" />
<glyph unicode="5" horiz-adv-x="945" d="M137 644l196 812h652l-37 -233h-427l-81 -338l3 -1q28 28 71 48t84 22q171 3 237.5 -123t28.5 -364q-36 -219 -155.5 -353.5t-311.5 -134.5q-158 0 -258 111t-68 308l277 15q-17 -104 6.5 -155.5t78.5 -51.5q59 0 97 71t57 188q22 136 4 207.5t-85 71.5q-47 0 -76.5 -31 t-48.5 -86z" />
<glyph unicode="6" horiz-adv-x="945" d="M717 1477q65 0 115.5 -15.5t101.5 -46.5l-80 -215q-46 23 -82.5 34.5t-89.5 11.5q-88 0 -157 -90.5t-100 -261.5l2 -2q47 41 103 63t122 22q147 0 210 -138.5t28 -356.5q-37 -231 -164.5 -367t-305.5 -136q-182 0 -275 154.5t-49 429.5l48 300q48 300 203 457t370 157z M541 753q-49 0 -86 -18t-64 -52l-19 -123q-29 -181 -6 -268t90 -87q50 0 94.5 81t63.5 196q20 127 -1 199t-72 72z" />
<glyph unicode="7" horiz-adv-x="945" d="M993 1228q-225 -255 -308.5 -471t-176.5 -617l-34 -140h-276l33 140q78 334 197.5 599.5t299.5 488.5h-544l37 228h809z" />
<glyph unicode="8" horiz-adv-x="945" d="M965 1070q-25 -121 -84.5 -203t-149.5 -127q78 -52 111.5 -139.5t11.5 -202.5q-45 -221 -167 -320t-303 -99q-167 0 -256.5 108t-48.5 311q25 129 93 217t170 135q-70 49 -99 131t-7 189q42 211 158 309t288 98q157 0 239 -106.5t44 -300.5zM582 419q20 106 1.5 159.5 t-70.5 53.5q-49 0 -91.5 -57.5t-61.5 -155.5q-22 -108 -4 -160.5t73 -52.5q48 0 90 56.5t63 156.5zM686 1056q19 97 7.5 145t-56.5 48q-43 0 -76 -51t-51 -142q-21 -100 -9 -148.5t59 -48.5q42 0 74.5 52t51.5 145z" />
<glyph unicode="9" horiz-adv-x="945" d="M380 206q70 0 131.5 81.5t86.5 230.5l6 37l-3 2q-41 -51 -89.5 -76t-99.5 -25q-154 0 -222.5 133.5t-30.5 367.5q37 232 167.5 376t304.5 144q172 0 258.5 -153t42.5 -432l-57 -356q-44 -271 -189 -414t-342 -143q-56 0 -116 16t-108 46l63 212q48 -25 92 -36t105 -11z M498 670q40 0 75 24t63 65l27 168q27 168 8 245t-76 77q-50 0 -96 -87t-64 -205q-23 -139 -8 -213t71 -74z" />
<glyph unicode=":" horiz-adv-x="526" d="M310 0h-270l52 258h270zM474 824h-270l52 258h270z" />
<glyph unicode=";" horiz-adv-x="503" d="M464 824h-270l52 258h270zM311 30q-23 -111 -92 -216t-157 -182l-117 76q44 72 72.5 143t47.5 164l45 226h244z" />
<glyph unicode="&#x3c;" horiz-adv-x="830" d="M325 619l392 -207l-54 -271l-596 365l46 230l742 364l-54 -270z" />
<glyph unicode="=" horiz-adv-x="947" d="M884 746h-703l46 229h703zM798 314h-703l46 229h703z" />
<glyph unicode="&#x3e;" horiz-adv-x="841" d="M587 622l-399 209l54 269l601 -365l-7 -34l-32 -162l-7 -34l-747 -364l54 269z" />
<glyph unicode="?" horiz-adv-x="842" d="M245 413q28 138 76.5 201t171.5 160q60 57 100.5 122t58.5 152q19 100 -0.5 150t-78.5 50q-41 0 -85 -46.5t-62 -132.5h-277q43 206 168 307t301 101t263 -115.5t48 -312.5q-28 -136 -103 -235t-181 -175q-57 -46 -82 -94t-41 -132h-277zM436 0h-273l49 247h273z" />
<glyph unicode="@" horiz-adv-x="1473" d="M1412 516q-51 -223 -178.5 -380t-328.5 -157q-61 0 -99.5 44t-44.5 123l-3 1q-50 -84 -106 -124.5t-122 -40.5q-110 0 -151 119t13 315q73 258 196 407t261 149q93 0 152 -27t117 -79l-4 -4h5l-154 -569q-25 -101 -20.5 -134t29.5 -33q81 0 157 111t116 279 q83 357 6.5 550t-325.5 193q-227 0 -411 -210.5t-267 -570.5q-86 -359 -3 -561t324 -202q63 0 141.5 20t136.5 49l2 -148q-65 -43 -151 -66t-166 -23q-306 0 -436.5 249t-31.5 682q102 437 338.5 686.5t557.5 249.5q294 0 419.5 -241.5t30.5 -656.5zM604 416 q-33 -129 -27.5 -195t49.5 -66q36 0 71.5 25.5t74.5 96.5q1 7 1.5 9.5t2.5 6.5l136 499q-13 4 -27.5 6.5t-30.5 2.5q-80 0 -139.5 -94t-110.5 -291z" />
<glyph unicode="A" horiz-adv-x="1055" d="M669 311h-330l-128 -311h-278l658 1456h286l74 -1456h-277zM433 538h232l-9 533h-3z" />
<glyph unicode="B" horiz-adv-x="1053" d="M19 0l291 1456h406q195 0 291 -99.5t57 -298.5q-23 -112 -78 -189t-145 -114v-3q99 -27 129 -115.5t5 -211.5q-46 -229 -167.5 -327t-333.5 -98h-455zM424 642l-83 -415h178q68 0 114 53.5t65 146.5q22 110 4 162.5t-87 52.5h-191zM464 841h130q72 0 120.5 48t67.5 142 q22 112 -3.5 154.5t-107.5 42.5h-129z" />
<glyph unicode="C" horiz-adv-x="1033" d="M993 495q-64 -261 -184.5 -388.5t-329.5 -127.5q-200 0 -312 170t-59 435l58 290q58 295 196 449t343 154q207 0 310.5 -139t70.5 -388h-275q24 152 -5 225.5t-129 73.5q-77 0 -138.5 -101t-95.5 -272l-58 -292q-38 -183 -9.5 -280.5t122.5 -97.5q83 0 132.5 68t87.5 221 h275z" />
<glyph unicode="D" horiz-adv-x="1059" d="M685 1456q197 0 312.5 -175t62.5 -440l-49 -245q-59 -294 -202.5 -445t-353.5 -151h-436l291 1456h375zM541 1228l-200 -1001h143q95 0 154.5 94.5t95.5 274.5l50 247q35 181 -8 283t-152 102h-83z" />
<glyph unicode="E" horiz-adv-x="931" d="M855 639h-431l-83 -412h509l-45 -227h-786l291 1456h784l-45 -228h-508l-72 -362h431z" />
<glyph unicode="F" horiz-adv-x="929" d="M844 605h-427l-121 -605h-277l291 1456h782l-45 -228h-506l-79 -396h427z" />
<glyph unicode="G" horiz-adv-x="1057" d="M924 201q-77 -91 -192.5 -156.5t-282.5 -65.5q-203 0 -307 136.5t-53 390.5l89 444q55 274 197.5 400.5t356.5 126.5q210 0 299.5 -119t54.5 -345h-268q23 126 -6 181t-117 55q-83 0 -146.5 -73t-93.5 -224l-89 -446q-34 -168 -2 -234t130 -66q67 0 103.5 23t68.5 68 l53 261h-153l40 200h430z" />
<glyph unicode="H" horiz-adv-x="1142" d="M952 0h-276l120 603h-380l-120 -603h-277l291 1456h277l-125 -626h380l125 626h276z" />
<glyph unicode="I" horiz-adv-x="508" d="M307 0h-277l291 1456h277z" />
<glyph unicode="J" horiz-adv-x="940" d="M768 1456h276l-202 -1012q-47 -233 -177 -349t-306 -116q-174 0 -262 112.5t-43 335.5h277q-26 -129 -7.5 -175t80.5 -46q54 0 96 60t66 178z" />
<glyph unicode="K" horiz-adv-x="1011" d="M490 602h-74l-120 -602h-278l291 1456h278l-119 -594h78l305 594h361l-475 -721l195 -735h-317z" />
<glyph unicode="L" horiz-adv-x="902" d="M341 227h472l-45 -227h-749l291 1456h277z" />
<glyph unicode="M" horiz-adv-x="1359" d="M664 1456l3 -1073l3 -1l435 1074h361l-291 -1456h-276l85 423l126 521l-3 1l-423 -945h-183l-43 933h-3l-80 -510l-85 -423h-276l291 1456h359z" />
<glyph unicode="N" horiz-adv-x="1141" d="M950 0h-276l-196 893h-3l-179 -893h-277l291 1456h277l196 -891h3l179 891h276z" />
<glyph unicode="O" horiz-adv-x="1109" d="M1066 596q-59 -295 -211 -456t-369 -161q-203 0 -315.5 177t-58.5 444l52 259q59 295 206 456.5t363 161.5q205 0 321.5 -178.5t63.5 -443.5zM841 857q36 180 -7.5 285.5t-145.5 105.5q-88 0 -150.5 -104t-98.5 -283l-52 -261q-37 -184 2.5 -288.5t141.5 -104.5 q88 0 155 106t103 283z" />
<glyph unicode="P" horiz-adv-x="1074" d="M400 522l-104 -522h-277l291 1456h468q188 0 283.5 -129.5t54.5 -337.5q-46 -227 -183 -347t-342 -120h-191zM446 750h191q71 0 126 67.5t75 169.5q23 113 -2 177t-103 64h-191z" />
<glyph unicode="Q" horiz-adv-x="1123" d="M1066 596q-33 -164 -95.5 -286t-153.5 -203l145 -200l-205 -158l-169 241q-26 -5 -51 -8t-51 -3q-203 0 -315.5 177t-58.5 444l52 259q59 295 206 456.5t363 161.5q205 0 321.5 -178.5t63.5 -443.5zM841 857q36 180 -7.5 285.5t-145.5 105.5q-88 0 -150.5 -104 t-98.5 -283l-52 -261q-37 -184 2.5 -288.5t141.5 -104.5q88 0 155 106t103 283z" />
<glyph unicode="R" horiz-adv-x="1054" d="M413 579l-116 -579h-277l291 1455h462q183 0 267.5 -110t43.5 -313q-27 -132 -93 -208t-177 -124q97 -39 122 -125.5t-2 -222.5l-20 -103q-13 -65 -13.5 -127t25.5 -94l-6 -28h-284q-26 32 -20 99.5t22 151.5l20 99q24 120 3 174.5t-92 54.5h-156zM458 806h159 q66 0 116 53.5t70 150.5q21 110 0 164t-92 54h-168z" />
<glyph unicode="S" horiz-adv-x="1005" d="M669 353q20 101 -11.5 148.5t-132.5 108.5q-195 83 -279.5 194t-47.5 296q37 184 164.5 280.5t308.5 96.5q192 0 293.5 -118.5t59.5 -332.5h-276q21 104 -13 163.5t-109 59.5q-49 0 -94 -42.5t-57 -104.5q-19 -96 16.5 -140t163.5 -113q179 -79 253.5 -190t36.5 -304 q-39 -191 -163.5 -283.5t-309.5 -92.5q-189 0 -312 107t-75 343h277q-26 -130 23 -176.5t132 -46.5q47 0 93 42t59 105z" />
<glyph unicode="T" horiz-adv-x="1021" d="M1135 1228h-328l-245 -1228h-275l245 1228h-325l45 228h928z" />
<glyph unicode="U" horiz-adv-x="1084" d="M1201 1456l-198 -991q-51 -253 -194.5 -369.5t-355.5 -116.5q-195 0 -298 126.5t-56 359.5l198 991h273l-198 -991q-29 -144 4 -201.5t122 -57.5q84 0 143 59.5t87 199.5l198 991h275z" />
<glyph unicode="V" horiz-adv-x="1050" d="M502 372l2 -55h3l18 52l379 1087h290l-597 -1456h-286l-130 1456h291z" />
<glyph unicode="W" horiz-adv-x="1339" d="M942 629h3l232 827h262l-444 -1456h-252l-16 796l-3 1l-269 -797h-251l21 1456h264l-34 -826l3 -1l278 827h192z" />
<glyph unicode="X" horiz-adv-x="1045" d="M591 944h3l246 512h320l-430 -722l219 -734h-335l-84 523h-3l-251 -523h-321l437 734l-198 722h319z" />
<glyph unicode="Y" horiz-adv-x="1011" d="M593 873l3 -1l306 584h301l-546 -936l-104 -520h-274l109 544l-168 912h300z" />
<glyph unicode="Z" horiz-adv-x="927" d="M348 227h483l-45 -227h-774l-6 143l642 1086h-411l45 227h739l-27 -138z" />
<glyph unicode="[" horiz-adv-x="510" d="M639 1478h-93l-256 -1601h93l-34 -216h-372l325 2034h372z" />
<glyph unicode="\" horiz-adv-x="712" d="M211 1456h273l149 -1581h-275z" />
<glyph unicode="]" horiz-adv-x="510" d="M231 1695h374l-325 -2034h-374l34 216h95l256 1601h-95z" />
<glyph unicode="^" horiz-adv-x="733" d="M314 729h-212l373 727h199l83 -727h-211l-31 422v2l-3 1l-1 -3z" />
<glyph unicode="_" horiz-adv-x="742" d="M593 -220h-705l44 220h705z" />
<glyph unicode="`" horiz-adv-x="601" d="M643 1211h-219l-190 266h295z" />
<glyph unicode="a" horiz-adv-x="875" d="M473 0q-5 28 -7.5 57.5t-1.5 57.5l-3 1q-46 -62 -101.5 -99t-120.5 -37q-116 0 -175.5 87.5t-29.5 234.5q35 173 139 254t295 81h87l18 88q17 86 4 125t-59 39q-36 0 -60.5 -33.5t-37.5 -98.5h-277q32 159 147.5 252t287.5 93q147 0 227.5 -98t44.5 -281l-88 -438 q-17 -84 -19.5 -148t5.5 -137h-275zM363 193q31 0 62.5 20t55.5 54l42 207h-87q-48 0 -78.5 -44.5t-44.5 -114.5q-12 -59 1.5 -90.5t48.5 -31.5z" />
<glyph unicode="b" d="M880 495q-54 -268 -149.5 -392t-261.5 -124q-64 0 -112.5 31t-78.5 92l-35 -102h-240l312 1560h276l-108 -536l3 -1q38 38 82 58.5t93 20.5q154 0 214 -164.5t9 -421.5zM608 516q36 180 30.5 269t-78.5 89q-35 0 -67 -27.5t-61 -77.5l-103 -514q12 -26 35.5 -37t61.5 -11 q70 0 108.5 69.5t69.5 218.5z" />
<glyph unicode="c" horiz-adv-x="856" d="M410 206q48 0 84.5 44.5t44.5 126.5h257q-22 -179 -143 -288t-274 -109q-188 0 -269 135.5t-46 354.5l22 139q37 230 156 361.5t316 131.5q160 0 241.5 -113.5t44.5 -313.5h-257q19 92 2 145.5t-72 53.5q-69 0 -101 -68t-53 -197l-22 -139q-23 -138 -13.5 -201t82.5 -63z " />
<glyph unicode="d" d="M80 555q55 278 156.5 412.5t262.5 134.5q53 0 96 -25t76 -73l111 556h278l-312 -1560h-240l4 88l-3 2q-46 -54 -97.5 -82.5t-107.5 -28.5q-147 0 -212 157t-16 398zM352 534q-33 -161 -23.5 -244t77.5 -83q32 0 63 23t61 68l102 512q-13 32 -35 48t-54 16 q-63 0 -110 -84.5t-77 -234.5z" />
<glyph unicode="e" horiz-adv-x="868" d="M387 -20q-176 0 -263 133t-54 338l24 152q37 233 155 366t304 133q172 0 248.5 -126t41.5 -347l-28 -174h-469v-4q-19 -115 5 -180t105 -65q87 0 140 20t107 58l24 -196q-58 -50 -147 -79t-193 -29zM517 874q-53 0 -86 -60.5t-54 -168.5h198l7 40q15 96 1 142.5t-66 46.5 z" />
<glyph unicode="f" horiz-adv-x="612" d="M60 0l175 876h-116l41 206h116l24 120q40 198 142 288.5t269 90.5q28 0 58.5 -5.5t66.5 -15.5l-66 -218q-15 4 -32 7t-39 3q-44 0 -75 -38.5t-46 -111.5l-24 -120h150l-41 -206h-150l-175 -876h-278z" />
<glyph unicode="g" d="M80 555q55 277 157 412t263 135q62 0 109.5 -30.5t79.5 -89.5l34 100h242l-209 -1047q-47 -234 -181.5 -353t-340.5 -119q-61 0 -129.5 22.5t-124.5 60.5l93 219q46 -32 94.5 -48t111.5 -16q72 0 124.5 62.5t74.5 172.5l3 15l-3 2q-39 -37 -82 -55.5t-91 -18.5 q-147 0 -212.5 157t-16.5 398zM353 534q-33 -161 -23.5 -244t77.5 -83q34 0 64 20.5t57 59.5l108 537q-13 26 -35 38t-56 12q-64 0 -111 -84.5t-77 -234.5z" />
<glyph unicode="h" d="M468 980l3 -1q48 59 104 91t118 32q124 0 178.5 -114t7.5 -354l-127 -634h-277l127 636q29 146 14 192t-74 46q-30 0 -56 -14.5t-51 -42.5l-163 -817h-276l312 1560h276z" />
<glyph unicode="i" horiz-adv-x="477" d="M291 0h-276l216 1082h276zM560 1343h-276l43 217h276z" />
<glyph unicode="j" horiz-adv-x="467" d="M513 1082l-223 -1115q-42 -210 -141 -307t-253 -97q-31 0 -58 4.5t-58 13.5l56 223q19 -6 34 -9t36 -3q34 0 63 44t45 131l223 1115h276zM562 1345h-277l43 215h277z" />
<glyph unicode="k" horiz-adv-x="900" d="M415 450h-45l-90 -450h-277l312 1560h277l-177 -886h46l217 408h318l-336 -482l148 -600h-316z" />
<glyph unicode="l" horiz-adv-x="477" d="M291 0h-276l312 1560h276z" />
<glyph unicode="m" horiz-adv-x="1375" d="M465 969l2 -1q51 64 113.5 99t137.5 35q66 0 111.5 -39.5t62.5 -121.5q53 78 118.5 119.5t146.5 41.5q115 0 166.5 -109.5t6.5 -335.5l-131 -657h-277l131 657q27 134 14.5 175.5t-60.5 41.5q-32 -1 -59.5 -19t-51.5 -51q-2 -20 -5 -41t-8 -50l-143 -713h-277l132 659 q26 132 13.5 173.5t-61.5 41.5q-27 0 -53 -15.5t-50 -44.5l-163 -814h-275l216 1082h256z" />
<glyph unicode="n" d="M458 958l2 -2q54 70 117 108t134 38q117 0 169.5 -103.5t7.5 -326.5l-134 -672h-277l134 672q24 121 7.5 161.5t-74.5 40.5q-28 0 -55 -16.5t-52 -47.5l-162 -810h-277l216 1082h258z" />
<glyph unicode="o" d="M88 607q36 231 159 363t319 132q186 0 271 -137.5t50 -357.5l-21 -134q-38 -233 -160 -363t-317 -130q-188 0 -273 136t-49 357zM343 473q-22 -134 -7 -200.5t89 -66.5q66 0 105 70.5t60 196.5l21 134q21 130 5.5 198.5t-86.5 68.5q-68 0 -107.5 -72t-58.5 -195z" />
<glyph unicode="p" d="M880 494q-53 -264 -152 -389.5t-259 -125.5q-56 0 -100 22t-76 67l-97 -484h-276l299 1498h258l-8 -71l2 -2q42 45 89.5 69t100.5 24q148 0 210.5 -166.5t12.5 -420.5zM608 515q34 169 25 264t-75 95q-33 0 -64.5 -26.5t-59.5 -74.5l-105 -523q12 -23 35 -33.5t60 -10.5 q64 0 107.5 73t72.5 215z" />
<glyph unicode="q" d="M80 555q55 278 156.5 412.5t262.5 134.5q61 0 107 -32t78 -91l38 103h240l-299 -1498h-278l94 472l-3 1q-39 -38 -82 -58t-90 -20q-147 0 -212 157t-16 398zM352 534q-33 -161 -23.5 -244.5t77.5 -83.5q33 0 62.5 20.5t56.5 59.5l107 534q-12 27 -34 40.5t-55 13.5 q-63 0 -110 -84.5t-77 -234.5z" />
<glyph unicode="r" horiz-adv-x="617" d="M638 823l-100 3q-34 0 -61 -20t-49 -58l-149 -748h-276l216 1082h259l-17 -128l3 -1q39 73 85.5 111t100.5 38q16 0 35.5 -3.5t34.5 -8.5z" />
<glyph unicode="s" horiz-adv-x="825" d="M482 283q8 49 -16 80t-106 82q-141 62 -202 137.5t-41 200.5q22 140 130.5 229.5t271.5 89.5q161 0 246 -96.5t61 -250.5h-274q11 72 -4 110t-62 38q-34 0 -65 -31t-37 -75q-9 -50 12.5 -77t105.5 -81q149 -59 209 -136.5t39 -209.5q-24 -146 -134.5 -229.5t-280.5 -83.5 q-168 0 -252 108.5t-62 251.5h260q-13 -88 11 -124.5t82 -36.5q44 0 72 27.5t36 76.5z" />
<glyph unicode="t" horiz-adv-x="571" d="M594 1351l-54 -269h128l-41 -206h-128l-108 -542q-15 -72 -6 -97.5t37 -25.5q18 0 31.5 2t28.5 8l-20 -212q-37 -14 -76 -21.5t-82 -7.5q-121 0 -174.5 84.5t-15.5 268.5l108 543h-102l41 206h102l54 269h277z" />
<glyph unicode="u" d="M510 0l8 108l-3 1q-51 -64 -111.5 -96.5t-132.5 -32.5q-125 0 -180.5 109t-8.5 339l130 654h277l-131 -656q-25 -124 -13 -171t59 -47q35 0 66.5 16t60.5 49l161 809h276l-216 -1082h-242z" />
<glyph unicode="v" horiz-adv-x="848" d="M408 408l-2 -70l3 -1l23 71l207 674h290l-441 -1082h-271l-94 1082h291z" />
<glyph unicode="w" horiz-adv-x="1173" d="M810 458h3l204 624h257l-414 -1082h-230l-6 608l-3 1l-250 -609h-231l19 1082h255l-43 -622h3l253 622h178z" />
<glyph unicode="x" horiz-adv-x="848" d="M468 738h3l145 344h311l-321 -535l156 -547h-310l-37 354h-3l-150 -354h-310l331 547l-153 535h309z" />
<glyph unicode="y" horiz-adv-x="848" d="M417 478h3l249 604h297l-576 -1245q-53 -113 -134 -193.5t-213 -80.5q-32 0 -56 5.5t-68 18.5l76 212l19.5 -4.5t14.5 -1.5q52 0 84 28.5t60 89.5l36 76l-67 1095h297z" />
<glyph unicode="z" horiz-adv-x="823" d="M336 227h372l-45 -227h-680l34 169l504 685h-358l45 228h669l-33 -165z" />
<glyph unicode="{" horiz-adv-x="551" d="M318 -366q-146 56 -190.5 174t-15.5 291l33 206q16 104 -4 156.5t-82 52.5l24 151h1l8 51q59 0 97.5 54.5t54.5 154.5l33 207q28 180 109 294.5t247 170.5l27 -157q-58 -32 -89 -108t-50 -200l-33 -207q-19 -112 -68.5 -190.5t-136.5 -122.5q69 -48 95.5 -126.5 t10.5 -180.5l-33 -206q-21 -128 -14.5 -201.5t55.5 -105.5z" />
<glyph unicode="|" horiz-adv-x="452" d="M193 -270h-159l276 1726h159z" />
<glyph unicode="}" horiz-adv-x="551" d="M-52 -208q57 32 87.5 107.5t50.5 199.5l33 206q18 111 68.5 189.5t138.5 122.5q-72 46 -98.5 125t-9.5 183l33 207q20 128 13 202t-54 106l78 157q145 -56 190 -173.5t17 -291.5l-33 -207q-17 -105 3 -157t83 -52l-9 -54l-15 -94l-9 -54q-60 0 -98.5 -55t-53.5 -154 l-33 -206q-29 -179 -110.5 -294t-246.5 -171z" />
<glyph unicode="~" horiz-adv-x="1026" d="M990 761q-29 -174 -114 -278.5t-195 -104.5q-64 0 -113 31t-96 102q-28 46 -49 65.5t-51 19.5q-31 0 -61 -51.5t-42 -126.5l-183 26q28 175 111 278t196 103q61 0 114 -33.5t98 -98.5q26 -48 46.5 -66.5t50.5 -18.5t60.5 52t43.5 129z" />
<glyph unicode="&#xa1;" horiz-adv-x="518" d="M238 -374h-278l190 949h278zM473 821h-270l52 261h270z" />
<glyph unicode="&#xa2;" horiz-adv-x="957" d="M439 206q48 0 84.5 44.5t44.5 126.5h257q-19 -154 -114 -258t-226 -131l-47 -233h-179l48 239q-135 37 -189.5 164t-24.5 312l22 139q33 211 137 339.5t276 149.5l44 220h179l-48 -236q106 -40 152.5 -144.5t17.5 -262.5h-257q19 92 2 145.5t-72 53.5q-69 0 -101 -68 t-53 -197l-22 -139q-23 -138 -13.5 -201t82.5 -63z" />
<glyph unicode="&#xa3;" horiz-adv-x="978" d="M517 588l-13 -79q-17 -85 -56.5 -155t-101.5 -127h536l-45 -227h-778l45 227h7q32 12 63 94t49 172l16 95h-111l45 228h104l35 209q46 229 161 340.5t285 111.5q165 0 245 -114t43 -302h-277q20 105 1.5 146.5t-58.5 41.5q-36 0 -69 -58t-54 -166l-35 -209h242l-45 -228 h-234z" />
<glyph unicode="&#xa4;" horiz-adv-x="1150" d="M796 95q-73 -57 -150 -86t-158 -29q-75 0 -138 31t-113 91l-126 -128l-101 136l143 145q-27 79 -31.5 166.5t16.5 186.5q21 110 61 202.5t98 171.5l-84 145l156 137l77 -132q69 50 142 76t151 26q71 0 132.5 -29.5t111.5 -84.5l142 145l100 -138l-155 -158 q28 -80 33.5 -170t-14.5 -191q-22 -106 -59 -195t-90 -164l82 -139l-155 -137zM305 608q-42 -205 21 -326.5t198 -121.5q122 0 241.5 129.5t158.5 318.5q40 203 -23.5 324.5t-197.5 121.5q-124 0 -242.5 -129.5t-155.5 -316.5z" />
<glyph unicode="&#xa5;" horiz-adv-x="1002" d="M600 926l3 -1l278 531h300l-428 -719h163l-33 -165h-218l-25 -126h218l-32 -163h-219l-56 -283h-277l56 283h-234l32 163h235l25 126h-235l33 165h188l-141 719h301z" />
<glyph unicode="&#xa6;" horiz-adv-x="451" d="M-34 -270l158 791h244l-158 -791h-244zM404 698h-244l151 758h244z" />
<glyph unicode="&#xa7;" horiz-adv-x="1033" d="M949 482q-20 -97 -64.5 -163t-114.5 -108q46 -52 59 -121t-7 -169q-39 -193 -164 -285t-321 -92q-177 0 -283 99t-62 323h276q-23 -115 10 -154.5t104 -39.5q61 0 105.5 40.5t58.5 107.5q14 71 -17.5 107.5t-140.5 87.5q-179 65 -248.5 155t-34.5 263q18 95 63.5 161.5 t117.5 110.5q-47 52 -61 121t7 170q37 187 165 284t324 97q184 0 275.5 -112t51.5 -316h-276q18 95 -5.5 147.5t-90.5 52.5q-66 0 -110 -42.5t-56 -108.5q-17 -80 11 -114.5t143 -83.5q180 -65 249.5 -154.5t35.5 -263.5zM524 666q-19 6 -36.5 13t-35.5 16 q-24 -23 -40.5 -56.5t-23.5 -74.5q-18 -88 7 -124t134 -91q16 -6 29 -11.5t42 -16.5q26 23 43.5 56.5t27.5 75.5q15 78 -14.5 118.5t-132.5 94.5z" />
<glyph unicode="&#xa8;" horiz-adv-x="939" d="M916 1258h-238l32 198h238zM507 1258h-237l32 198h237z" />
<glyph unicode="&#xa9;" horiz-adv-x="1310" d="M934 596q-27 -164 -109 -239t-215 -75q-127 0 -188 105.5t-32 281.5l19 119q29 183 119.5 285t224.5 102q127 0 188 -79.5t37 -234.5h-140q16 102 -9.5 143.5t-96.5 41.5q-69 0 -118 -70.5t-67 -186.5l-19 -120q-21 -125 4.5 -192t98.5 -67q67 0 107 43t56 143h140z M234 729q-46 -282 57.5 -456.5t302.5 -174.5q187 0 352.5 181.5t208.5 449.5q44 280 -59.5 453.5t-300.5 173.5q-189 0 -354 -180.5t-207 -446.5zM128 729q53 334 247 540.5t439 206.5q230 0 364 -215t84 -532q-54 -335 -249.5 -542.5t-437.5 -207.5q-232 0 -365.5 215.5 t-81.5 534.5z" />
<glyph unicode="&#xaa;" horiz-adv-x="729" d="M521 706q-2 21 -1.5 43.5t2.5 46.5l-2 1q-33 -46 -78.5 -75.5t-103.5 -29.5q-86 0 -126 61.5t-18 166.5q23 118 98.5 173.5t209.5 55.5h88l11 53q14 70 2.5 102t-49.5 32q-40 0 -69.5 -27.5t-39.5 -78.5l-151 14q21 110 98 171.5t190 61.5q100 0 151 -71t24 -205 l-63 -314q-12 -57 -16 -97.5t-2 -83.5h-155zM407 829q29 0 72.5 29.5t65.5 64.5l23 114h-90q-47 0 -83 -33.5t-45 -79.5q-10 -49 3.5 -72t53.5 -23z" />
<glyph unicode="&#xab;" horiz-adv-x="846" d="M278 515l93 -397h-170l-131 388l1 6l3 13l286 389h170zM604 515l93 -397h-170l-131 388l1 6l3 13l286 389h170z" />
<glyph unicode="&#xac;" horiz-adv-x="900" d="M802 638h-1l-52 -263h-178l52 263h-466l32 163h645z" />
<glyph unicode="&#xad;" horiz-adv-x="711" d="M597 514h-457l45 228h457z" />
<glyph unicode="&#xae;" horiz-adv-x="1309" d="M128 729q53 334 248 540.5t439 206.5q230 0 364.5 -215t84.5 -532q-54 -335 -249.5 -542.5t-438.5 -207.5q-232 0 -366 215.5t-82 534.5zM236 729q-46 -282 57 -456.5t302 -174.5q187 0 352 181t208 450q44 280 -59 453.5t-300 173.5q-189 0 -353.5 -180t-206.5 -447z M574 655l-54 -339h-135l136 850h231q119 0 181 -67.5t42 -193.5q-10 -62 -40 -104.5t-83 -72.5q44 -32 57.5 -85.5t2.5 -127.5l-9 -56q-7 -44 -9 -75t3 -52l-2 -16h-138q-4 22 0.5 63.5t11.5 80.5l8 54q12 77 -6.5 109t-77.5 32h-119zM594 783h96q57 0 99 31t52 90 q12 78 -11.5 106t-98.5 28h-96z" />
<glyph unicode="&#xaf;" horiz-adv-x="896" d="M884 1297h-600l25 160h600z" />
<glyph unicode="&#xb0;" horiz-adv-x="678" d="M269 1203q23 122 103 198t176 76q87 0 138.5 -81t29.5 -193q-25 -123 -103.5 -197t-173.5 -74q-89 0 -141.5 79t-28.5 192zM403 1203q-12 -60 7 -94.5t58 -34.5q36 0 70 36.5t46 92.5q11 60 -7 96t-57 36q-36 0 -71 -38.5t-46 -93.5z" />
<glyph unicode="&#xb1;" horiz-adv-x="918" d="M660 956h245l-38 -235h-245l-61 -382h-242l61 382h-245l38 235h245l58 361h242zM665 7h-638l46 230h638z" />
<glyph unicode="&#xb2;" horiz-adv-x="701" d="M646 667h-492l30 152l286 254q52 50 68.5 82t25.5 78q9 44 1.5 68.5t-38.5 24.5q-30 0 -52.5 -31t-31.5 -80h-192q23 121 106.5 192.5t205.5 71.5q111 0 163.5 -64.5t29.5 -182.5q-18 -91 -71 -150t-178 -162l-88 -101h257z" />
<glyph unicode="&#xb3;" horiz-adv-x="691" d="M390 1136h82q37 0 61.5 25.5t34.5 72.5q8 42 -2.5 66.5t-43.5 24.5q-30 0 -51 -22.5t-27 -55.5h-191q23 116 102.5 173.5t191.5 57.5q116 0 178 -59.5t40 -169.5q-13 -60 -48.5 -104.5t-90.5 -69.5q49 -25 69.5 -71.5t8.5 -113.5q-25 -122 -103.5 -178.5t-206.5 -56.5 q-115 0 -180 63.5t-41 182.5h193q-10 -49 3 -71.5t52 -22.5q30 0 56.5 24.5t35.5 70.5q11 55 -5.5 81t-60.5 26h-82l17 89z" />
<glyph unicode="&#xb4;" horiz-adv-x="655" d="M424 1478h296l-276 -266h-220z" />
<glyph unicode="&#xb5;" horiz-adv-x="1038" d="M524 1082l-124 -623q-33 -160 -17.5 -205t78.5 -45q40 0 73.5 23t63.5 68l156 782h276l-216 -1082h-258l5 38q-37 -30 -76 -44.5t-82 -14.5q-28 0 -51 8t-42 23l-85 -426h-277l299 1498h277z" />
<glyph unicode="&#xb6;" horiz-adv-x="890" d="M404 0l104 520h-56q-169 0 -246.5 130t-35.5 338q44 224 164 346t305 122h332l-291 -1456h-276z" />
<glyph unicode="&#xb7;" horiz-adv-x="543" d="M427 560h-264l52 262h264z" />
<glyph unicode="&#xb8;" horiz-adv-x="469" d="M230 7l-20 -59q45 -11 68 -51.5t7 -121.5q-24 -118 -107 -177.5t-226 -59.5l27 163q27 0 46 20t28 64q8 46 -9 61t-73 20l53 141h206z" />
<glyph unicode="&#xb9;" horiz-adv-x="492" d="M435 665h-193l127 634l-90 -1l31 156l287 23z" />
<glyph unicode="&#xba;" horiz-adv-x="755" d="M245 1142q32 161 120.5 248t217.5 87q119 0 177.5 -93.5t29.5 -241.5l-23 -117q-32 -161 -121.5 -247.5t-217.5 -86.5q-120 0 -178 92.5t-28 241.5zM376 1025q-19 -95 1 -145t79 -50q53 0 95 54t60 141l23 117q18 92 -1 143t-78 51q-54 0 -96.5 -54.5t-59.5 -139.5z" />
<glyph unicode="&#xbb;" horiz-adv-x="847" d="M333 949l131 -389l-2 -6h1l-3 -13l-287 -389h-169l251 398l-91 399h169zM672 949l131 -389l-2 -6h1l-3 -13l-287 -389h-169l251 398l-91 399h169z" />
<glyph unicode="&#xbc;" horiz-adv-x="1155" d="M429 664h-193l127 634l-90 -1l31 156l287 23zM252 118l-115 74l771 1138l115 -74zM1030 294h61l-31 -154h-61l-28 -140h-194l28 140h-307l12 124l426 533l1 4h194zM708 294h128l51 254l-3 1l-10 -12z" />
<glyph unicode="&#xbd;" horiz-adv-x="1220" d="M245 118l-115 74l771 1138l115 -74zM413 664h-193l127 634l-90 -1l31 156l287 23zM1044 0h-492l30 152l286 254q52 50 68.5 82t25.5 78q9 44 1.5 68.5t-38.5 24.5q-30 0 -52.5 -31t-31.5 -80h-192q23 121 106.5 192.5t205.5 71.5q111 0 163.5 -64.5t29.5 -182.5 q-18 -91 -71 -150t-178 -162l-88 -101h257z" />
<glyph unicode="&#xbe;" horiz-adv-x="1336" d="M419 118l-115 74l771 1138l115 -74zM1165 294h61l-31 -154h-61l-28 -140h-194l28 140h-307l12 124l426 533l1 4h194zM843 294h128l51 254l-3 1l-10 -12zM373 1137h82q37 0 61.5 25.5t34.5 72.5q8 42 -2.5 66.5t-43.5 24.5q-30 0 -51 -22.5t-27 -55.5h-191 q23 116 102.5 173.5t191.5 57.5q116 0 178 -59.5t40 -169.5q-13 -60 -48.5 -104.5t-90.5 -69.5q49 -25 69.5 -71.5t8.5 -113.5q-25 -122 -103.5 -178.5t-206.5 -56.5q-115 0 -180 63.5t-41 182.5h193q-10 -49 3 -71.5t52 -22.5q30 0 56.5 24.5t35.5 70.5q11 55 -5.5 81 t-60.5 26h-82l17 89z" />
<glyph unicode="&#xbf;" horiz-adv-x="852" d="M669 668q-29 -139 -77 -202t-170 -159q-62 -57 -102 -122t-57 -152q-21 -100 -1 -149t82 -49q39 0 82 46t62 131h277q-44 -205 -169 -305.5t-298 -100.5q-178 0 -265 115t-48 311q27 136 101.5 234t182.5 176q56 45 81 92.5t43 133.5h276zM478 1082h272l-49 -248h-272z " />
<glyph unicode="&#xc0;" horiz-adv-x="1055" d="M669 311h-330l-128 -311h-278l658 1456h286l74 -1456h-277zM433 538h232l-9 533h-3zM890 1559h-219l-190 266h295z" />
<glyph unicode="&#xc1;" horiz-adv-x="1055" d="M669 311h-330l-128 -311h-278l658 1456h286l74 -1456h-277zM433 538h232l-9 533h-3zM814 1826h296l-276 -266h-220z" />
<glyph unicode="&#xc2;" horiz-adv-x="1055" d="M669 311h-330l-128 -311h-278l658 1456h286l74 -1456h-277zM433 538h232l-9 533h-3zM1073 1613l-5 -22h-198l-84 149l-144 -149h-195l5 25l282 237h150z" />
<glyph unicode="&#xc3;" horiz-adv-x="1055" d="M669 311h-330l-128 -311h-278l658 1456h286l74 -1456h-277zM433 538h232l-9 533h-3zM1102 1854q-17 -101 -72.5 -164.5t-131.5 -63.5q-50 0 -114 44t-104 44q-23 0 -44.5 -32.5t-28.5 -79.5l-137 43q15 98 71.5 163.5t131.5 65.5q38 0 108 -44t110 -44q24 0 46.5 32.5 t30.5 80.5z" />
<glyph unicode="&#xc4;" horiz-adv-x="1055" d="M669 311h-330l-128 -311h-278l658 1456h286l74 -1456h-277zM433 538h232l-9 533h-3zM1081 1606h-238l32 198h238zM672 1606h-237l32 198h237z" />
<glyph unicode="&#xc5;" horiz-adv-x="1055" d="M669 311h-330l-128 -311h-278l658 1456h286l74 -1456h-277zM433 538h232l-9 533h-3zM606 1739q17 87 78.5 138.5t141.5 51.5q72 0 114 -55t27 -135q-18 -89 -77.5 -137.5t-138.5 -48.5q-74 0 -118 52.5t-27 133.5zM709 1739q-9 -46 7.5 -70.5t52.5 -24.5q33 0 59.5 26 t35.5 69q9 47 -6 72t-51 25q-33 0 -61.5 -27.5t-36.5 -69.5z" />
<glyph unicode="&#xc6;" horiz-adv-x="1524" d="M1370 0h-711l57 339h-277l-188 -339h-322l860 1456h826l-46 -231h-428l-61 -363h354l-46 -230h-347l-68 -402h443zM756 578l79 466l-3 1l-260 -467h184z" />
<glyph unicode="&#xc7;" horiz-adv-x="1013" d="M993 495q-64 -261 -184.5 -388.5t-329.5 -127.5q-200 0 -312 170t-59 435l58 290q58 295 196 449t343 154q207 0 310.5 -139t70.5 -388h-275q24 152 -5 225.5t-129 73.5q-77 0 -138.5 -101t-95.5 -272l-58 -292q-38 -183 -9.5 -280.5t122.5 -97.5q83 0 132.5 68t87.5 221 h275zM546 6l-20 -59q45 -11 68 -51.5t7 -121.5q-24 -118 -107 -177.5t-226 -59.5l27 163q27 0 46 20t28 64q8 46 -9 61t-73 20l53 141h206z" />
<glyph unicode="&#xc8;" horiz-adv-x="931" d="M855 639h-431l-83 -412h509l-45 -227h-786l291 1456h784l-45 -228h-508l-72 -362h431zM838 1559h-219l-190 266h295z" />
<glyph unicode="&#xc9;" horiz-adv-x="931" d="M855 639h-431l-83 -412h509l-45 -227h-786l291 1456h784l-45 -228h-508l-72 -362h431zM762 1826h296l-276 -266h-220z" />
<glyph unicode="&#xca;" horiz-adv-x="931" d="M855 639h-431l-83 -412h509l-45 -227h-786l291 1456h784l-45 -228h-508l-72 -362h431zM1021 1613l-5 -22h-198l-84 149l-144 -149h-195l5 25l282 237h150z" />
<glyph unicode="&#xcb;" horiz-adv-x="931" d="M855 639h-431l-83 -412h509l-45 -227h-786l291 1456h784l-45 -228h-508l-72 -362h431zM1029 1606h-238l32 198h238zM620 1606h-237l32 198h237z" />
<glyph unicode="&#xcc;" horiz-adv-x="508" d="M307 0h-277l291 1456h277zM620 1559h-219l-190 266h295z" />
<glyph unicode="&#xcd;" horiz-adv-x="508" d="M307 0h-277l291 1456h277zM543 1826h296l-276 -266h-220z" />
<glyph unicode="&#xce;" horiz-adv-x="508" d="M307 0h-277l291 1456h277zM803 1613l-5 -22h-198l-84 149l-144 -149h-195l5 25l282 237h150z" />
<glyph unicode="&#xcf;" horiz-adv-x="508" d="M307 0h-277l291 1456h277zM811 1606h-238l32 198h238zM402 1606h-237l32 198h237z" />
<glyph unicode="&#xd0;" horiz-adv-x="1106" d="M49 0l131 655h-98l35 175h98l125 626h375q197 0 312.5 -175t62.5 -440l-49 -245q-59 -294 -202.5 -445t-353.5 -151h-436zM613 655h-156l-86 -428h143q95 0 154.5 94.5t95.5 274.5l50 247q35 181 -8 283t-152 102h-83l-79 -398h156z" />
<glyph unicode="&#xd1;" horiz-adv-x="1141" d="M950 0h-276l-196 893h-3l-179 -893h-277l291 1456h277l196 -891h3l179 891h276zM1147 1854q-17 -101 -72.5 -164.5t-131.5 -63.5q-50 0 -114 44t-104 44q-23 0 -44.5 -32.5t-28.5 -79.5l-137 43q15 98 71.5 163.5t131.5 65.5q38 0 108 -44t110 -44q24 0 46.5 32.5 t30.5 80.5z" />
<glyph unicode="&#xd2;" horiz-adv-x="1119" d="M1066 596q-59 -295 -211 -456t-369 -161q-203 0 -315.5 177t-58.5 444l52 259q59 295 206 456.5t363 161.5q205 0 321.5 -178.5t63.5 -443.5zM841 857q36 180 -7.5 285.5t-145.5 105.5q-88 0 -150.5 -104t-98.5 -283l-52 -261q-37 -184 2.5 -288.5t141.5 -104.5 q88 0 155 106t103 283zM933 1580h-219l-190 266h295z" />
<glyph unicode="&#xd3;" horiz-adv-x="1119" d="M1066 596q-59 -295 -211 -456t-369 -161q-203 0 -315.5 177t-58.5 444l52 259q59 295 206 456.5t363 161.5q205 0 321.5 -178.5t63.5 -443.5zM841 857q36 180 -7.5 285.5t-145.5 105.5q-88 0 -150.5 -104t-98.5 -283l-52 -261q-37 -184 2.5 -288.5t141.5 -104.5 q88 0 155 106t103 283zM857 1847h296l-276 -266h-220z" />
<glyph unicode="&#xd4;" horiz-adv-x="1119" d="M1066 596q-59 -295 -211 -456t-369 -161q-203 0 -315.5 177t-58.5 444l52 259q59 295 206 456.5t363 161.5q205 0 321.5 -178.5t63.5 -443.5zM841 857q36 180 -7.5 285.5t-145.5 105.5q-88 0 -150.5 -104t-98.5 -283l-52 -261q-37 -184 2.5 -288.5t141.5 -104.5 q88 0 155 106t103 283zM1116 1634l-5 -22h-198l-84 149l-144 -149h-195l5 25l282 237h150z" />
<glyph unicode="&#xd5;" horiz-adv-x="1119" d="M1066 596q-59 -295 -211 -456t-369 -161q-203 0 -315.5 177t-58.5 444l52 259q59 295 206 456.5t363 161.5q205 0 321.5 -178.5t63.5 -443.5zM841 857q36 180 -7.5 285.5t-145.5 105.5q-88 0 -150.5 -104t-98.5 -283l-52 -261q-37 -184 2.5 -288.5t141.5 -104.5 q88 0 155 106t103 283zM1145 1875q-17 -101 -72.5 -164.5t-131.5 -63.5q-50 0 -114 44t-104 44q-23 0 -44.5 -32.5t-28.5 -79.5l-137 43q15 98 71.5 163.5t131.5 65.5q38 0 108 -44t110 -44q24 0 46.5 32.5t30.5 80.5z" />
<glyph unicode="&#xd6;" horiz-adv-x="1119" d="M1066 596q-59 -295 -211 -456t-369 -161q-203 0 -315.5 177t-58.5 444l52 259q59 295 206 456.5t363 161.5q205 0 321.5 -178.5t63.5 -443.5zM841 857q36 180 -7.5 285.5t-145.5 105.5q-88 0 -150.5 -104t-98.5 -283l-52 -261q-37 -184 2.5 -288.5t141.5 -104.5 q88 0 155 106t103 283zM1124 1627h-238l32 198h238zM715 1627h-237l32 198h237z" />
<glyph unicode="&#xd7;" horiz-adv-x="907" d="M49 369l308 313l-185 318l194 163l173 -297l292 297l128 -163l-313 -318l183 -313l-193 -163l-171 291l-286 -291z" />
<glyph unicode="&#xd8;" horiz-adv-x="1118" d="M1041 523q-57 -281 -204.5 -412.5t-368.5 -131.5q-62 0 -113.5 13.5t-95.5 42.5l-82 -128h-123l126 198q-58 72 -75.5 176t10.5 242l81 408q56 281 202.5 413.5t366.5 132.5q72 0 132.5 -20t109.5 -60l76 119h122l-128 -200q44 -73 56 -168.5t-11 -216.5zM391 523 q-7 -35 -11.5 -62t-5.5 -48l3 -1l477 746q-15 47 -47.5 68.5t-86.5 21.5q-90 0 -152.5 -77.5t-94.5 -237.5zM846 933q2 10 3 15.5t1 8.5l-2 1l-449 -703q17 -26 45 -37t69 -11q89 0 153.5 77.5t97.5 238.5z" />
<glyph unicode="&#xd9;" horiz-adv-x="1084" d="M1201 1456l-198 -991q-51 -253 -194.5 -369.5t-355.5 -116.5q-195 0 -298 126.5t-56 359.5l198 991h273l-198 -991q-29 -144 4 -201.5t122 -57.5q84 0 143 59.5t87 199.5l198 991h275zM906 1559h-219l-190 266h295z" />
<glyph unicode="&#xda;" horiz-adv-x="1084" d="M1201 1456l-198 -991q-51 -253 -194.5 -369.5t-355.5 -116.5q-195 0 -298 126.5t-56 359.5l198 991h273l-198 -991q-29 -144 4 -201.5t122 -57.5q84 0 143 59.5t87 199.5l198 991h275zM830 1826h296l-276 -266h-220z" />
<glyph unicode="&#xdb;" horiz-adv-x="1084" d="M1201 1456l-198 -991q-51 -253 -194.5 -369.5t-355.5 -116.5q-195 0 -298 126.5t-56 359.5l198 991h273l-198 -991q-29 -144 4 -201.5t122 -57.5q84 0 143 59.5t87 199.5l198 991h275zM1089 1613l-5 -22h-198l-84 149l-144 -149h-195l5 25l282 237h150z" />
<glyph unicode="&#xdc;" horiz-adv-x="1084" d="M1201 1456l-198 -991q-51 -253 -194.5 -369.5t-355.5 -116.5q-195 0 -298 126.5t-56 359.5l198 991h273l-198 -991q-29 -144 4 -201.5t122 -57.5q84 0 143 59.5t87 199.5l198 991h275zM1097 1606h-238l32 198h238zM688 1606h-237l32 198h237z" />
<glyph unicode="&#xdd;" horiz-adv-x="1011" d="M593 873l3 -1l306 584h301l-546 -936l-104 -520h-274l109 544l-168 912h300zM803 1825h296l-276 -266h-220z" />
<glyph unicode="&#xde;" horiz-adv-x="996" d="M585 1456l-54 -268h138q194 0 287 -124.5t54 -325.5q-44 -219 -176.5 -334.5t-344.5 -115.5h-138l-57 -288h-277l291 1456h277zM487 966l-90 -451h137q74 0 127 63.5t72 157.5q20 103 -5 164t-105 61h-133z" />
<glyph unicode="&#xdf;" horiz-adv-x="1051" d="M305 0h-276l221 1104q48 242 173.5 353.5t320.5 111.5q144 0 226.5 -96t48.5 -269q-24 -118 -80 -207.5t-70 -161.5q-13 -61 64 -197.5t49 -278.5q-43 -209 -145 -294t-295 -85q-56 0 -111.5 14.5t-81.5 39.5l94 224q23 -23 58 -37.5t85 -14.5q41 0 73 37.5t46 104.5 q16 82 -63 208.5t-51 267.5q21 106 79 198.5t73 167.5q14 69 -7 111t-62 42q-42 0 -84.5 -65.5t-64.5 -177.5z" />
<glyph unicode="&#xe0;" horiz-adv-x="875" d="M473 0q-5 28 -7.5 57.5t-1.5 57.5l-3 1q-46 -62 -101.5 -99t-120.5 -37q-116 0 -175.5 87.5t-29.5 234.5q35 173 139 254t295 81h87l18 88q17 86 4 125t-59 39q-36 0 -60.5 -33.5t-37.5 -98.5h-277q32 159 147.5 252t287.5 93q147 0 227.5 -98t44.5 -281l-88 -438 q-17 -84 -19.5 -148t5.5 -137h-275zM363 193q31 0 62.5 20t55.5 54l42 207h-87q-48 0 -78.5 -44.5t-44.5 -114.5q-12 -59 1.5 -90.5t48.5 -31.5zM735 1237h-219l-190 266h295z" />
<glyph unicode="&#xe1;" horiz-adv-x="875" d="M473 0q-5 28 -7.5 57.5t-1.5 57.5l-3 1q-46 -62 -101.5 -99t-120.5 -37q-116 0 -175.5 87.5t-29.5 234.5q35 173 139 254t295 81h87l18 88q17 86 4 125t-59 39q-36 0 -60.5 -33.5t-37.5 -98.5h-277q32 159 147.5 252t287.5 93q147 0 227.5 -98t44.5 -281l-88 -438 q-17 -84 -19.5 -148t5.5 -137h-275zM363 193q31 0 62.5 20t55.5 54l42 207h-87q-48 0 -78.5 -44.5t-44.5 -114.5q-12 -59 1.5 -90.5t48.5 -31.5zM659 1504h296l-276 -266h-220z" />
<glyph unicode="&#xe2;" horiz-adv-x="875" d="M473 0q-5 28 -7.5 57.5t-1.5 57.5l-3 1q-46 -62 -101.5 -99t-120.5 -37q-116 0 -175.5 87.5t-29.5 234.5q35 173 139 254t295 81h87l18 88q17 86 4 125t-59 39q-36 0 -60.5 -33.5t-37.5 -98.5h-277q32 159 147.5 252t287.5 93q147 0 227.5 -98t44.5 -281l-88 -438 q-17 -84 -19.5 -148t5.5 -137h-275zM363 193q31 0 62.5 20t55.5 54l42 207h-87q-48 0 -78.5 -44.5t-44.5 -114.5q-12 -59 1.5 -90.5t48.5 -31.5zM918 1291l-5 -22h-198l-84 149l-144 -149h-195l5 25l282 237h150z" />
<glyph unicode="&#xe3;" horiz-adv-x="875" d="M473 0q-5 28 -7.5 57.5t-1.5 57.5l-3 1q-46 -62 -101.5 -99t-120.5 -37q-116 0 -175.5 87.5t-29.5 234.5q35 173 139 254t295 81h87l18 88q17 86 4 125t-59 39q-36 0 -60.5 -33.5t-37.5 -98.5h-277q32 159 147.5 252t287.5 93q147 0 227.5 -98t44.5 -281l-88 -438 q-17 -84 -19.5 -148t5.5 -137h-275zM363 193q31 0 62.5 20t55.5 54l42 207h-87q-48 0 -78.5 -44.5t-44.5 -114.5q-12 -59 1.5 -90.5t48.5 -31.5zM947 1532q-17 -101 -72.5 -164.5t-131.5 -63.5q-50 0 -114 44t-104 44q-23 0 -44.5 -32.5t-28.5 -79.5l-137 43 q15 98 71.5 163.5t131.5 65.5q38 0 108 -44t110 -44q24 0 46.5 32.5t30.5 80.5z" />
<glyph unicode="&#xe4;" horiz-adv-x="875" d="M473 0q-5 28 -7.5 57.5t-1.5 57.5l-3 1q-46 -62 -101.5 -99t-120.5 -37q-116 0 -175.5 87.5t-29.5 234.5q35 173 139 254t295 81h87l18 88q17 86 4 125t-59 39q-36 0 -60.5 -33.5t-37.5 -98.5h-277q32 159 147.5 252t287.5 93q147 0 227.5 -98t44.5 -281l-88 -438 q-17 -84 -19.5 -148t5.5 -137h-275zM363 193q31 0 62.5 20t55.5 54l42 207h-87q-48 0 -78.5 -44.5t-44.5 -114.5q-12 -59 1.5 -90.5t48.5 -31.5zM926 1284h-238l32 198h238zM517 1284h-237l32 198h237z" />
<glyph unicode="&#xe5;" horiz-adv-x="875" d="M473 0q-5 28 -7.5 57.5t-1.5 57.5l-3 1q-46 -62 -101.5 -99t-120.5 -37q-116 0 -175.5 87.5t-29.5 234.5q35 173 139 254t295 81h87l18 88q17 86 4 125t-59 39q-36 0 -60.5 -33.5t-37.5 -98.5h-277q32 159 147.5 252t287.5 93q147 0 227.5 -98t44.5 -281l-88 -438 q-17 -84 -19.5 -148t5.5 -137h-275zM363 193q31 0 62.5 20t55.5 54l42 207h-87q-48 0 -78.5 -44.5t-44.5 -114.5q-12 -59 1.5 -90.5t48.5 -31.5zM451 1417q17 87 78.5 138.5t141.5 51.5q72 0 114 -55t27 -135q-18 -89 -77.5 -137.5t-138.5 -48.5q-74 0 -118 52.5t-27 133.5z M554 1417q-9 -46 7.5 -70.5t52.5 -24.5q33 0 59.5 26t35.5 69q9 47 -6 72t-51 25q-33 0 -61.5 -27.5t-36.5 -69.5z" />
<glyph unicode="&#xe6;" horiz-adv-x="1356" d="M874 -21q-93 0 -160.5 37.5t-108.5 111.5q-61 -67 -143.5 -108t-187.5 -41q-147 0 -216 91t-38 247q34 173 148 252.5t317 79.5h112l11 56q17 86 2.5 127.5t-57.5 41.5t-77 -37t-44 -92l-273 18q31 161 148.5 250t293.5 89q69 0 124.5 -21t96.5 -62q55 42 119 62.5 t141 20.5q158 0 231.5 -131.5t28.5 -355.5l-32 -160h-475q-21 -125 5 -187t112 -62q65 0 115.5 19t116.5 59l32 -183q-58 -50 -151.5 -86t-190.5 -36zM370 184q30 0 73.5 25t77.5 61l39 196h-111q-54 0 -97 -45t-55 -108q-14 -66 3 -97.5t70 -31.5zM1037 874 q-58 0 -96 -59.5t-66 -170.5h202l5 27q21 102 10.5 152.5t-55.5 50.5z" />
<glyph unicode="&#xe7;" horiz-adv-x="856" d="M410 206q48 0 84.5 44.5t44.5 126.5h257q-22 -179 -143 -288t-274 -109q-188 0 -269 135.5t-46 354.5l22 139q37 230 156 361.5t316 131.5q160 0 241.5 -113.5t44.5 -313.5h-257q19 92 2 145.5t-72 53.5q-69 0 -101 -68t-53 -197l-22 -139q-23 -138 -13.5 -201t82.5 -63z M483 6l-20 -59q45 -11 68 -51.5t7 -121.5q-24 -118 -107 -177.5t-226 -59.5l27 163q27 0 46 20t28 64q8 46 -9 61t-73 20l53 141h206z" />
<glyph unicode="&#xe8;" horiz-adv-x="868" d="M387 -20q-176 0 -263 133t-54 338l24 152q37 233 155 366t304 133q172 0 248.5 -126t41.5 -347l-28 -174h-469v-4q-19 -115 5 -180t105 -65q87 0 140 20t107 58l24 -196q-58 -50 -147 -79t-193 -29zM517 874q-53 0 -86 -60.5t-54 -168.5h198l7 40q15 96 1 142.5t-66 46.5 zM691 1238h-219l-190 266h295z" />
<glyph unicode="&#xe9;" horiz-adv-x="868" d="M387 -20q-176 0 -263 133t-54 338l24 152q37 233 155 366t304 133q172 0 248.5 -126t41.5 -347l-28 -174h-469v-4q-19 -115 5 -180t105 -65q87 0 140 20t107 58l24 -196q-58 -50 -147 -79t-193 -29zM517 874q-53 0 -86 -60.5t-54 -168.5h198l7 40q15 96 1 142.5t-66 46.5 zM615 1505h296l-276 -266h-220z" />
<glyph unicode="&#xea;" horiz-adv-x="868" d="M387 -20q-176 0 -263 133t-54 338l24 152q37 233 155 366t304 133q172 0 248.5 -126t41.5 -347l-28 -174h-469v-4q-19 -115 5 -180t105 -65q87 0 140 20t107 58l24 -196q-58 -50 -147 -79t-193 -29zM517 874q-53 0 -86 -60.5t-54 -168.5h198l7 40q15 96 1 142.5t-66 46.5 zM875 1292l-5 -22h-198l-84 149l-144 -149h-195l5 25l282 237h150z" />
<glyph unicode="&#xeb;" horiz-adv-x="868" d="M387 -20q-176 0 -263 133t-54 338l24 152q37 233 155 366t304 133q172 0 248.5 -126t41.5 -347l-28 -174h-469v-4q-19 -115 5 -180t105 -65q87 0 140 20t107 58l24 -196q-58 -50 -147 -79t-193 -29zM517 874q-53 0 -86 -60.5t-54 -168.5h198l7 40q15 96 1 142.5t-66 46.5 zM883 1285h-238l32 198h238zM474 1285h-237l32 198h237z" />
<glyph unicode="&#xec;" horiz-adv-x="497" d="M300 0h-278l216 1082h278zM547 1216h-219l-190 266h295z" />
<glyph unicode="&#xed;" horiz-adv-x="497" d="M300 0h-278l216 1082h278zM470 1483h296l-276 -266h-220z" />
<glyph unicode="&#xee;" horiz-adv-x="497" d="M300 0h-278l216 1082h278zM730 1271l-5 -22h-198l-84 149l-144 -149h-195l5 25l282 237h150z" />
<glyph unicode="&#xef;" horiz-adv-x="497" d="M300 0h-278l216 1082h278zM738 1263h-238l32 198h238zM329 1263h-237l32 198h237z" />
<glyph unicode="&#xf0;" horiz-adv-x="973" d="M890 1285q69 -119 87.5 -274t-19.5 -347l-14 -71q-59 -294 -213.5 -454t-350.5 -160q-182 0 -279 140t-55 347q49 246 174.5 371.5t314.5 125.5q50 0 93 -20t79 -57q0 78 -13.5 139t-39.5 111l-186 -117l-46 111l160 100q-24 21 -50 38t-54 32l130 217q62 -22 114.5 -56 t97.5 -81l174 110l46 -110zM682 666v1q-18 37 -53 60t-88 23q-73 0 -133.5 -78t-85.5 -206q-24 -119 4 -189.5t102 -70.5q72 0 139 108.5t101 278.5z" />
<glyph unicode="&#xf1;" d="M458 958l2 -2q54 70 117 108t134 38q117 0 169.5 -103.5t7.5 -326.5l-134 -672h-277l134 672q24 121 7.5 161.5t-74.5 40.5q-28 0 -55 -16.5t-52 -47.5l-162 -810h-277l216 1082h258zM973 1532q-17 -101 -72.5 -164.5t-131.5 -63.5q-50 0 -114 44t-104 44 q-23 0 -44.5 -32.5t-28.5 -79.5l-137 43q15 98 71.5 163.5t131.5 65.5q38 0 108 -44t110 -44q24 0 46.5 32.5t30.5 80.5z" />
<glyph unicode="&#xf2;" d="M88 607q36 231 159 363t319 132q186 0 271 -137.5t50 -357.5l-21 -134q-38 -233 -160 -363t-317 -130q-188 0 -273 136t-49 357zM343 473q-22 -134 -7 -200.5t89 -66.5q66 0 105 70.5t60 196.5l21 134q21 130 5.5 198.5t-86.5 68.5q-68 0 -107.5 -72t-58.5 -195z M723 1237h-219l-190 266h295z" />
<glyph unicode="&#xf3;" d="M88 607q36 231 159 363t319 132q186 0 271 -137.5t50 -357.5l-21 -134q-38 -233 -160 -363t-317 -130q-188 0 -273 136t-49 357zM343 473q-22 -134 -7 -200.5t89 -66.5q66 0 105 70.5t60 196.5l21 134q21 130 5.5 198.5t-86.5 68.5q-68 0 -107.5 -72t-58.5 -195z M647 1504h296l-276 -266h-220z" />
<glyph unicode="&#xf4;" d="M88 607q36 231 159 363t319 132q186 0 271 -137.5t50 -357.5l-21 -134q-38 -233 -160 -363t-317 -130q-188 0 -273 136t-49 357zM343 473q-22 -134 -7 -200.5t89 -66.5q66 0 105 70.5t60 196.5l21 134q21 130 5.5 198.5t-86.5 68.5q-68 0 -107.5 -72t-58.5 -195z M906 1291l-5 -22h-198l-84 149l-144 -149h-195l5 25l282 237h150z" />
<glyph unicode="&#xf5;" d="M88 607q36 231 159 363t319 132q186 0 271 -137.5t50 -357.5l-21 -134q-38 -233 -160 -363t-317 -130q-188 0 -273 136t-49 357zM343 473q-22 -134 -7 -200.5t89 -66.5q66 0 105 70.5t60 196.5l21 134q21 130 5.5 198.5t-86.5 68.5q-68 0 -107.5 -72t-58.5 -195z M935 1532q-17 -101 -72.5 -164.5t-131.5 -63.5q-50 0 -114 44t-104 44q-23 0 -44.5 -32.5t-28.5 -79.5l-137 43q15 98 71.5 163.5t131.5 65.5q38 0 108 -44t110 -44q24 0 46.5 32.5t30.5 80.5z" />
<glyph unicode="&#xf6;" d="M88 607q36 231 159 363t319 132q186 0 271 -137.5t50 -357.5l-21 -134q-38 -233 -160 -363t-317 -130q-188 0 -273 136t-49 357zM343 473q-22 -134 -7 -200.5t89 -66.5q66 0 105 70.5t60 196.5l21 134q21 130 5.5 198.5t-86.5 68.5q-68 0 -107.5 -72t-58.5 -195z M915 1284h-238l32 198h238zM506 1284h-237l32 198h237z" />
<glyph unicode="&#xf7;" horiz-adv-x="928" d="M888 577h-795l45 221h795zM703 971h-270l46 230h270zM542 167h-270l46 230h270z" />
<glyph unicode="&#xf8;" horiz-adv-x="923" d="M88 607q36 231 159 363t319 132q43 0 80 -8.5t71 -24.5l85 148h145l-131 -228q54 -69 72 -165.5t-1 -216.5l-21 -134q-38 -233 -160 -363t-317 -130q-39 0 -72.5 6.5t-63.5 18.5l-85 -148h-144l126 220q-62 67 -83 167.5t0 228.5zM343 473q-4 -20 -6.5 -38t-2.5 -31l2 -1 l256 447q-12 11 -27 17.5t-35 6.5q-68 0 -107.5 -72t-58.5 -195zM614 630l-3 1l-236 -413q9 -7 21.5 -9.5t28.5 -2.5q66 0 105 70.5t60 196.5l21 134z" />
<glyph unicode="&#xf9;" d="M510 0l8 108l-3 1q-51 -64 -111.5 -96.5t-132.5 -32.5q-125 0 -180.5 109t-8.5 339l130 654h277l-131 -656q-25 -124 -13 -171t59 -47q35 0 66.5 16t60.5 49l161 809h276l-216 -1082h-242zM754 1216h-219l-190 266h295z" />
<glyph unicode="&#xfa;" d="M510 0l8 108l-3 1q-51 -64 -111.5 -96.5t-132.5 -32.5q-125 0 -180.5 109t-8.5 339l130 654h277l-131 -656q-25 -124 -13 -171t59 -47q35 0 66.5 16t60.5 49l161 809h276l-216 -1082h-242zM678 1483h296l-276 -266h-220z" />
<glyph unicode="&#xfb;" d="M510 0l8 108l-3 1q-51 -64 -111.5 -96.5t-132.5 -32.5q-125 0 -180.5 109t-8.5 339l130 654h277l-131 -656q-25 -124 -13 -171t59 -47q35 0 66.5 16t60.5 49l161 809h276l-216 -1082h-242zM937 1271l-5 -22h-198l-84 149l-144 -149h-195l5 25l282 237h150z" />
<glyph unicode="&#xfc;" d="M510 0l8 108l-3 1q-51 -64 -111.5 -96.5t-132.5 -32.5q-125 0 -180.5 109t-8.5 339l130 654h277l-131 -656q-25 -124 -13 -171t59 -47q35 0 66.5 16t60.5 49l161 809h276l-216 -1082h-242zM945 1263h-238l32 198h238zM536 1263h-237l32 198h237z" />
<glyph unicode="&#xfd;" horiz-adv-x="848" d="M417 478h3l249 604h297l-576 -1245q-53 -113 -134 -193.5t-213 -80.5q-32 0 -56 5.5t-68 18.5l76 212l19.5 -4.5t14.5 -1.5q52 0 84 28.5t60 89.5l36 76l-67 1095h297zM641 1483h296l-276 -266h-220z" />
<glyph unicode="&#xfe;" horiz-adv-x="926" d="M881 494q-53 -264 -152 -389.5t-259 -125.5q-56 0 -100 22t-76 66l-13 -67h-1l-83 -416h-276l299 1498h1l96 478h276l-107 -533l3 -2q38 37 81 57t92 20q148 0 210.5 -166.5t12.5 -420.5zM609 515q34 169 25 264t-75 95q-33 0 -64 -26t-59 -73l-105 -526q12 -23 34.5 -33 t59.5 -10q64 0 107.5 73t72.5 215z" />
<glyph unicode="&#xff;" horiz-adv-x="848" d="M417 478h3l249 604h297l-576 -1245q-53 -113 -134 -193.5t-213 -80.5q-32 0 -56 5.5t-68 18.5l76 212l19.5 -4.5t14.5 -1.5q52 0 84 28.5t60 89.5l36 76l-67 1095h297zM909 1263h-238l32 198h238zM500 1263h-237l32 198h237z" />
<glyph unicode="&#x100;" horiz-adv-x="1055" d="M669 311h-330l-128 -311h-278l658 1456h286l74 -1456h-277zM433 538h232l-9 533h-3zM1063 1617h-600l25 160h600z" />
<glyph unicode="&#x101;" horiz-adv-x="875" d="M473 0q-5 28 -7.5 57.5t-1.5 57.5l-3 1q-46 -62 -101.5 -99t-120.5 -37q-116 0 -175.5 87.5t-29.5 234.5q35 173 139 254t295 81h87l18 88q17 86 4 125t-59 39q-36 0 -60.5 -33.5t-37.5 -98.5h-277q32 159 147.5 252t287.5 93q147 0 227.5 -98t44.5 -281l-88 -438 q-17 -84 -19.5 -148t5.5 -137h-275zM363 193q31 0 62.5 20t55.5 54l42 207h-87q-48 0 -78.5 -44.5t-44.5 -114.5q-12 -59 1.5 -90.5t48.5 -31.5zM908 1296h-600l25 160h600z" />
<glyph unicode="&#x102;" horiz-adv-x="1055" d="M669 311h-330l-128 -311h-278l658 1456h286l74 -1456h-277zM433 538h232l-9 533h-3zM1101 1897q-23 -141 -113 -218.5t-227 -77.5q-132 0 -200.5 81t-46.5 215h193q-10 -63 7.5 -99.5t71.5 -36.5q50 0 80.5 38t40.5 98h194z" />
<glyph unicode="&#x103;" horiz-adv-x="875" d="M473 0q-5 28 -7.5 57.5t-1.5 57.5l-3 1q-46 -62 -101.5 -99t-120.5 -37q-116 0 -175.5 87.5t-29.5 234.5q35 173 139 254t295 81h87l18 88q17 86 4 125t-59 39q-36 0 -60.5 -33.5t-37.5 -98.5h-277q32 159 147.5 252t287.5 93q147 0 227.5 -98t44.5 -281l-88 -438 q-17 -84 -19.5 -148t5.5 -137h-275zM363 193q31 0 62.5 20t55.5 54l42 207h-87q-48 0 -78.5 -44.5t-44.5 -114.5q-12 -59 1.5 -90.5t48.5 -31.5zM946 1575q-23 -141 -113 -218.5t-227 -77.5q-132 0 -200.5 81t-46.5 215h193q-10 -63 7.5 -99.5t71.5 -36.5q50 0 80.5 38 t40.5 98h194z" />
<glyph unicode="&#x104;" horiz-adv-x="1055" d="M877 1456l74 -1456h-99q-68 -43 -98 -82t-38 -95q-6 -32 1 -49t31 -17q16 0 29 6t26 15l4 -152q-28 -19 -62 -31.5t-79 -12.5q-82 0 -129 53.5t-30 151.5q11 72 49.5 128.5t116.5 105.5l-4 290h-330l-128 -311h-278l658 1456h286zM433 538h232l-9 533h-3z" />
<glyph unicode="&#x105;" horiz-adv-x="875" d="M473 0q-5 28 -7.5 57.5t-1.5 57.5l-3 1q-46 -62 -101.5 -99t-120.5 -37q-116 0 -175.5 87.5t-29.5 234.5q35 173 139 254t295 81h87l18 88q17 86 4 125t-59 39q-36 0 -60.5 -33.5t-37.5 -98.5h-277q32 159 147.5 252t287.5 93q147 0 227.5 -98t44.5 -281l-88 -438 q-17 -84 -19.5 -148t5.5 -137h-49q-68 -43 -98 -82t-38 -95q-6 -32 1 -49t31 -17q16 0 29 6t26 15l4 -152q-28 -19 -62 -31.5t-79 -12.5q-82 0 -129 53.5t-30 151.5q10 64 41 115.5t91 94.5l-1 3h-12zM363 193q31 0 62.5 20t55.5 54l42 207h-87q-48 0 -78.5 -44.5 t-44.5 -114.5q-12 -59 1.5 -90.5t48.5 -31.5z" />
<glyph unicode="&#x106;" horiz-adv-x="1013" d="M993 495q-64 -261 -184.5 -388.5t-329.5 -127.5q-200 0 -312 170t-59 435l58 290q58 295 196 449t343 154q207 0 310.5 -139t70.5 -388h-275q24 152 -5 225.5t-129 73.5q-77 0 -138.5 -101t-95.5 -272l-58 -292q-38 -183 -9.5 -280.5t122.5 -97.5q83 0 132.5 68t87.5 221 h275zM831 1847h296l-276 -266h-220z" />
<glyph unicode="&#x107;" horiz-adv-x="856" d="M410 206q48 0 84.5 44.5t44.5 126.5h257q-22 -179 -143 -288t-274 -109q-188 0 -269 135.5t-46 354.5l22 139q37 230 156 361.5t316 131.5q160 0 241.5 -113.5t44.5 -313.5h-257q19 92 2 145.5t-72 53.5q-69 0 -101 -68t-53 -197l-22 -139q-23 -138 -13.5 -201t82.5 -63z M613 1504h296l-276 -266h-220z" />
<glyph unicode="&#x108;" horiz-adv-x="1013" d="M993 495q-64 -261 -184.5 -388.5t-329.5 -127.5q-200 0 -312 170t-59 435l58 290q58 295 196 449t343 154q207 0 310.5 -139t70.5 -388h-275q24 152 -5 225.5t-129 73.5q-77 0 -138.5 -101t-95.5 -272l-58 -292q-38 -183 -9.5 -280.5t122.5 -97.5q83 0 132.5 68t87.5 221 h275zM1090 1634l-5 -22h-198l-84 149l-144 -149h-195l5 25l282 237h150z" />
<glyph unicode="&#x109;" horiz-adv-x="856" d="M410 206q48 0 84.5 44.5t44.5 126.5h257q-22 -179 -143 -288t-274 -109q-188 0 -269 135.5t-46 354.5l22 139q37 230 156 361.5t316 131.5q160 0 241.5 -113.5t44.5 -313.5h-257q19 92 2 145.5t-72 53.5q-69 0 -101 -68t-53 -197l-22 -139q-23 -138 -13.5 -201t82.5 -63z M873 1291l-5 -22h-198l-84 149l-144 -149h-195l5 25l282 237h150z" />
<glyph unicode="&#x10a;" horiz-adv-x="1013" d="M993 495q-64 -261 -184.5 -388.5t-329.5 -127.5q-200 0 -312 170t-59 435l58 290q58 295 196 449t343 154q207 0 310.5 -139t70.5 -388h-275q24 152 -5 225.5t-129 73.5q-77 0 -138.5 -101t-95.5 -272l-58 -292q-38 -183 -9.5 -280.5t122.5 -97.5q83 0 132.5 68t87.5 221 h275zM913 1628h-280l48 241h280z" />
<glyph unicode="&#x10b;" horiz-adv-x="856" d="M410 206q48 0 84.5 44.5t44.5 126.5h257q-22 -179 -143 -288t-274 -109q-188 0 -269 135.5t-46 354.5l22 139q37 230 156 361.5t316 131.5q160 0 241.5 -113.5t44.5 -313.5h-257q19 92 2 145.5t-72 53.5q-69 0 -101 -68t-53 -197l-22 -139q-23 -138 -13.5 -201t82.5 -63z M695 1285h-280l48 241h280z" />
<glyph unicode="&#x10c;" horiz-adv-x="1013" d="M993 495q-64 -261 -184.5 -388.5t-329.5 -127.5q-200 0 -312 170t-59 435l58 290q58 295 196 449t343 154q207 0 310.5 -139t70.5 -388h-275q24 152 -5 225.5t-129 73.5q-77 0 -138.5 -101t-95.5 -272l-58 -292q-38 -183 -9.5 -280.5t122.5 -97.5q83 0 132.5 68t87.5 221 h275zM802 1751l116 142h233l-3 -17l-281 -253h-184l-179 255l3 15h232z" />
<glyph unicode="&#x10d;" horiz-adv-x="856" d="M410 206q48 0 84.5 44.5t44.5 126.5h257q-22 -179 -143 -288t-274 -109q-188 0 -269 135.5t-46 354.5l22 139q37 230 156 361.5t316 131.5q160 0 241.5 -113.5t44.5 -313.5h-257q19 92 2 145.5t-72 53.5q-69 0 -101 -68t-53 -197l-22 -139q-23 -138 -13.5 -201t82.5 -63z M585 1408l116 142h233l-3 -17l-281 -253h-184l-179 255l3 15h232z" />
<glyph unicode="&#x10e;" horiz-adv-x="1076" d="M685 1456q197 0 312.5 -175t62.5 -440l-49 -245q-59 -294 -202.5 -445t-353.5 -151h-436l291 1456h375zM541 1228l-200 -1001h143q95 0 154.5 94.5t95.5 274.5l50 247q35 181 -8 283t-152 102h-83zM728 1730l116 142h233l-3 -17l-281 -253h-184l-179 255l3 15h232z" />
<glyph unicode="&#x10f;" horiz-adv-x="1072" d="M80 555q55 278 156.5 412.5t262.5 134.5q53 0 96 -25t76 -73l111 556h278l-312 -1560h-240l4 88l-3 2q-46 -54 -97.5 -82.5t-107.5 -28.5q-147 0 -212 157t-16 398zM352 534q-33 -161 -23.5 -244t77.5 -83q32 0 63 23t61 68l102 512q-13 32 -35 48t-54 16 q-63 0 -110 -84.5t-77 -234.5zM1331 1456q-21 -102 -74 -196t-119 -161l-117 75q42 63 69 124t44 143l23 118h194z" />
<glyph unicode="&#x110;" horiz-adv-x="1106" d="M49 0l131 655h-98l35 175h98l125 626h375q197 0 312.5 -175t62.5 -440l-49 -245q-59 -294 -202.5 -445t-353.5 -151h-436zM613 655h-156l-86 -428h143q95 0 154.5 94.5t95.5 274.5l50 247q35 181 -8 283t-152 102h-83l-79 -398h156z" />
<glyph unicode="&#x111;" horiz-adv-x="952" d="M1091 1223h-99l-244 -1223h-240l4 88l-3 2q-46 -54 -97.5 -82.5t-107.5 -28.5q-147 0 -212 157t-16 398l4 21q55 278 156.5 412.5t262.5 134.5q53 0 96 -25t76 -73l44 219h-155l35 175h155l32 162h278l-33 -162h99zM352 534q-33 -161 -23.5 -244t77.5 -83q32 0 63 23 t61 68l102 512q-13 32 -35 48t-54 16q-63 0 -110 -84.5t-77 -234.5z" />
<glyph unicode="&#x112;" horiz-adv-x="931" d="M855 639h-431l-83 -412h509l-45 -227h-786l291 1456h784l-45 -228h-508l-72 -362h431zM1011 1617h-600l25 160h600z" />
<glyph unicode="&#x113;" horiz-adv-x="868" d="M387 -20q-176 0 -263 133t-54 338l24 152q37 233 155 366t304 133q172 0 248.5 -126t41.5 -347l-28 -174h-469v-4q-19 -115 5 -180t105 -65q87 0 140 20t107 58l24 -196q-58 -50 -147 -79t-193 -29zM517 874q-53 0 -86 -60.5t-54 -168.5h198l7 40q15 96 1 142.5t-66 46.5 zM865 1297h-600l25 160h600z" />
<glyph unicode="&#x114;" horiz-adv-x="931" d="M855 639h-431l-83 -412h509l-45 -227h-786l291 1456h784l-45 -228h-508l-72 -362h431zM1049 1897q-23 -141 -113 -218.5t-227 -77.5q-132 0 -200.5 81t-46.5 215h193q-10 -63 7.5 -99.5t71.5 -36.5q50 0 80.5 38t40.5 98h194z" />
<glyph unicode="&#x115;" horiz-adv-x="868" d="M387 -20q-176 0 -263 133t-54 338l24 152q37 233 155 366t304 133q172 0 248.5 -126t41.5 -347l-28 -174h-469v-4q-19 -115 5 -180t105 -65q87 0 140 20t107 58l24 -196q-58 -50 -147 -79t-193 -29zM517 874q-53 0 -86 -60.5t-54 -168.5h198l7 40q15 96 1 142.5t-66 46.5 zM902 1576q-23 -141 -113 -218.5t-227 -77.5q-132 0 -200.5 81t-46.5 215h193q-10 -63 7.5 -99.5t71.5 -36.5q50 0 80.5 38t40.5 98h194z" />
<glyph unicode="&#x116;" horiz-adv-x="931" d="M855 639h-431l-83 -412h509l-45 -227h-786l291 1456h784l-45 -228h-508l-72 -362h431zM844 1607h-280l48 241h280z" />
<glyph unicode="&#x117;" horiz-adv-x="868" d="M387 -20q-176 0 -263 133t-54 338l24 152q37 233 155 366t304 133q172 0 248.5 -126t41.5 -347l-28 -174h-469v-4q-19 -115 5 -180t105 -65q87 0 140 20t107 58l24 -196q-58 -50 -147 -79t-193 -29zM517 874q-53 0 -86 -60.5t-54 -168.5h198l7 40q15 96 1 142.5t-66 46.5 zM697 1286h-280l48 241h280z" />
<glyph unicode="&#x118;" horiz-adv-x="931" d="M855 639h-431l-83 -412h509l-45 -227h-60q-68 -43 -98 -82t-38 -95q-6 -32 1 -49t31 -17q16 0 29 6t26 15l4 -152q-28 -19 -62 -31.5t-79 -12.5q-82 0 -129 53.5t-30 151.5q10 64 41 115.5t91 94.5l-1 3h-512l291 1456h784l-45 -228h-508l-72 -362h431z" />
<glyph unicode="&#x119;" horiz-adv-x="868" d="M727 88q-32 -27 -71.5 -47.5t-88.5 -34.5q-59 -39 -86 -76.5t-34 -90.5q-6 -32 1 -49t31 -17q16 0 29 6t26 15l4 -152q-28 -19 -62 -31.5t-79 -12.5q-82 0 -129 53.5t-30 151.5q7 53 30 97t67 84q-152 21 -224 149.5t-41 317.5l24 152q37 233 155 366t304 133 q172 0 248.5 -126t41.5 -347l-28 -174h-469v-4q-19 -115 5 -180t105 -65q87 0 140 20t107 58zM517 874q-53 0 -86 -60.5t-54 -168.5h198l7 40q15 96 1 142.5t-66 46.5z" />
<glyph unicode="&#x11a;" horiz-adv-x="931" d="M855 639h-431l-83 -412h509l-45 -227h-786l291 1456h784l-45 -228h-508l-72 -362h431zM733 1730l116 142h233l-3 -17l-281 -253h-184l-179 255l3 15h232z" />
<glyph unicode="&#x11b;" horiz-adv-x="868" d="M387 -20q-176 0 -263 133t-54 338l24 152q37 233 155 366t304 133q172 0 248.5 -126t41.5 -347l-28 -174h-469v-4q-19 -115 5 -180t105 -65q87 0 140 20t107 58l24 -196q-58 -50 -147 -79t-193 -29zM517 874q-53 0 -86 -60.5t-54 -168.5h198l7 40q15 96 1 142.5t-66 46.5 zM587 1409l116 142h233l-3 -17l-281 -253h-184l-179 255l3 15h232z" />
<glyph unicode="&#x11c;" horiz-adv-x="1057" d="M924 201q-77 -91 -192.5 -156.5t-282.5 -65.5q-203 0 -307 136.5t-53 390.5l89 444q55 274 197.5 400.5t356.5 126.5q210 0 299.5 -119t54.5 -345h-268q23 126 -6 181t-117 55q-83 0 -146.5 -73t-93.5 -224l-89 -446q-34 -168 -2 -234t130 -66q67 0 103.5 23t68.5 68 l53 261h-153l40 200h430zM1082 1634l-5 -22h-198l-84 149l-144 -149h-195l5 25l282 237h150z" />
<glyph unicode="&#x11d;" horiz-adv-x="921" d="M80 555q55 277 157 412t263 135q62 0 109.5 -30.5t79.5 -89.5l34 100h242l-209 -1047q-47 -234 -181.5 -353t-340.5 -119q-61 0 -129.5 22.5t-124.5 60.5l93 219q46 -32 94.5 -48t111.5 -16q72 0 124.5 62.5t74.5 172.5l3 15l-3 2q-39 -37 -82 -55.5t-91 -18.5 q-147 0 -212.5 157t-16.5 398zM353 534q-33 -161 -23.5 -244t77.5 -83q34 0 64 20.5t57 59.5l108 537q-13 26 -35 38t-56 12q-64 0 -111 -84.5t-77 -234.5zM925 1291l-5 -22h-198l-84 149l-144 -149h-195l5 25l282 237h150z" />
<glyph unicode="&#x11e;" horiz-adv-x="1057" d="M924 201q-77 -91 -192.5 -156.5t-282.5 -65.5q-203 0 -307 136.5t-53 390.5l89 444q55 274 197.5 400.5t356.5 126.5q210 0 299.5 -119t54.5 -345h-268q23 126 -6 181t-117 55q-83 0 -146.5 -73t-93.5 -224l-89 -446q-34 -168 -2 -234t130 -66q67 0 103.5 23t68.5 68 l53 261h-153l40 200h430zM1110 1918q-23 -141 -113 -218.5t-227 -77.5q-132 0 -200.5 81t-46.5 215h193q-10 -63 7.5 -99.5t71.5 -36.5q50 0 80.5 38t40.5 98h194z" />
<glyph unicode="&#x11f;" horiz-adv-x="921" d="M80 555q55 277 157 412t263 135q62 0 109.5 -30.5t79.5 -89.5l34 100h242l-209 -1047q-47 -234 -181.5 -353t-340.5 -119q-61 0 -129.5 22.5t-124.5 60.5l93 219q46 -32 94.5 -48t111.5 -16q72 0 124.5 62.5t74.5 172.5l3 15l-3 2q-39 -37 -82 -55.5t-91 -18.5 q-147 0 -212.5 157t-16.5 398zM353 534q-33 -161 -23.5 -244t77.5 -83q34 0 64 20.5t57 59.5l108 537q-13 26 -35 38t-56 12q-64 0 -111 -84.5t-77 -234.5zM953 1575q-23 -141 -113 -218.5t-227 -77.5q-132 0 -200.5 81t-46.5 215h193q-10 -63 7.5 -99.5t71.5 -36.5 q50 0 80.5 38t40.5 98h194z" />
<glyph unicode="&#x120;" horiz-adv-x="1057" d="M924 201q-77 -91 -192.5 -156.5t-282.5 -65.5q-203 0 -307 136.5t-53 390.5l89 444q55 274 197.5 400.5t356.5 126.5q210 0 299.5 -119t54.5 -345h-268q23 126 -6 181t-117 55q-83 0 -146.5 -73t-93.5 -224l-89 -446q-34 -168 -2 -234t130 -66q67 0 103.5 23t68.5 68 l53 261h-153l40 200h430zM905 1628h-280l48 241h280z" />
<glyph unicode="&#x121;" horiz-adv-x="921" d="M80 555q55 277 157 412t263 135q62 0 109.5 -30.5t79.5 -89.5l34 100h242l-209 -1047q-47 -234 -181.5 -353t-340.5 -119q-61 0 -129.5 22.5t-124.5 60.5l93 219q46 -32 94.5 -48t111.5 -16q72 0 124.5 62.5t74.5 172.5l3 15l-3 2q-39 -37 -82 -55.5t-91 -18.5 q-147 0 -212.5 157t-16.5 398zM353 534q-33 -161 -23.5 -244t77.5 -83q34 0 64 20.5t57 59.5l108 537q-13 26 -35 38t-56 12q-64 0 -111 -84.5t-77 -234.5zM748 1285h-280l48 241h280z" />
<glyph unicode="&#x122;" horiz-adv-x="1057" d="M924 201q-77 -91 -192.5 -156.5t-282.5 -65.5q-203 0 -307 136.5t-53 390.5l89 444q55 274 197.5 400.5t356.5 126.5q210 0 299.5 -119t54.5 -345h-268q23 126 -6 181t-117 55q-83 0 -146.5 -73t-93.5 -224l-89 -446q-34 -168 -2 -234t130 -66q67 0 103.5 23t68.5 68 l53 261h-153l40 200h430zM519 -177q-21 -102 -74 -196t-119 -161l-117 75q42 63 69 124t44 143l23 118h194z" />
<glyph unicode="&#x123;" horiz-adv-x="921" d="M80 555q55 277 157 412t263 135q62 0 109.5 -30.5t79.5 -89.5l34 100h242l-209 -1047q-47 -234 -181.5 -353t-340.5 -119q-61 0 -129.5 22.5t-124.5 60.5l93 219q46 -32 94.5 -48t111.5 -16q72 0 124.5 62.5t74.5 172.5l3 15l-3 2q-39 -37 -82 -55.5t-91 -18.5 q-147 0 -212.5 157t-16.5 398zM353 534q-33 -161 -23.5 -244t77.5 -83q34 0 64 20.5t57 59.5l108 537q-13 26 -35 38t-56 12q-64 0 -111 -84.5t-77 -234.5zM527 1438l147 257h149l-78 -265l-34 -170h-220z" />
<glyph unicode="&#x124;" horiz-adv-x="1142" d="M952 0h-276l120 603h-380l-120 -603h-277l291 1456h277l-125 -626h380l125 626h276zM1119 1613l-5 -22h-198l-84 149l-144 -149h-195l5 25l282 237h150z" />
<glyph unicode="&#x125;" d="M468 980l3 -1q48 59 104 91t118 32q124 0 178.5 -114t7.5 -354l-127 -634h-277l127 636q29 146 14 192t-74 46q-30 0 -56 -14.5t-51 -42.5l-163 -817h-276l312 1560h276zM992 1673l-5 -22h-198l-84 149l-144 -149h-195l5 25l282 237h150z" />
<glyph unicode="&#x126;" horiz-adv-x="1149" d="M1198 1196h88l-33 -167h-89l-205 -1029h-276l120 603h-380l-120 -603h-277l205 1029h-83l33 167h84l52 260h277l-52 -260h380l52 260h276zM469 830h380l39 199h-380z" />
<glyph unicode="&#x127;" horiz-adv-x="952" d="M697 1220h-151l-48 -240l3 -1q48 59 104 91t118 32q124 0 178.5 -114t7.5 -354l-127 -634h-277l127 636q29 146 14 192t-74 46q-30 0 -56 -14.5t-51 -42.5l-163 -817h-276l244 1220h-104l35 175h104l33 165h276l-33 -165h151z" />
<glyph unicode="&#x128;" horiz-adv-x="508" d="M307 0h-277l291 1456h277zM832 1854q-17 -101 -72.5 -164.5t-131.5 -63.5q-50 0 -114 44t-104 44q-23 0 -44.5 -32.5t-28.5 -79.5l-137 43q15 98 71.5 163.5t131.5 65.5q38 0 108 -44t110 -44q24 0 46.5 32.5t30.5 80.5z" />
<glyph unicode="&#x129;" horiz-adv-x="497" d="M300 0h-278l216 1082h278zM759 1511q-17 -101 -72.5 -164.5t-131.5 -63.5q-50 0 -114 44t-104 44q-23 0 -44.5 -32.5t-28.5 -79.5l-137 43q15 98 71.5 163.5t131.5 65.5q38 0 108 -44t110 -44q24 0 46.5 32.5t30.5 80.5z" />
<glyph unicode="&#x12a;" horiz-adv-x="508" d="M307 0h-277l291 1456h277zM793 1617h-600l25 160h600z" />
<glyph unicode="&#x12b;" horiz-adv-x="497" d="M300 0h-278l216 1082h278zM720 1275h-600l25 160h600z" />
<glyph unicode="&#x12c;" horiz-adv-x="508" d="M307 0h-277l291 1456h277zM831 1897q-23 -141 -113 -218.5t-227 -77.5q-132 0 -200.5 81t-46.5 215h193q-10 -63 7.5 -99.5t71.5 -36.5q50 0 80.5 38t40.5 98h194z" />
<glyph unicode="&#x12d;" horiz-adv-x="497" d="M300 0h-278l216 1082h278zM758 1554q-23 -141 -113 -218.5t-227 -77.5q-132 0 -200.5 81t-46.5 215h193q-10 -63 7.5 -99.5t71.5 -36.5q50 0 80.5 38t40.5 98h194z" />
<glyph unicode="&#x12e;" horiz-adv-x="508" d="M307 0h-277l291 1456h277zM257 9q-68 -43 -98 -82t-38 -95q-6 -32 1 -49t31 -17q16 0 29 6t26 15l4 -152q-28 -19 -62 -31.5t-79 -12.5q-82 0 -128.5 53.5t-30.5 151.5q14 85 66.5 149.5t163.5 119.5z" />
<glyph unicode="&#x12f;" horiz-adv-x="477" d="M291 0h-276l216 1082h276zM560 1343h-276l43 217h276zM235 0q-68 -43 -98 -82t-38 -95q-6 -32 1 -49t31 -17q16 0 29 6t26 15l4 -152q-28 -19 -62 -31.5t-79 -12.5q-82 0 -128.5 53.5t-30.5 151.5q14 85 66.5 149.5t163.5 119.5z" />
<glyph unicode="&#x130;" horiz-adv-x="508" d="M307 0h-277l291 1456h277zM625 1607h-280l48 241h280z" />
<glyph unicode="&#x131;" horiz-adv-x="497" d="M300 0h-278l216 1082h278z" />
<glyph unicode="&#x132;" horiz-adv-x="1448" d="M307 0h-277l291 1456h277zM1276 1456h276l-202 -1012q-47 -233 -177 -349t-306 -116q-174 0 -262 112.5t-43 335.5h277q-26 -129 -7.5 -175t80.5 -46q54 0 96 60t66 178z" />
<glyph unicode="&#x133;" horiz-adv-x="944" d="M291 0h-276l216 1082h276zM560 1343h-276l43 217h276zM990 1082l-223 -1115q-42 -210 -141 -307t-253 -97q-31 0 -58 4.5t-58 13.5l56 223q19 -6 34 -9t36 -3q34 0 63 44t45 131l223 1115h276zM1039 1345h-277l43 215h277z" />
<glyph unicode="&#x134;" horiz-adv-x="940" d="M768 1456h276l-202 -1012q-47 -233 -177 -349t-306 -116q-174 0 -262 112.5t-43 335.5h277q-26 -129 -7.5 -175t80.5 -46q54 0 96 60t66 178zM1231 1608l-5 -22h-198l-84 149l-144 -149h-195l5 25l282 237h150z" />
<glyph unicode="&#x135;" horiz-adv-x="509" d="M529 1082l-223 -1115q-42 -210 -141 -307t-254 -97q-30 0 -57.5 4.5t-57.5 13.5l57 222q18 -6 33.5 -9t36.5 -3q34 0 62 45.5t46 130.5l223 1115h275zM720 1266l-5 -22h-198l-84 149l-144 -149h-195l5 25l282 237h150z" />
<glyph unicode="&#x136;" horiz-adv-x="1050" d="M490 602h-74l-120 -602h-278l291 1456h278l-119 -594h78l305 594h361l-475 -721l195 -735h-317zM497 -167q-21 -102 -74 -196t-119 -161l-117 75q42 63 69 124t44 143l23 118h194z" />
<glyph unicode="&#x137;" horiz-adv-x="900" d="M415 450h-45l-90 -450h-277l312 1560h277l-177 -886h46l217 408h318l-336 -482l148 -600h-316zM439 -166q-21 -102 -74 -196t-119 -161l-117 75q42 63 69 124t44 143l23 118h194z" />
<glyph unicode="&#x138;" horiz-adv-x="990" d="M446 402h-69l-80 -402h-276l216 1082h276l-82 -409h52l243 409h352l-382 -497l2 -2l14 7l151 -590h-354z" />
<glyph unicode="&#x139;" horiz-adv-x="902" d="M341 227h472l-45 -227h-749l291 1456h277zM533 1810h296l-276 -266h-220z" />
<glyph unicode="&#x13a;" horiz-adv-x="477" d="M291 0h-276l312 1560h276zM541 1890h296l-276 -266h-220z" />
<glyph unicode="&#x13b;" horiz-adv-x="902" d="M341 227h472l-45 -227h-749l291 1456h277zM457 -166q-21 -102 -74 -196t-119 -161l-117 75q42 63 69 124t44 143l23 118h194z" />
<glyph unicode="&#x13c;" horiz-adv-x="477" d="M291 0h-276l312 1560h276zM219 -166q-21 -102 -74 -196t-119 -161l-117 75q42 63 69 124t44 143l23 118h194z" />
<glyph unicode="&#x13d;" horiz-adv-x="902" d="M341 227h472l-45 -227h-749l291 1456h277zM936 1356q-21 -102 -74 -196t-119 -161l-117 75q42 63 69 124t44 143l23 118h194z" />
<glyph unicode="&#x13e;" horiz-adv-x="627" d="M291 0h-276l312 1560h276zM885 1456q-21 -102 -74 -196t-119 -161l-117 75q42 63 69 124t44 143l23 118h194z" />
<glyph unicode="&#x13f;" horiz-adv-x="902" d="M341 227h472l-45 -227h-749l291 1456h277zM780 679h-280l48 241h280z" />
<glyph unicode="&#x140;" horiz-adv-x="697" d="M291 0h-276l312 1560h276zM756 627h-280l48 241h280z" />
<glyph unicode="&#x141;" horiz-adv-x="821" d="M466 895l179 61l-38 -191l-179 -61l-96 -477h472l-45 -227h-749l120 603l-75 -25l38 191l75 25l133 662h277z" />
<glyph unicode="&#x142;" horiz-adv-x="508" d="M485 918l107 40l-39 -191l-106 -40l-145 -727h-276l123 614l-92 -34l38 191l92 34l151 755h276z" />
<glyph unicode="&#x143;" horiz-adv-x="1141" d="M950 0h-276l-196 893h-3l-179 -893h-277l291 1456h277l196 -891h3l179 891h276zM859 1826h296l-276 -266h-220z" />
<glyph unicode="&#x144;" d="M458 958l2 -2q54 70 117 108t134 38q117 0 169.5 -103.5t7.5 -326.5l-134 -672h-277l134 672q24 121 7.5 161.5t-74.5 40.5q-28 0 -55 -16.5t-52 -47.5l-162 -810h-277l216 1082h258zM685 1504h296l-276 -266h-220z" />
<glyph unicode="&#x145;" horiz-adv-x="1141" d="M950 0h-276l-196 893h-3l-179 -893h-277l291 1456h277l196 -891h3l179 891h276zM549 -166q-21 -102 -74 -196t-119 -161l-117 75q42 63 69 124t44 143l23 118h194z" />
<glyph unicode="&#x146;" d="M458 958l2 -2q54 70 117 108t134 38q117 0 169.5 -103.5t7.5 -326.5l-134 -672h-277l134 672q24 121 7.5 161.5t-74.5 40.5q-28 0 -55 -16.5t-52 -47.5l-162 -810h-277l216 1082h258zM439 -166q-21 -102 -74 -196t-119 -161l-117 75q42 63 69 124t44 143l23 118h194z" />
<glyph unicode="&#x147;" horiz-adv-x="1141" d="M950 0h-276l-196 893h-3l-179 -893h-277l291 1456h277l196 -891h3l179 891h276zM830 1730l116 142h233l-3 -17l-281 -253h-184l-179 255l3 15h232z" />
<glyph unicode="&#x148;" d="M458 958l2 -2q54 70 117 108t134 38q117 0 169.5 -103.5t7.5 -326.5l-134 -672h-277l134 672q24 121 7.5 161.5t-74.5 40.5q-28 0 -55 -16.5t-52 -47.5l-162 -810h-277l216 1082h258zM656 1408l116 142h233l-3 -17l-281 -253h-184l-179 255l3 15h232z" />
<glyph unicode="&#x149;" d="M458 958l2 -2q54 70 117 108t134 38q117 0 169.5 -103.5t7.5 -326.5l-134 -672h-277l134 672q24 121 7.5 161.5t-74.5 40.5q-28 0 -55 -16.5t-52 -47.5l-162 -810h-277l216 1082h258zM448 1455q-21 -102 -74 -196t-119 -161l-117 75q42 63 69 124t44 143l23 118h194z" />
<glyph unicode="&#x14a;" horiz-adv-x="1135" d="M1239 1456l-298 -1489q-42 -210 -142 -307t-254 -97q-31 0 -59.5 4.5t-57.5 13.5l56 222q20 -6 35.5 -9t37.5 -3q33 0 61.5 45.5t46.5 130.5l7 34l-200 879h-3l-176 -880h-276l291 1456h276l200 -879h3l176 879h276z" />
<glyph unicode="&#x14b;" d="M456 953l3 -1q53 73 117.5 111.5t135.5 38.5q116 0 167 -107.5t5 -338.5l-138 -689q-42 -210 -141.5 -307t-254.5 -97q-30 0 -57 4.5t-56 13.5l55 224q20 -6 35 -9.5t35 -3.5q33 0 61 44.5t46 130.5l138 689q26 131 14.5 174.5t-61.5 43.5q-33 0 -65 -20t-62 -56 l-159 -798h-276l216 1082h258z" />
<glyph unicode="&#x14c;" horiz-adv-x="1119" d="M1066 596q-59 -295 -211 -456t-369 -161q-203 0 -315.5 177t-58.5 444l52 259q59 295 206 456.5t363 161.5q205 0 321.5 -178.5t63.5 -443.5zM841 857q36 180 -7.5 285.5t-145.5 105.5q-88 0 -150.5 -104t-98.5 -283l-52 -261q-37 -184 2.5 -288.5t141.5 -104.5 q88 0 155 106t103 283zM1106 1638h-600l25 160h600z" />
<glyph unicode="&#x14d;" d="M88 607q36 231 159 363t319 132q186 0 271 -137.5t50 -357.5l-21 -134q-38 -233 -160 -363t-317 -130q-188 0 -273 136t-49 357zM343 473q-22 -134 -7 -200.5t89 -66.5q66 0 105 70.5t60 196.5l21 134q21 130 5.5 198.5t-86.5 68.5q-68 0 -107.5 -72t-58.5 -195z M896 1296h-600l25 160h600z" />
<glyph unicode="&#x14e;" horiz-adv-x="1119" d="M1066 596q-59 -295 -211 -456t-369 -161q-203 0 -315.5 177t-58.5 444l52 259q59 295 206 456.5t363 161.5q205 0 321.5 -178.5t63.5 -443.5zM841 857q36 180 -7.5 285.5t-145.5 105.5q-88 0 -150.5 -104t-98.5 -283l-52 -261q-37 -184 2.5 -288.5t141.5 -104.5 q88 0 155 106t103 283zM1144 1918q-23 -141 -113 -218.5t-227 -77.5q-132 0 -200.5 81t-46.5 215h193q-10 -63 7.5 -99.5t71.5 -36.5q50 0 80.5 38t40.5 98h194z" />
<glyph unicode="&#x14f;" d="M88 607q36 231 159 363t319 132q186 0 271 -137.5t50 -357.5l-21 -134q-38 -233 -160 -363t-317 -130q-188 0 -273 136t-49 357zM343 473q-22 -134 -7 -200.5t89 -66.5q66 0 105 70.5t60 196.5l21 134q21 130 5.5 198.5t-86.5 68.5q-68 0 -107.5 -72t-58.5 -195z M934 1575q-23 -141 -113 -218.5t-227 -77.5q-132 0 -200.5 81t-46.5 215h193q-10 -63 7.5 -99.5t71.5 -36.5q50 0 80.5 38t40.5 98h194z" />
<glyph unicode="&#x150;" horiz-adv-x="1119" d="M1066 596q-59 -295 -211 -456t-369 -161q-203 0 -315.5 177t-58.5 444l52 259q59 295 206 456.5t363 161.5q205 0 321.5 -178.5t63.5 -443.5zM841 857q36 180 -7.5 285.5t-145.5 105.5q-88 0 -150.5 -104t-98.5 -283l-52 -261q-37 -184 2.5 -288.5t141.5 -104.5 q88 0 155 106t103 283zM1064 1888h244l-273 -266h-205zM738 1888h244l-240 -266h-203z" />
<glyph unicode="&#x151;" d="M88 607q36 231 159 363t319 132q186 0 271 -137.5t50 -357.5l-21 -134q-38 -233 -160 -363t-317 -130q-188 0 -273 136t-49 357zM343 473q-22 -134 -7 -200.5t89 -66.5q66 0 105 70.5t60 196.5l21 134q21 130 5.5 198.5t-86.5 68.5q-68 0 -107.5 -72t-58.5 -195z M854 1545h244l-273 -266h-205zM528 1545h244l-240 -266h-203z" />
<glyph unicode="&#x152;" horiz-adv-x="1573" d="M1413 0h-712q-74 -10 -121 -15.5t-97 -5.5q-206 0 -312 165.5t-53 431.5l61 304q57 288 217 442.5t385 154.5q48 0 101 -6t110 -15h710l-45 -228h-508l-72 -362h431l-45 -227h-431l-83 -412h509zM528 206q32 0 67 3t75 9l204 1020q-36 5 -70 8.5t-68 3.5 q-94 0 -169.5 -94.5t-111.5 -273.5l-61 -306q-39 -195 -3.5 -282.5t137.5 -87.5z" />
<glyph unicode="&#x153;" horiz-adv-x="1431" d="M101 551q53 265 182.5 408t327.5 143q76 0 134 -29.5t99 -85.5q60 57 129.5 86t152.5 29q166 0 238 -130.5t28 -355.5l-32 -161h-468q-18 -120 7 -184.5t104 -64.5q67 0 117 18.5t121 59.5l34 -181q-61 -54 -153 -89t-197 -35q-78 0 -137.5 30t-101.5 88 q-63 -60 -136.5 -89t-161.5 -29q-182 0 -261 152.5t-30 397.5zM373 529q-33 -164 -23.5 -243.5t83.5 -79.5q66 0 111.5 86.5t76.5 236.5l4 22q32 161 22.5 242t-81.5 81q-66 0 -113 -89t-76 -234zM1081 874q-48 0 -84.5 -60.5t-64.5 -168.5h195l5 27q21 105 11 153.5 t-62 48.5z" />
<glyph unicode="&#x154;" horiz-adv-x="1054" d="M413 579l-116 -579h-277l291 1455h462q183 0 267.5 -110t43.5 -313q-27 -132 -93 -208t-177 -124q97 -39 122 -125.5t-2 -222.5l-20 -103q-13 -65 -13.5 -127t25.5 -94l-6 -28h-284q-26 32 -20 99.5t22 151.5l20 99q24 120 3 174.5t-92 54.5h-156zM458 806h159 q66 0 116 53.5t70 150.5q21 110 0 164t-92 54h-168zM795 1826h296l-276 -266h-220z" />
<glyph unicode="&#x155;" horiz-adv-x="617" d="M638 823l-100 3q-34 0 -61 -20t-49 -58l-149 -748h-276l216 1082h259l-17 -128l3 -1q39 73 85.5 111t100.5 38q16 0 35.5 -3.5t34.5 -8.5zM558 1504h296l-276 -266h-220z" />
<glyph unicode="&#x156;" horiz-adv-x="1054" d="M413 579l-116 -579h-277l291 1455h462q183 0 267.5 -110t43.5 -313q-27 -132 -93 -208t-177 -124q97 -39 122 -125.5t-2 -222.5l-20 -103q-13 -65 -13.5 -127t25.5 -94l-6 -28h-284q-26 32 -20 99.5t22 151.5l20 99q24 120 3 174.5t-92 54.5h-156zM458 806h159 q66 0 116 53.5t70 150.5q21 110 0 164t-92 54h-168zM485 -166q-21 -102 -74 -196t-119 -161l-117 75q42 63 69 124t44 143l23 118h194z" />
<glyph unicode="&#x157;" horiz-adv-x="617" d="M638 823l-100 3q-34 0 -61 -20t-49 -58l-149 -748h-276l216 1082h259l-17 -128l3 -1q39 73 85.5 111t100.5 38q16 0 35.5 -3.5t34.5 -8.5zM220 -166q-21 -102 -74 -196t-119 -161l-117 75q42 63 69 124t44 143l23 118h194z" />
<glyph unicode="&#x158;" horiz-adv-x="1054" d="M413 579l-116 -579h-277l291 1455h462q183 0 267.5 -110t43.5 -313q-27 -132 -93 -208t-177 -124q97 -39 122 -125.5t-2 -222.5l-20 -103q-13 -65 -13.5 -127t25.5 -94l-6 -28h-284q-26 32 -20 99.5t22 151.5l20 99q24 120 3 174.5t-92 54.5h-156zM458 806h159 q66 0 116 53.5t70 150.5q21 110 0 164t-92 54h-168zM766 1730l116 142h233l-3 -17l-281 -253h-184l-179 255l3 15h232z" />
<glyph unicode="&#x159;" horiz-adv-x="617" d="M638 823l-100 3q-34 0 -61 -20t-49 -58l-149 -748h-276l216 1082h259l-17 -128l3 -1q39 73 85.5 111t100.5 38q16 0 35.5 -3.5t34.5 -8.5zM530 1408l116 142h233l-3 -17l-281 -253h-184l-179 255l3 15h232z" />
<glyph unicode="&#x15a;" horiz-adv-x="1028" d="M669 353q20 101 -11.5 148.5t-132.5 108.5q-195 83 -279.5 194t-47.5 296q37 184 164.5 280.5t308.5 96.5q192 0 293.5 -118.5t59.5 -332.5h-276q21 104 -13 163.5t-109 59.5q-49 0 -94 -42.5t-57 -104.5q-19 -96 16.5 -140t163.5 -113q179 -79 253.5 -190t36.5 -304 q-39 -191 -163.5 -283.5t-309.5 -92.5q-189 0 -312 107t-75 343h277q-26 -130 23 -176.5t132 -46.5q47 0 93 42t59 105zM808 1847h296l-276 -266h-220z" />
<glyph unicode="&#x15b;" horiz-adv-x="825" d="M482 283q8 49 -16 80t-106 82q-141 62 -202 137.5t-41 200.5q22 140 130.5 229.5t271.5 89.5q161 0 246 -96.5t61 -250.5h-274q11 72 -4 110t-62 38q-34 0 -65 -31t-37 -75q-9 -50 12.5 -77t105.5 -81q149 -59 209 -136.5t39 -209.5q-24 -146 -134.5 -229.5t-280.5 -83.5 q-168 0 -252 108.5t-62 251.5h260q-13 -88 11 -124.5t82 -36.5q44 0 72 27.5t36 76.5zM604 1504h296l-276 -266h-220z" />
<glyph unicode="&#x15c;" horiz-adv-x="1028" d="M669 353q20 101 -11.5 148.5t-132.5 108.5q-195 83 -279.5 194t-47.5 296q37 184 164.5 280.5t308.5 96.5q192 0 293.5 -118.5t59.5 -332.5h-276q21 104 -13 163.5t-109 59.5q-49 0 -94 -42.5t-57 -104.5q-19 -96 16.5 -140t163.5 -113q179 -79 253.5 -190t36.5 -304 q-39 -191 -163.5 -283.5t-309.5 -92.5q-189 0 -312 107t-75 343h277q-26 -130 23 -176.5t132 -46.5q47 0 93 42t59 105zM1067 1634l-5 -22h-198l-84 149l-144 -149h-195l5 25l282 237h150z" />
<glyph unicode="&#x15d;" horiz-adv-x="825" d="M482 283q8 49 -16 80t-106 82q-141 62 -202 137.5t-41 200.5q22 140 130.5 229.5t271.5 89.5q161 0 246 -96.5t61 -250.5h-274q11 72 -4 110t-62 38q-34 0 -65 -31t-37 -75q-9 -50 12.5 -77t105.5 -81q149 -59 209 -136.5t39 -209.5q-24 -146 -134.5 -229.5t-280.5 -83.5 q-168 0 -252 108.5t-62 251.5h260q-13 -88 11 -124.5t82 -36.5q44 0 72 27.5t36 76.5zM864 1291l-5 -22h-198l-84 149l-144 -149h-195l5 25l282 237h150z" />
<glyph unicode="&#x15e;" horiz-adv-x="1028" d="M669 353q20 101 -11.5 148.5t-132.5 108.5q-195 83 -279.5 194t-47.5 296q37 184 164.5 280.5t308.5 96.5q192 0 293.5 -118.5t59.5 -332.5h-276q21 104 -13 163.5t-109 59.5q-49 0 -94 -42.5t-57 -104.5q-19 -96 16.5 -140t163.5 -113q179 -79 253.5 -190t36.5 -304 q-39 -191 -163.5 -283.5t-309.5 -92.5q-189 0 -312 107t-75 343h277q-26 -130 23 -176.5t132 -46.5q47 0 93 42t59 105zM552 -2l-20 -59q45 -11 68 -51.5t7 -121.5q-24 -118 -107 -177.5t-226 -59.5l27 163q27 0 46 20t28 64q8 46 -9 61t-73 20l53 141h206z" />
<glyph unicode="&#x15f;" horiz-adv-x="825" d="M482 283q8 49 -16 80t-106 82q-141 62 -202 137.5t-41 200.5q22 140 130.5 229.5t271.5 89.5q161 0 246 -96.5t61 -250.5h-274q11 72 -4 110t-62 38q-34 0 -65 -31t-37 -75q-9 -50 12.5 -77t105.5 -81q149 -59 209 -136.5t39 -209.5q-24 -146 -134.5 -229.5t-280.5 -83.5 q-168 0 -252 108.5t-62 251.5h260q-13 -88 11 -124.5t82 -36.5q44 0 72 27.5t36 76.5zM451 -1l-20 -59q45 -11 68 -51.5t7 -121.5q-24 -118 -107 -177.5t-226 -59.5l27 163q27 0 46 20t28 64q8 46 -9 61t-73 20l53 141h206z" />
<glyph unicode="&#x160;" horiz-adv-x="1028" d="M669 353q20 101 -11.5 148.5t-132.5 108.5q-195 83 -279.5 194t-47.5 296q37 184 164.5 280.5t308.5 96.5q192 0 293.5 -118.5t59.5 -332.5h-276q21 104 -13 163.5t-109 59.5q-49 0 -94 -42.5t-57 -104.5q-19 -96 16.5 -140t163.5 -113q179 -79 253.5 -190t36.5 -304 q-39 -191 -163.5 -283.5t-309.5 -92.5q-189 0 -312 107t-75 343h277q-26 -130 23 -176.5t132 -46.5q47 0 93 42t59 105zM779 1751l116 142h233l-3 -17l-281 -253h-184l-179 255l3 15h232z" />
<glyph unicode="&#x161;" horiz-adv-x="825" d="M482 283q8 49 -16 80t-106 82q-141 62 -202 137.5t-41 200.5q22 140 130.5 229.5t271.5 89.5q161 0 246 -96.5t61 -250.5h-274q11 72 -4 110t-62 38q-34 0 -65 -31t-37 -75q-9 -50 12.5 -77t105.5 -81q149 -59 209 -136.5t39 -209.5q-24 -146 -134.5 -229.5t-280.5 -83.5 q-168 0 -252 108.5t-62 251.5h260q-13 -88 11 -124.5t82 -36.5q44 0 72 27.5t36 76.5zM576 1408l116 142h233l-3 -17l-281 -253h-184l-179 255l3 15h232z" />
<glyph unicode="&#x162;" horiz-adv-x="1021" d="M1135 1228h-328l-245 -1228h-275l245 1228h-325l45 228h928zM536 16l-20 -59q45 -11 68 -51.5t7 -121.5q-24 -118 -107 -177.5t-226 -59.5l27 163q27 0 46 20t28 64q8 46 -9 61t-73 20l53 141h206z" />
<glyph unicode="&#x163;" horiz-adv-x="571" d="M594 1351l-54 -269h128l-41 -206h-128l-108 -542q-15 -72 -6 -97.5t37 -25.5q18 0 31.5 2t28.5 8l-20 -212q-37 -14 -76 -21.5t-82 -7.5q-121 0 -174.5 84.5t-15.5 268.5l108 543h-102l41 206h102l54 269h277zM375 7l-20 -59q45 -11 68 -51.5t7 -121.5 q-24 -118 -107 -177.5t-226 -59.5l27 163q27 0 46 20t28 64q8 46 -9 61t-73 20l53 141h206z" />
<glyph unicode="&#x164;" horiz-adv-x="1021" d="M1135 1228h-328l-245 -1228h-275l245 1228h-325l45 228h928zM774 1729l116 142h233l-3 -17l-281 -253h-184l-179 255l3 15h232z" />
<glyph unicode="&#x165;" horiz-adv-x="611" d="M594 1351l-54 -269h128l-41 -206h-128l-108 -542q-15 -72 -6 -97.5t37 -25.5q18 0 31.5 2t28.5 8l-20 -212q-37 -14 -76 -21.5t-82 -7.5q-121 0 -174.5 84.5t-15.5 268.5l108 543h-102l41 206h102l54 269h277zM959 1482q-21 -102 -74 -196t-119 -161l-117 75 q42 63 69 124t44 143l23 118h194z" />
<glyph unicode="&#x166;" horiz-adv-x="1021" d="M850 749h-139l-149 -749h-275l149 749h-117l35 175h117l61 304h-325l45 228h928l-45 -228h-328l-61 -304h139z" />
<glyph unicode="&#x167;" horiz-adv-x="571" d="M594 1351l-54 -269h128l-41 -206h-128l-34 -168h123l-35 -175h-123l-39 -199q-15 -72 -6 -97.5t37 -25.5q18 0 31.5 2t28.5 8l-20 -212q-37 -14 -76 -21.5t-82 -7.5q-121 0 -174.5 84.5t-15.5 268.5l40 200h-132l35 175h132l33 168h-102l41 206h102l54 269h277z" />
<glyph unicode="&#x168;" horiz-adv-x="1084" d="M1201 1456l-198 -991q-51 -253 -194.5 -369.5t-355.5 -116.5q-195 0 -298 126.5t-56 359.5l198 991h273l-198 -991q-29 -144 4 -201.5t122 -57.5q84 0 143 59.5t87 199.5l198 991h275zM1118 1854q-17 -101 -72.5 -164.5t-131.5 -63.5q-50 0 -114 44t-104 44 q-23 0 -44.5 -32.5t-28.5 -79.5l-137 43q15 98 71.5 163.5t131.5 65.5q38 0 108 -44t110 -44q24 0 46.5 32.5t30.5 80.5z" />
<glyph unicode="&#x169;" d="M510 0l8 108l-3 1q-51 -64 -111.5 -96.5t-132.5 -32.5q-125 0 -180.5 109t-8.5 339l130 654h277l-131 -656q-25 -124 -13 -171t59 -47q35 0 66.5 16t60.5 49l161 809h276l-216 -1082h-242zM966 1511q-17 -101 -72.5 -164.5t-131.5 -63.5q-50 0 -114 44t-104 44 q-23 0 -44.5 -32.5t-28.5 -79.5l-137 43q15 98 71.5 163.5t131.5 65.5q38 0 108 -44t110 -44q24 0 46.5 32.5t30.5 80.5z" />
<glyph unicode="&#x16a;" horiz-adv-x="1084" d="M1201 1456l-198 -991q-51 -253 -194.5 -369.5t-355.5 -116.5q-195 0 -298 126.5t-56 359.5l198 991h273l-198 -991q-29 -144 4 -201.5t122 -57.5q84 0 143 59.5t87 199.5l198 991h275zM1079 1617h-600l25 160h600z" />
<glyph unicode="&#x16b;" d="M510 0l8 108l-3 1q-51 -64 -111.5 -96.5t-132.5 -32.5q-125 0 -180.5 109t-8.5 339l130 654h277l-131 -656q-25 -124 -13 -171t59 -47q35 0 66.5 16t60.5 49l161 809h276l-216 -1082h-242zM927 1275h-600l25 160h600z" />
<glyph unicode="&#x16c;" horiz-adv-x="1084" d="M1201 1456l-198 -991q-51 -253 -194.5 -369.5t-355.5 -116.5q-195 0 -298 126.5t-56 359.5l198 991h273l-198 -991q-29 -144 4 -201.5t122 -57.5q84 0 143 59.5t87 199.5l198 991h275zM1117 1897q-23 -141 -113 -218.5t-227 -77.5q-132 0 -200.5 81t-46.5 215h193 q-10 -63 7.5 -99.5t71.5 -36.5q50 0 80.5 38t40.5 98h194z" />
<glyph unicode="&#x16d;" d="M510 0l8 108l-3 1q-51 -64 -111.5 -96.5t-132.5 -32.5q-125 0 -180.5 109t-8.5 339l130 654h277l-131 -656q-25 -124 -13 -171t59 -47q35 0 66.5 16t60.5 49l161 809h276l-216 -1082h-242zM965 1554q-23 -141 -113 -218.5t-227 -77.5q-132 0 -200.5 81t-46.5 215h193 q-10 -63 7.5 -99.5t71.5 -36.5q50 0 80.5 38t40.5 98h194z" />
<glyph unicode="&#x16e;" horiz-adv-x="1084" d="M1201 1456l-198 -991q-51 -253 -194.5 -369.5t-355.5 -116.5q-195 0 -298 126.5t-56 359.5l198 991h273l-198 -991q-29 -144 4 -201.5t122 -57.5q84 0 143 59.5t87 199.5l198 991h275zM622 1739q17 87 78.5 138.5t141.5 51.5q72 0 114 -55t27 -135q-18 -89 -77.5 -137.5 t-138.5 -48.5q-74 0 -118 52.5t-27 133.5zM725 1739q-9 -46 7.5 -70.5t52.5 -24.5q33 0 59.5 26t35.5 69q9 47 -6 72t-51 25q-33 0 -61.5 -27.5t-36.5 -69.5z" />
<glyph unicode="&#x16f;" d="M510 0l8 108l-3 1q-51 -64 -111.5 -96.5t-132.5 -32.5q-125 0 -180.5 109t-8.5 339l130 654h277l-131 -656q-25 -124 -13 -171t59 -47q35 0 66.5 16t60.5 49l161 809h276l-216 -1082h-242zM470 1396q17 87 78.5 138.5t141.5 51.5q72 0 114 -55t27 -135 q-18 -89 -77.5 -137.5t-138.5 -48.5q-74 0 -118 52.5t-27 133.5zM573 1396q-9 -46 7.5 -70.5t52.5 -24.5q33 0 59.5 26t35.5 69q9 47 -6 72t-51 25q-33 0 -61.5 -27.5t-36.5 -69.5z" />
<glyph unicode="&#x170;" horiz-adv-x="1084" d="M1201 1456l-198 -991q-51 -253 -194.5 -369.5t-355.5 -116.5q-195 0 -298 126.5t-56 359.5l198 991h273l-198 -991q-29 -144 4 -201.5t122 -57.5q84 0 143 59.5t87 199.5l198 991h275zM1037 1867h244l-273 -266h-205zM711 1867h244l-240 -266h-203z" />
<glyph unicode="&#x171;" d="M510 0l8 108l-3 1q-51 -64 -111.5 -96.5t-132.5 -32.5q-125 0 -180.5 109t-8.5 339l130 654h277l-131 -656q-25 -124 -13 -171t59 -47q35 0 66.5 16t60.5 49l161 809h276l-216 -1082h-242zM885 1524h244l-273 -266h-205zM559 1524h244l-240 -266h-203z" />
<glyph unicode="&#x172;" horiz-adv-x="1084" d="M1201 1456l-198 -991q-34 -167 -108.5 -272.5t-186.5 -159.5q-55 -38 -80.5 -74t-32.5 -87q-6 -32 1 -49t31 -17q16 0 29 6t26 15l4 -152q-28 -19 -62 -31.5t-79 -12.5q-82 0 -129 53.5t-30 151.5q6 41 20.5 76t41.5 67q-193 3 -294.5 128.5t-54.5 357.5l198 991h273 l-198 -991q-29 -144 4 -201.5t122 -57.5q84 0 143 59.5t87 199.5l198 991h275z" />
<glyph unicode="&#x173;" d="M721 0q-68 -43 -98 -82t-38 -95q-6 -32 1 -49t31 -17q16 0 29 6t26 15l4 -152q-28 -19 -62 -31.5t-79 -12.5q-82 0 -129 53.5t-30 151.5q10 64 41.5 116t94.5 97h-2l8 108l-3 1q-51 -64 -111.5 -96.5t-132.5 -32.5q-125 0 -180.5 109t-8.5 339l130 654h277l-131 -656 q-25 -124 -13 -171t59 -47q35 0 66.5 16t60.5 49l161 809h276l-216 -1082h-31z" />
<glyph unicode="&#x174;" horiz-adv-x="1339" d="M942 629h3l232 827h262l-444 -1456h-252l-16 796l-3 1l-269 -797h-251l21 1456h264l-34 -826l3 -1l278 827h192zM1170 1613l-5 -22h-198l-84 149l-144 -149h-195l5 25l282 237h150z" />
<glyph unicode="&#x175;" horiz-adv-x="1173" d="M810 458h3l204 624h257l-414 -1082h-230l-6 608l-3 1l-250 -609h-231l19 1082h255l-43 -622h3l253 622h178zM1066 1271l-5 -22h-198l-84 149l-144 -149h-195l5 25l282 237h150z" />
<glyph unicode="&#x176;" horiz-adv-x="1011" d="M593 873l3 -1l306 584h301l-546 -936l-104 -520h-274l109 544l-168 912h300zM1062 1612l-5 -22h-198l-84 149l-144 -149h-195l5 25l282 237h150z" />
<glyph unicode="&#x177;" horiz-adv-x="848" d="M417 478h3l249 604h297l-576 -1245q-53 -113 -134 -193.5t-213 -80.5q-32 0 -56 5.5t-68 18.5l76 212l19.5 -4.5t14.5 -1.5q52 0 84 28.5t60 89.5l36 76l-67 1095h297zM901 1271l-5 -22h-198l-84 149l-144 -149h-195l5 25l282 237h150z" />
<glyph unicode="&#x178;" horiz-adv-x="1011" d="M593 873l3 -1l306 584h301l-546 -936l-104 -520h-274l109 544l-168 912h300zM1070 1605h-238l32 198h238zM661 1605h-237l32 198h237z" />
<glyph unicode="&#x179;" horiz-adv-x="919" d="M348 227h483l-45 -227h-774l-6 143l642 1086h-411l45 227h739l-27 -138zM750 1828h296l-276 -266h-220z" />
<glyph unicode="&#x17a;" horiz-adv-x="823" d="M336 227h372l-45 -227h-680l34 169l504 685h-358l45 228h669l-33 -165zM627 1483h296l-276 -266h-220z" />
<glyph unicode="&#x17b;" horiz-adv-x="919" d="M348 227h483l-45 -227h-774l-6 143l642 1086h-411l45 227h739l-27 -138zM832 1609h-280l48 241h280z" />
<glyph unicode="&#x17c;" horiz-adv-x="823" d="M336 227h372l-45 -227h-680l34 169l504 685h-358l45 228h669l-33 -165zM709 1264h-280l48 241h280z" />
<glyph unicode="&#x17d;" horiz-adv-x="919" d="M348 227h483l-45 -227h-774l-6 143l642 1086h-411l45 227h739l-27 -138zM721 1732l116 142h233l-3 -17l-281 -253h-184l-179 255l3 15h232z" />
<glyph unicode="&#x17e;" horiz-adv-x="823" d="M336 227h372l-45 -227h-680l34 169l504 685h-358l45 228h669l-33 -165zM598 1387l116 142h233l-3 -17l-281 -253h-184l-179 255l3 15h232z" />
<glyph unicode="&#x17f;" horiz-adv-x="461" d="M5 0l240 1202q40 198 142 288.5t267 90.5q29 0 59 -5.5t67 -15.5l-65 -217q-19 5 -33 7.5t-35 2.5q-45 0 -78 -39t-48 -112l-240 -1202h-276z" />
<glyph unicode="&#x192;" horiz-adv-x="620" d="M634 876h-146l-146 -909q-33 -205 -130 -304.5t-251 -99.5q-31 0 -58 4.5t-56 13.5l46 222q17 -6 34 -9t38 -3q35 0 60 45t40 131l145 909h-116l33 206h116l19 120q30 193 130.5 286t265.5 93q29 0 59.5 -5.5t66.5 -15.5l-57 -218q-17 5 -33 7.5t-38 2.5q-46 0 -75 -38 t-41 -112l-19 -120h146z" />
<glyph unicode="&#x1a0;" horiz-adv-x="1132" d="M1036 523q-57 -281 -204.5 -412.5t-368.5 -131.5q-203 0 -304 142.5t-49 401.5l81 408q56 281 202.5 413.5t366.5 132.5q112 0 195.5 -47t130.5 -138q40 28 68.5 94.5t51.5 175.5h176q-36 -178 -96.5 -278.5t-156.5 -138.5q5 -50 2 -102.5t-14 -111.5zM841 933 q34 173 3 244t-129 71q-90 0 -152.5 -77.5t-94.5 -237.5l-82 -410q-36 -175 -6.5 -245.5t128.5 -70.5q89 0 153.5 77.5t97.5 238.5z" />
<glyph unicode="&#x1a1;" horiz-adv-x="958" d="M86 607q36 231 159 363t319 132q95 0 163.5 -39t111.5 -111q35 31 60 88t43 143h158q-29 -143 -81 -228t-136 -123q10 -52 10.5 -107.5t-8.5 -117.5l-21 -134q-38 -233 -160 -363t-317 -130q-188 0 -273 136t-49 357zM341 473q-22 -134 -7 -200.5t89 -66.5q66 0 105 70.5 t60 196.5l21 134q21 130 5.5 198.5t-86.5 68.5q-68 0 -107.5 -72t-58.5 -195z" />
<glyph unicode="&#x1af;" horiz-adv-x="1170" d="M1201 1456l-42 -209q86 13 126.5 85.5t70.5 224.5h177q-48 -242 -136 -348.5t-269 -114.5l-125 -629q-51 -253 -194.5 -369.5t-355.5 -116.5q-195 0 -298 126.5t-56 359.5l198 991h273l-198 -991q-29 -144 4 -201.5t122 -57.5q84 0 143 59.5t87 199.5l198 991h275z" />
<glyph unicode="&#x1b0;" horiz-adv-x="1005" d="M1220 1179q-37 -182 -105 -266t-202 -104l-161 -809h-242l8 108l-3 1q-51 -64 -111.5 -96.5t-132.5 -32.5q-125 0 -180.5 109t-8.5 339l130 654h277l-131 -656q-25 -124 -13 -171t59 -47q35 0 66.5 16t60.5 49l161 809h276l-26 -130q49 24 76 76.5t47 150.5h155z" />
<glyph unicode="&#x1f0;" horiz-adv-x="509" d="M529 1082l-223 -1115q-42 -210 -141 -307t-254 -97q-30 0 -57.5 4.5t-57.5 13.5l57 222q18 -6 33.5 -9t36.5 -3q34 0 62 45.5t46 130.5l223 1115h275zM432 1382l116 142h233l-3 -17l-281 -253h-184l-179 255l3 15h232z" />
<glyph unicode="&#x1fa;" horiz-adv-x="1055" d="M669 311h-330l-128 -311h-278l658 1456h286l74 -1456h-277zM433 538h232l-9 533h-3zM924 2009h236l1 -3l-266 -205h-166zM582 1575q17 85 74.5 135t132.5 50q67 0 105.5 -53.5t23.5 -131.5q-18 -86 -73 -133.5t-129 -47.5q-69 0 -109.5 51t-24.5 130zM682 1575 q-9 -42 6 -65t47 -23q27 0 51 24.5t32 63.5q9 44 -4 68t-43 24t-55.5 -26t-33.5 -66z" />
<glyph unicode="&#x1fb;" horiz-adv-x="875" d="M473 0q-5 28 -7.5 57.5t-1.5 57.5l-3 1q-46 -62 -101.5 -99t-120.5 -37q-116 0 -175.5 87.5t-29.5 234.5q35 173 139 254t295 81h87l18 88q17 86 4 125t-59 39q-36 0 -60.5 -33.5t-37.5 -98.5h-277q32 159 147.5 252t287.5 93q147 0 227.5 -98t44.5 -281l-88 -438 q-17 -84 -19.5 -148t5.5 -137h-275zM363 193q31 0 62.5 20t55.5 54l42 207h-87q-48 0 -78.5 -44.5t-44.5 -114.5q-12 -59 1.5 -90.5t48.5 -31.5zM769 1688h236l1 -3l-266 -205h-166zM427 1254q17 85 74.5 135t132.5 50q67 0 105.5 -53.5t23.5 -131.5q-18 -86 -73 -133.5 t-129 -47.5q-69 0 -109.5 51t-24.5 130zM527 1254q-9 -42 6 -65t47 -23q27 0 51 24.5t32 63.5q9 44 -4 68t-43 24t-55.5 -26t-33.5 -66z" />
<glyph unicode="&#x1fc;" horiz-adv-x="1524" d="M1370 0h-711l57 339h-277l-188 -339h-322l860 1456h826l-46 -231h-428l-61 -363h354l-46 -230h-347l-68 -402h443zM756 578l79 466l-3 1l-260 -467h184zM1015 1826h296l-276 -266h-220z" />
<glyph unicode="&#x1fd;" horiz-adv-x="1356" d="M874 -21q-93 0 -160.5 37.5t-108.5 111.5q-61 -67 -143.5 -108t-187.5 -41q-147 0 -216 91t-38 247q34 173 148 252.5t317 79.5h112l11 56q17 86 2.5 127.5t-57.5 41.5t-77 -37t-44 -92l-273 18q31 161 148.5 250t293.5 89q69 0 124.5 -21t96.5 -62q55 42 119 62.5 t141 20.5q158 0 231.5 -131.5t28.5 -355.5l-32 -160h-475q-21 -125 5 -187t112 -62q65 0 115.5 19t116.5 59l32 -183q-58 -50 -151.5 -86t-190.5 -36zM370 184q30 0 73.5 25t77.5 61l39 196h-111q-54 0 -97 -45t-55 -108q-14 -66 3 -97.5t70 -31.5zM1037 874 q-58 0 -96 -59.5t-66 -170.5h202l5 27q21 102 10.5 152.5t-55.5 50.5zM903 1505h296l-276 -266h-220z" />
<glyph unicode="&#x1fe;" horiz-adv-x="1118" d="M1041 523q-57 -281 -204.5 -412.5t-368.5 -131.5q-62 0 -113.5 13.5t-95.5 42.5l-82 -128h-123l126 198q-58 72 -75.5 176t10.5 242l81 408q56 281 202.5 413.5t366.5 132.5q72 0 132.5 -20t109.5 -60l76 119h122l-128 -200q44 -73 56 -168.5t-11 -216.5zM391 523 q-7 -35 -11.5 -62t-5.5 -48l3 -1l477 746q-15 47 -47.5 68.5t-86.5 21.5q-90 0 -152.5 -77.5t-94.5 -237.5zM846 933q2 10 3 15.5t1 8.5l-2 1l-449 -703q17 -26 45 -37t69 -11q89 0 153.5 77.5t97.5 238.5zM867 1888h296l-276 -266h-220z" />
<glyph unicode="&#x1ff;" horiz-adv-x="923" d="M88 607q36 231 159 363t319 132q43 0 80 -8.5t71 -24.5l85 148h145l-131 -228q54 -69 72 -165.5t-1 -216.5l-21 -134q-38 -233 -160 -363t-317 -130q-39 0 -72.5 6.5t-63.5 18.5l-85 -148h-144l126 220q-62 67 -83 167.5t0 228.5zM343 473q-4 -20 -6.5 -38t-2.5 -31l2 -1 l256 447q-12 11 -27 17.5t-35 6.5q-68 0 -107.5 -72t-58.5 -195zM614 630l-3 1l-236 -413q9 -7 21.5 -9.5t28.5 -2.5q66 0 105 70.5t60 196.5l21 134zM661 1499h296l-276 -266h-220z" />
<glyph unicode="&#x218;" horiz-adv-x="1028" d="M669 353q20 101 -11.5 148.5t-132.5 108.5q-195 83 -279.5 194t-47.5 296q37 184 164.5 280.5t308.5 96.5q192 0 293.5 -118.5t59.5 -332.5h-276q21 104 -13 163.5t-109 59.5q-49 0 -94 -42.5t-57 -104.5q-19 -96 16.5 -140t163.5 -113q179 -79 253.5 -190t36.5 -304 q-39 -191 -163.5 -283.5t-309.5 -92.5q-189 0 -312 107t-75 343h277q-26 -130 23 -176.5t132 -46.5q47 0 93 42t59 105zM508 -186q-21 -102 -74 -196t-119 -161l-117 75q42 63 69 124t44 143l23 118h194z" />
<glyph unicode="&#x219;" horiz-adv-x="825" d="M482 283q8 49 -16 80t-106 82q-141 62 -202 137.5t-41 200.5q22 140 130.5 229.5t271.5 89.5q161 0 246 -96.5t61 -250.5h-274q11 72 -4 110t-62 38q-34 0 -65 -31t-37 -75q-9 -50 12.5 -77t105.5 -81q149 -59 209 -136.5t39 -209.5q-24 -146 -134.5 -229.5t-280.5 -83.5 q-168 0 -252 108.5t-62 251.5h260q-13 -88 11 -124.5t82 -36.5q44 0 72 27.5t36 76.5zM407 -185q-21 -102 -74 -196t-119 -161l-117 75q42 63 69 124t44 143l23 118h194z" />
<glyph unicode="&#x21a;" horiz-adv-x="1021" d="M1135 1228h-328l-245 -1228h-275l245 1228h-325l45 228h928zM492 -167q-21 -102 -74 -196t-119 -161l-117 75q42 63 69 124t44 143l23 118h194z" />
<glyph unicode="&#x21b;" horiz-adv-x="571" d="M594 1351l-54 -269h128l-41 -206h-128l-108 -542q-15 -72 -6 -97.5t37 -25.5q18 0 31.5 2t28.5 8l-20 -212q-37 -14 -76 -21.5t-82 -7.5q-121 0 -174.5 84.5t-15.5 268.5l108 543h-102l41 206h102l54 269h277zM331 -176q-21 -102 -74 -196t-119 -161l-117 75 q42 63 69 124t44 143l23 118h194z" />
<glyph unicode="&#x237;" horiz-adv-x="509" d="M529 1082l-223 -1115q-42 -210 -141 -307t-254 -97q-30 0 -57.5 4.5t-57.5 13.5l57 222q18 -6 33.5 -9t36.5 -3q34 0 62 45.5t46 130.5l223 1115h275z" />
<glyph unicode="&#x259;" horiz-adv-x="872" d="M547 1103q178 0 261 -149.5t38 -378.5l-8 -41q-54 -266 -180 -410t-313 -143q-167 0 -238.5 129.5t-26.5 355.5l32 161h467q17 119 -8.5 184t-102.5 65q-68 0 -118.5 -19t-118.5 -59l-34 181q61 53 153 88.5t197 35.5zM390 207q46 0 83 60.5t66 169.5h-195l-5 -27 q-22 -106 -12 -154.5t63 -48.5z" />
<glyph unicode="&#x2bc;" horiz-adv-x="428" d="M535 1369q-22 -109 -85.5 -210t-144.5 -173l-117 76q42 69 71 140t49 167l38 191h227z" />
<glyph unicode="&#x2c6;" horiz-adv-x="854" d="M905 1274l-5 -22h-198l-84 149l-144 -149h-195l5 25l282 237h150z" />
<glyph unicode="&#x2c7;" horiz-adv-x="812" d="M595 1380l116 142h233l-3 -17l-281 -253h-184l-179 255l3 15h232z" />
<glyph unicode="&#x2d8;" horiz-adv-x="774" d="M842 1456q-23 -141 -113 -218.5t-227 -77.5q-132 0 -200.5 81t-46.5 215h193q-10 -63 7.5 -99.5t71.5 -36.5q50 0 80.5 38t40.5 98h194z" />
<glyph unicode="&#x2d9;" horiz-adv-x="559" d="M566 1229h-280l48 241h280z" />
<glyph unicode="&#x2da;" horiz-adv-x="580" d="M284 1299q17 87 78.5 138.5t141.5 51.5q72 0 114 -55t27 -135q-18 -89 -77.5 -137.5t-138.5 -48.5q-74 0 -118 52.5t-27 133.5zM387 1299q-9 -46 7.5 -70.5t52.5 -24.5q33 0 59.5 26t35.5 69q9 47 -6 72t-51 25q-33 0 -61.5 -27.5t-36.5 -69.5z" />
<glyph unicode="&#x2db;" horiz-adv-x="539" d="M274 0q-68 -43 -98 -82t-38 -95q-6 -32 1 -49t31 -17q16 0 29 6t26 15l4 -152q-28 -19 -62 -31.5t-79 -12.5q-82 0 -128.5 53.5t-30.5 151.5q14 85 66.5 149.5t163.5 119.5z" />
<glyph unicode="&#x2dc;" horiz-adv-x="817" d="M879 1481q-17 -101 -72.5 -164.5t-131.5 -63.5q-50 0 -114 44t-104 44q-23 0 -44.5 -32.5t-28.5 -79.5l-137 43q15 98 71.5 163.5t131.5 65.5q38 0 108 -44t110 -44q24 0 46.5 32.5t30.5 80.5z" />
<glyph unicode="&#x2dd;" horiz-adv-x="734" d="M825 1518h244l-273 -266h-205zM499 1518h244l-240 -266h-203z" />
<glyph unicode="&#x2f3;" horiz-adv-x="544" d="M1 -226q15 77 65.5 121t118.5 44q60 0 95 -47t21 -118q-16 -76 -66 -119t-116 -43q-62 0 -97 46t-21 116zM100 -226q-7 -31 3.5 -49.5t34.5 -18.5q21 0 38.5 19t24.5 49q6 35 -3.5 53t-31.5 18t-41.5 -19.5t-24.5 -51.5z" />
<glyph unicode="&#x300;" horiz-adv-x="35" d="M-134 1195h-160l-90 303h210z" />
<glyph unicode="&#x301;" horiz-adv-x="35" d="M-310 1505h210l-214 -303h-158z" />
<glyph unicode="&#x303;" horiz-adv-x="35" d="M52 1481q-17 -101 -72.5 -164.5t-131.5 -63.5q-50 0 -114 44t-104 44q-23 0 -44.5 -32.5t-28.5 -79.5l-137 43q15 98 71.5 163.5t131.5 65.5q38 0 108 -44t110 -44q24 0 46.5 32.5t30.5 80.5z" />
<glyph unicode="&#x309;" horiz-adv-x="35" d="M-393 1266l10 129q55 3 79.5 18t31.5 51q8 39 -11.5 55t-64.5 16l31 131q163 0 231 -47t48 -146q-13 -65 -50.5 -100.5t-83.5 -43.5l-14 -63h-207z" />
<glyph unicode="&#x30f;" horiz-adv-x="35" d="M-192 1252h-220l-166 266h261zM99 1252h-218l-131 266h258z" />
<glyph unicode="&#x323;" horiz-adv-x="35" d="M-446 -353h-305l49 241h305z" />
<glyph unicode="&#x384;" horiz-adv-x="618" d="M511 1623h250l-245 -350h-133z" />
<glyph unicode="&#x385;" horiz-adv-x="939" d="M956 1259h-207l39 197h207zM504 1259h-206l39 197h206zM678 1729h248l-216 -331h-133z" />
<glyph unicode="&#x386;" horiz-adv-x="1055" d="M669 311h-330l-128 -311h-278l658 1456h286l74 -1456h-277zM433 538h232l-9 533h-3zM365 1623h250l-245 -350h-133z" />
<glyph unicode="&#x387;" horiz-adv-x="543" d="M427 560h-264l52 262h264z" />
<glyph unicode="&#x388;" horiz-adv-x="1031" d="M955 639h-431l-83 -412h509l-45 -227h-786l291 1456h784l-45 -228h-508l-72 -362h431zM194 1625h250l-245 -350h-133z" />
<glyph unicode="&#x389;" horiz-adv-x="1242" d="M1052 0h-276l120 603h-380l-120 -603h-277l291 1456h277l-125 -626h380l125 626h276zM229 1621h250l-245 -350h-133z" />
<glyph unicode="&#x38a;" horiz-adv-x="608" d="M407 0h-277l291 1456h277zM233 1624h250l-245 -350h-133z" />
<glyph unicode="&#x38c;" horiz-adv-x="1139" d="M1086 596q-59 -295 -211 -456t-369 -161q-203 0 -315.5 177t-58.5 444l52 259q59 295 206 456.5t363 161.5q205 0 321.5 -178.5t63.5 -443.5zM861 857q36 180 -7.5 285.5t-145.5 105.5q-88 0 -150.5 -104t-98.5 -283l-52 -261q-37 -184 2.5 -288.5t141.5 -104.5 q88 0 155 106t103 283zM293 1623h250l-245 -350h-133z" />
<glyph unicode="&#x38e;" horiz-adv-x="1111" d="M693 873l3 -1l306 584h301l-546 -936l-104 -520h-274l109 544l-168 912h300zM170 1623h250l-245 -350h-133z" />
<glyph unicode="&#x38f;" horiz-adv-x="1116" d="M534 127l21 103l1 5q65 37 115.5 161.5t100.5 375.5l18 90q40 201 22.5 292.5t-87.5 91.5q-65 0 -124 -99.5t-96 -284.5l-18 -90q-54 -268 -50.5 -383.5t58.5 -153.5l-47 -235h-398l46 230h196q-84 91 -116.5 231t2.5 311l18 88q59 296 212 456.5t363 160.5 q191 0 287 -172.5t42 -444.5l-18 -88q-36 -181 -120.5 -317.5t-197.5 -221.5l1 -3h189l-46 -230h-399zM267 1623h250l-245 -350h-133z" />
<glyph unicode="&#x390;" horiz-adv-x="575" d="M516 1081l-150 -751q-15 -75 -9 -99t36 -24q22 0 34.5 2.5t42.5 12.5l-18 -215q-45 -16 -79.5 -22t-81.5 -6q-125 0 -181.5 87.5t-20.5 265.5l150 749h277zM735 1196h-207l39 197h207zM283 1196h-206l39 197h206zM457 1666h248l-216 -331h-133z" />
<glyph unicode="&#x391;" horiz-adv-x="1055" d="M669 311h-330l-128 -311h-278l658 1456h286l74 -1456h-277zM433 538h232l-9 533h-3z" />
<glyph unicode="&#x392;" horiz-adv-x="1053" d="M19 0l291 1456h406q195 0 291 -99.5t57 -298.5q-23 -112 -78 -189t-145 -114v-3q99 -27 129 -115.5t5 -211.5q-46 -229 -167.5 -327t-333.5 -98h-455zM424 642l-83 -415h178q68 0 114 53.5t65 146.5q22 110 4 162.5t-87 52.5h-191zM464 841h130q72 0 120.5 48t67.5 142 q22 112 -3.5 154.5t-107.5 42.5h-129z" />
<glyph unicode="&#x393;" horiz-adv-x="909" d="M1014 1228h-470l-246 -1228h-278l291 1456h748z" />
<glyph unicode="&#x394;" horiz-adv-x="1197" d="M668 1456h286l139 -1456h-1151zM340 227h445l-61 792l-3 1z" />
<glyph unicode="&#x395;" horiz-adv-x="931" d="M855 639h-431l-83 -412h509l-45 -227h-786l291 1456h784l-45 -228h-508l-72 -362h431z" />
<glyph unicode="&#x396;" horiz-adv-x="919" d="M348 227h483l-45 -227h-774l-6 143l642 1086h-411l45 227h739l-27 -138z" />
<glyph unicode="&#x397;" horiz-adv-x="1142" d="M952 0h-276l120 603h-380l-120 -603h-277l291 1456h277l-125 -626h380l125 626h276z" />
<glyph unicode="&#x398;" horiz-adv-x="1121" d="M722 609h-236l45 226h236zM1056 596q-59 -295 -211 -456t-369 -161q-203 0 -315.5 177t-58.5 444l52 259q59 295 206 456.5t363 161.5q205 0 321.5 -178.5t63.5 -443.5zM831 857q36 180 -7.5 285.5t-145.5 105.5q-88 0 -150.5 -104t-98.5 -283l-52 -261 q-37 -184 2.5 -288.5t141.5 -104.5q88 0 155 106t103 283z" />
<glyph unicode="&#x399;" horiz-adv-x="508" d="M307 0h-277l291 1456h277z" />
<glyph unicode="&#x39a;" horiz-adv-x="1050" d="M490 602h-74l-120 -602h-278l291 1456h278l-119 -594h78l305 594h361l-475 -721l195 -735h-317z" />
<glyph unicode="&#x39b;" horiz-adv-x="1048" d="M664 1122v1l-444 -1123h-288l654 1456h288l73 -1456h-289z" />
<glyph unicode="&#x39c;" horiz-adv-x="1359" d="M664 1456l3 -1073l3 -1l435 1074h361l-291 -1456h-276l85 423l126 521l-3 1l-423 -945h-183l-43 933h-3l-80 -510l-85 -423h-276l291 1456h359z" />
<glyph unicode="&#x39d;" horiz-adv-x="1141" d="M950 0h-276l-196 893h-3l-179 -893h-277l291 1456h277l196 -891h3l179 891h276z" />
<glyph unicode="&#x39e;" horiz-adv-x="929" d="M47 227h767l-45 -227h-767zM260 844h590l-44 -218h-590zM312 1456h713l-45 -227h-713z" />
<glyph unicode="&#x39f;" horiz-adv-x="1119" d="M1066 596q-59 -295 -211 -456t-369 -161q-203 0 -315.5 177t-58.5 444l52 259q59 295 206 456.5t363 161.5q205 0 321.5 -178.5t63.5 -443.5zM841 857q36 180 -7.5 285.5t-145.5 105.5q-88 0 -150.5 -104t-98.5 -283l-52 -261q-37 -184 2.5 -288.5t141.5 -104.5 q88 0 155 106t103 283z" />
<glyph unicode="&#x3a0;" horiz-adv-x="1142" d="M952 0h-275l246 1228h-381l-246 -1228h-277l291 1456h933z" />
<glyph unicode="&#x3a1;" horiz-adv-x="1074" d="M400 522l-104 -522h-277l291 1456h468q188 0 283.5 -129.5t54.5 -337.5q-46 -227 -183 -347t-342 -120h-191zM446 750h191q71 0 126 67.5t75 169.5q23 113 -2 177t-103 64h-191z" />
<glyph unicode="&#x3a3;" horiz-adv-x="929" d="M745 730l-370 -503h457l-45 -227h-797l29 144l435 595l-201 574l28 143h785l-45 -227h-442l170 -481z" />
<glyph unicode="&#x3a4;" horiz-adv-x="1021" d="M1135 1228h-328l-245 -1228h-275l245 1228h-325l45 228h928z" />
<glyph unicode="&#x3a5;" horiz-adv-x="1011" d="M593 873l3 -1l306 584h301l-546 -936l-104 -520h-274l109 544l-168 912h300z" />
<glyph unicode="&#x3a6;" horiz-adv-x="1265" d="M950 1285q179 -14 271.5 -167.5t43.5 -396.5q-53 -260 -196.5 -400.5t-341.5 -150.5l-34 -170h-277l34 170q-183 10 -277 159.5t-45 389.5q53 268 198.5 412.5t346.5 153.5l34 171h277zM399 719q-31 -150 -4 -223.5t103 -82.5l126 627q-75 -13 -136 -95.5t-89 -225.5z M994 721q31 154 5.5 230.5t-98.5 88.5l-125 -625q73 13 131.5 92t86.5 214z" />
<glyph unicode="&#x3a7;" horiz-adv-x="1045" d="M591 944h3l246 512h320l-430 -722l219 -734h-335l-84 523h-3l-251 -523h-321l437 734l-198 722h319z" />
<glyph unicode="&#x3a8;" horiz-adv-x="1186" d="M775 630q73 30 123 118t81 241l93 467h277l-93 -467q-57 -281 -191.5 -425.5t-337.5 -170.5l-78 -393h-275l78 393q-185 27 -269.5 181t-31.5 415l93 467h277l-93 -467q-33 -163 -15 -248t86 -113l166 828h275z" />
<glyph unicode="&#x3a9;" horiz-adv-x="1096" d="M514 127l21 103l1 5q65 37 115.5 161.5t100.5 375.5l18 90q40 201 22.5 292.5t-87.5 91.5q-65 0 -124 -99.5t-96 -284.5l-18 -90q-54 -268 -50.5 -383.5t58.5 -153.5l-47 -235h-398l46 230h196q-84 91 -116.5 231t2.5 311l18 88q59 296 212 456.5t363 160.5 q191 0 287 -172.5t42 -444.5l-18 -88q-36 -181 -120.5 -317.5t-197.5 -221.5l1 -3h189l-46 -230h-399z" />
<glyph unicode="&#x3aa;" horiz-adv-x="508" d="M307 0h-277l291 1456h277zM811 1606h-238l32 198h238zM402 1606h-237l32 198h237z" />
<glyph unicode="&#x3ab;" horiz-adv-x="1011" d="M593 873l3 -1l306 584h301l-546 -936l-104 -520h-274l109 544l-168 912h300zM1070 1605h-238l32 198h238zM661 1605h-237l32 198h237z" />
<glyph unicode="&#x3ac;" horiz-adv-x="916" d="M953 1081l-146 -733q-17 -84 -12.5 -111t29.5 -27h4.5t2.5 3l-21 -211q-29 -13 -53 -18t-56 -5q-69 0 -114.5 36.5t-62.5 111.5q-51 -74 -106 -111t-121 -37q-148 0 -207.5 146.5t-10.5 388.5l4 21q55 277 166 422t274 145q55 0 91.5 -32.5t58.5 -92.5h3l36 104h241z M355 514q-33 -158 -22 -233t81 -75q30 0 55 16t49 49q1 18 4 37t8 40l93 468q-11 29 -28.5 43.5t-44.5 14.5q-63 0 -111.5 -93t-79.5 -246zM672 1559h250l-245 -350h-133z" />
<glyph unicode="&#x3ad;" horiz-adv-x="913" d="M61 304q20 100 73 162.5t140 93.5q-61 37 -89 96.5t-13 130.5q33 162 150.5 237.5t300.5 75.5q145 0 233.5 -89t58.5 -239h-276q12 59 -8 88t-66 29q-47 0 -80 -37t-42 -88q-13 -59 7.5 -88.5t68.5 -29.5h143l-12 -60l-25 -126h-143q-51 0 -89 -32t-52 -101 q-13 -62 7.5 -99t75.5 -37q53 0 89 35.5t48 91.5h277q-37 -180 -158.5 -258.5t-280.5 -78.5q-168 0 -268.5 86.5t-69.5 236.5zM657 1558h250l-245 -350h-133z" />
<glyph unicode="&#x3ae;" d="M457 954l2 -1q54 72 118 110.5t135 38.5q116 0 167 -106t5 -340l-214 -1071h-277l214 1071q26 131 14.5 174.5t-61.5 43.5q-32 0 -64 -19.5t-61 -54.5l-160 -800h-277l216 1082h258zM641 1559h250l-245 -350h-133z" />
<glyph unicode="&#x3af;" horiz-adv-x="575" d="M516 1081l-150 -751q-15 -75 -9 -99t36 -24q22 0 34.5 2.5t42.5 12.5l-18 -215q-45 -16 -79.5 -22t-81.5 -6q-125 0 -181.5 87.5t-20.5 265.5l150 749h277zM441 1537h250l-245 -350h-133z" />
<glyph unicode="&#x3b0;" horiz-adv-x="896" d="M497 1082l-134 -671q-24 -118 -16.5 -161.5t34.5 -43.5q55 0 116 109t89 247q24 133 30.5 260.5t-0.5 259.5h260q19 -108 17.5 -234.5t-32.5 -285.5q-57 -285 -181 -434t-335 -149q-156 0 -229.5 107t-28.5 327l133 669h277zM953 1197h-207l39 197h207zM501 1197h-206 l39 197h206zM675 1667h248l-216 -331h-133z" />
<glyph unicode="&#x3b1;" horiz-adv-x="916" d="M953 1081l-146 -733q-17 -84 -12.5 -111t29.5 -27h4.5t2.5 3l-21 -211q-29 -13 -53 -18t-56 -5q-69 0 -114.5 36.5t-62.5 111.5q-51 -74 -106 -111t-121 -37q-148 0 -207.5 146.5t-10.5 388.5l4 21q55 277 166 422t274 145q55 0 91.5 -32.5t58.5 -92.5h3l36 104h241z M355 514q-33 -158 -22 -233t81 -75q30 0 55 16t49 49q1 18 4 37t8 40l93 468q-11 29 -28.5 43.5t-44.5 14.5q-63 0 -111.5 -93t-79.5 -246z" />
<glyph unicode="&#x3b2;" horiz-adv-x="982" d="M717 1476q165 0 250 -103.5t48 -289.5q-23 -112 -79.5 -193.5t-140.5 -127.5q84 -47 118 -137t9 -216q-45 -223 -152 -326t-274 -103q-49 0 -96 15t-87 46l-90 -450h-276l288 1439q43 216 175.5 331t306.5 115zM549 853h41q51 0 87 53t57 155q16 84 1 136t-63 52 q-51 0 -96 -59.5t-65 -159.5l-158 -788q20 -19 50 -27.5t70 -8.5q56 0 105 58.5t68 149.5q24 122 3.5 177.5t-83.5 55.5h-59l31 152z" />
<glyph unicode="&#x3b3;" horiz-adv-x="848" d="M667 1082h290l-480 -1073l-85 -425h-275l84 423l-50 1075h291l-32 -674l-4 -70l3 -1l25 71z" />
<glyph unicode="&#x3b4;" d="M320 1252q33 163 135.5 241.5t272.5 78.5q55 0 109.5 -21.5t107.5 -60.5l-75 -186q-29 20 -76 37.5t-95 17.5q-46 0 -76.5 -26.5t-39.5 -74.5q-10 -45 -1.5 -76.5t54.5 -62.5q172 -83 236 -223t22 -351l-4 -21q-52 -260 -184.5 -402t-327.5 -142q-181 0 -263.5 148 t-35.5 381l4 21q37 184 119.5 297t191.5 146l5 11q-51 50 -74 116t-5 152zM359 537q-32 -159 -19 -245t83 -86q61 0 112 92.5t81 238.5l5 22q25 125 9.5 212.5t-75.5 108.5q-61 0 -112.5 -92t-78.5 -229z" />
<glyph unicode="&#x3b5;" horiz-adv-x="913" d="M61 304q20 100 73 162.5t140 93.5q-61 37 -89 96.5t-13 130.5q33 162 150.5 237.5t300.5 75.5q145 0 233.5 -89t58.5 -239h-276q12 59 -8 88t-66 29q-47 0 -80 -37t-42 -88q-13 -59 7.5 -88.5t68.5 -29.5h143l-12 -60l-25 -126h-143q-51 0 -89 -32t-52 -101 q-13 -62 7.5 -99t75.5 -37q53 0 89 35.5t48 91.5h277q-37 -180 -158.5 -258.5t-280.5 -78.5q-168 0 -268.5 86.5t-69.5 236.5z" />
<glyph unicode="&#x3b6;" horiz-adv-x="823" d="M977 1456l-32 -159l-352 -442q-109 -141 -158.5 -227.5t-72.5 -204.5q-20 -96 -6 -133t59 -65l48 -21q117 -46 163.5 -96.5t23.5 -160.5q-18 -85 -97 -181.5t-169 -155.5l-116 109q44 43 66 86.5t30 83.5q8 39 -2 61.5t-49 38.5l-49 18q-128 49 -171.5 136t-13.5 235 q33 169 104 287t226 309l209 256h-383l45 226h697z" />
<glyph unicode="&#x3b7;" d="M457 954l2 -1q54 72 118 110.5t135 38.5q116 0 167 -106t5 -340l-214 -1071h-277l214 1071q26 131 14.5 174.5t-61.5 43.5q-32 0 -64 -19.5t-61 -54.5l-160 -800h-277l216 1082h258z" />
<glyph unicode="&#x3b8;" horiz-adv-x="970" d="M904 571q-63 -316 -192 -454t-314 -138q-172 0 -252.5 150.5t-21.5 441.5l63 313q62 315 192 454t316 139q170 0 250 -151.5t22 -441.5zM638 623h-227l-15 -75q-40 -194 -25.5 -268t72.5 -74q50 0 96.5 81.5t83.5 260.5zM454 841h227l14 68q38 191 24.5 265.5t-69.5 74.5 q-52 0 -100 -82.5t-82 -257.5z" />
<glyph unicode="&#x3b9;" horiz-adv-x="575" d="M516 1081l-150 -751q-15 -75 -9 -99t36 -24q22 0 34.5 2.5t42.5 12.5l-18 -215q-45 -16 -79.5 -22t-81.5 -6q-125 0 -181.5 87.5t-20.5 265.5l150 749h277z" />
<glyph unicode="&#x3ba;" horiz-adv-x="990" d="M446 402h-69l-80 -402h-276l216 1082h276l-82 -409h52l243 409h352l-382 -497l2 -2l14 7l151 -590h-354z" />
<glyph unicode="&#x3bb;" horiz-adv-x="891" d="M472 1533q72 0 117 -48t56 -131l123 -1024q1 -57 10.5 -88.5t35.5 -31.5h11.5t11.5 1l-45 -222q-21 -3 -42.5 -4.5t-55.5 -1.5q-93 0 -143.5 59.5t-60.5 167.5l-31 408l-3 1l-236 -619h-295l491 1058l-22 147q-4 47 -22.5 73.5t-47.5 26.5q-10 0 -19.5 -1t-29.5 -2 l36 209q34 9 79 15.5t82 6.5z" />
<glyph unicode="&#x3bc;" horiz-adv-x="1038" d="M524 1082l-124 -623q-33 -160 -17.5 -205t78.5 -45q40 0 73.5 23t63.5 68l156 782h276l-216 -1082h-258l5 38q-37 -30 -76 -44.5t-82 -14.5q-28 0 -51 8t-42 23l-85 -426h-277l299 1498h277z" />
<glyph unicode="&#x3bd;" horiz-adv-x="848" d="M408 408l-2 -70l3 -1l23 71l207 674h290l-441 -1082h-271l-94 1082h291z" />
<glyph unicode="&#x3be;" horiz-adv-x="890" d="M885 1207q-75 25 -99.5 31.5t-65.5 6.5q-57 0 -97.5 -40.5t-53.5 -107.5q-15 -76 7.5 -113t92.5 -37h121l-16 -78h1l-17 -84l-15 -73h-113q-103 0 -168.5 -63t-89.5 -190q-22 -109 5 -159.5t92 -79.5l80 -21q113 -35 161 -89.5t25 -166.5q-19 -91 -96 -183t-170 -151 l-119 108q47 44 68.5 85.5t29.5 83.5q9 40 -0.5 62t-48.5 36l-22 9q-187 50 -256 145t-25 310q30 154 108 247.5t207 137.5q-74 38 -105.5 102.5t-13.5 156.5q38 194 152 289.5t288 95.5q77 0 129.5 -12t110.5 -39z" />
<glyph unicode="&#x3bf;" d="M88 607q36 231 159 363t319 132q186 0 271 -137.5t50 -357.5l-21 -134q-38 -233 -160 -363t-317 -130q-188 0 -273 136t-49 357zM343 473q-22 -134 -7 -200.5t89 -66.5q66 0 105 70.5t60 196.5l21 134q21 130 5.5 198.5t-86.5 68.5q-68 0 -107.5 -72t-58.5 -195z" />
<glyph unicode="&#x3c0;" horiz-adv-x="1083" d="M1074 868h-117l-107 -537q-15 -75 -9 -99t36 -24q22 0 34.5 2.5t42.5 12.5l-18 -215q-45 -16 -79.5 -22t-81.5 -6q-125 0 -181.5 87.5t-20.5 265.5l107 535h-122l-173 -868h-277l173 868h-115l42 214h908z" />
<glyph unicode="&#x3c1;" d="M883 514q-53 -263 -161 -398.5t-268 -135.5q-56 0 -94.5 25t-62.5 73l-3 -1l-98 -493h-276l199 997h1l-1 1q50 252 178.5 386t322.5 134q173 0 245 -156t22 -411zM611 535q33 168 24 253.5t-76 85.5q-50 0 -96 -90.5t-73 -229.5l-1 -1h1l-58 -288q10 -30 33 -44.5 t60 -14.5q63 0 107.5 81.5t74.5 226.5z" />
<glyph unicode="&#x3c2;" horiz-adv-x="825" d="M578 1102q155 0 231 -112t36 -311h-257q19 98 8.5 146.5t-63.5 48.5q-65 0 -108.5 -87t-72.5 -233l-6 -28q-30 -149 -10.5 -208t96.5 -98q128 -50 173 -97t27 -162q-19 -90 -95.5 -182.5t-169.5 -152.5l-120 110q45 44 69 87t30 81q8 42 -3 63.5t-38 35.5 q-170 61 -225.5 179.5t-10.5 343.5l6 28q52 262 179 405t324 143z" />
<glyph unicode="&#x3c3;" horiz-adv-x="941" d="M986 854h-194q48 -67 67.5 -154t0.5 -186l-5 -23q-49 -245 -172.5 -378t-311.5 -133q-182 0 -261 152t-30 397l4 22q51 256 179.5 393.5t325.5 137.5v-1h1v1h441zM356 529q-33 -165 -23.5 -244t83.5 -79q57 0 98.5 86t72.5 237l4 22q29 146 23.5 222t-63.5 81h-6 q-66 0 -112 -83.5t-73 -219.5z" />
<glyph unicode="&#x3c4;" horiz-adv-x="856" d="M902 857h-263l-105 -527q-15 -75 -9 -99t36 -24q22 0 34.5 2.5t42.5 12.5l-18 -215q-45 -16 -79.5 -22t-81.5 -6q-125 0 -181.5 87.5t-20.5 265.5l105 525h-236l45 225h776z" />
<glyph unicode="&#x3c5;" horiz-adv-x="896" d="M497 1082l-134 -671q-24 -118 -16.5 -161.5t34.5 -43.5q55 0 116 109t89 247q24 133 30.5 260.5t-0.5 259.5h260q19 -108 17.5 -234.5t-32.5 -285.5q-57 -285 -181 -434t-335 -149q-156 0 -229.5 107t-28.5 327l133 669h277z" />
<glyph unicode="&#x3c6;" horiz-adv-x="1241" d="M387 -7q-211 45 -286.5 208.5t-28.5 393.5q34 171 101.5 295.5t159.5 206.5l167 -148q-53 -68 -91 -161t-60 -193q-30 -149 -12 -237t98 -126l115 573q27 138 115.5 215t206.5 77q211 0 298 -162t45 -376q-48 -239 -177.5 -388t-374.5 -183l-93 -466h-277zM712 232 q91 39 146 123t80 204q26 145 9 228t-82 83q-21 0 -25.5 -11.5t-10.5 -45.5z" />
<glyph unicode="&#x3c7;" horiz-adv-x="848" d="M468 738h3l145 344h311l-321 -535l156 -547h-310l-37 354h-3l-150 -354h-310l331 547l-153 535h309z" />
<glyph unicode="&#x3c8;" horiz-adv-x="1239" d="M881 1081l-169 -842q89 44 147.5 136.5t84.5 222.5q22 120 26.5 237.5t-3.5 246.5h250q26 -98 29 -216.5t-26 -267.5q-53 -262 -183.5 -418t-374.5 -191l-92 -462h-277l93 467q-188 40 -271 185t-30 409l98 494h277l-99 -496q-32 -156 -11.5 -238t84.5 -116l170 849h277z " />
<glyph unicode="&#x3c9;" horiz-adv-x="1316" d="M571 1082q-72 -129 -123 -257.5t-81 -263.5q-35 -170 -35.5 -262.5t48.5 -92.5q38 0 77.5 68.5t70.5 219.5l70 352h293l-70 -352q-33 -163 -21.5 -225.5t52.5 -62.5q44 0 84 100t71 255q23 136 23.5 264.5t-19.5 256.5h259q33 -107 39 -234.5t-26 -286.5 q-59 -293 -163.5 -437.5t-302.5 -144.5q-78 0 -129.5 48t-73.5 143q-59 -99 -130.5 -145t-157.5 -46q-183 0 -236.5 157t0.5 425q34 171 88.5 291t133.5 230h259z" />
<glyph unicode="&#x3ca;" horiz-adv-x="575" d="M516 1081l-150 -751q-15 -75 -9 -99t36 -24q22 0 34.5 2.5t42.5 12.5l-18 -215q-45 -16 -79.5 -22t-81.5 -6q-125 0 -181.5 87.5t-20.5 265.5l150 749h277zM752 1262h-238l32 198h238zM343 1262h-237l32 198h237z" />
<glyph unicode="&#x3cb;" horiz-adv-x="896" d="M497 1082l-134 -671q-24 -118 -16.5 -161.5t34.5 -43.5q55 0 116 109t89 247q24 133 30.5 260.5t-0.5 259.5h260q19 -108 17.5 -234.5t-32.5 -285.5q-57 -285 -181 -434t-335 -149q-156 0 -229.5 107t-28.5 327l133 669h277zM969 1263h-238l32 198h238zM560 1263h-237 l32 198h237z" />
<glyph unicode="&#x3cc;" d="M88 607q36 231 159 363t319 132q186 0 271 -137.5t50 -357.5l-21 -134q-38 -233 -160 -363t-317 -130q-188 0 -273 136t-49 357zM343 473q-22 -134 -7 -200.5t89 -66.5q66 0 105 70.5t60 196.5l21 134q21 130 5.5 198.5t-86.5 68.5q-68 0 -107.5 -72t-58.5 -195z M603 1559h250l-245 -350h-133z" />
<glyph unicode="&#x3cd;" horiz-adv-x="896" d="M497 1082l-134 -671q-24 -118 -16.5 -161.5t34.5 -43.5q55 0 116 109t89 247q24 133 30.5 260.5t-0.5 259.5h260q19 -108 17.5 -234.5t-32.5 -285.5q-57 -285 -181 -434t-335 -149q-156 0 -229.5 107t-28.5 327l133 669h277zM658 1538h250l-245 -350h-133z" />
<glyph unicode="&#x3ce;" horiz-adv-x="1316" d="M571 1082q-72 -129 -123 -257.5t-81 -263.5q-35 -170 -35.5 -262.5t48.5 -92.5q38 0 77.5 68.5t70.5 219.5l70 352h293l-70 -352q-33 -163 -21.5 -225.5t52.5 -62.5q44 0 84 100t71 255q23 136 23.5 264.5t-19.5 256.5h259q33 -107 39 -234.5t-26 -286.5 q-59 -293 -163.5 -437.5t-302.5 -144.5q-78 0 -129.5 48t-73.5 143q-59 -99 -130.5 -145t-157.5 -46q-183 0 -236.5 157t0.5 425q34 171 88.5 291t133.5 230h259zM834 1537h250l-245 -350h-133z" />
<glyph unicode="&#x3d1;" horiz-adv-x="1142" d="M550 216q77 0 143 86t97 240q-112 21 -172.5 136t-26.5 280l24 124q39 196 131.5 295t219.5 99q133 0 196 -109t25 -300l-104 -523q-56 -278 -208.5 -421t-371.5 -143q-206 0 -314 159.5t-58 404.5l142 709l293 1l-142 -710q-33 -159 0 -243.5t126 -84.5zM818 956 q-16 -76 -12 -126t27 -73l69 341q13 70 12.5 98.5t-15.5 28.5q-12 0 -26 -33t-26 -94z" />
<glyph unicode="&#x3d2;" horiz-adv-x="984" d="M756 1197q83 161 155.5 223t186.5 62q21 0 40.5 -4.5t35.5 -14.5l-64 -222q-1 1 -14 3t-20 2q-26 0 -49.5 -30t-39.5 -80l-355 -669l-93 -467h-275l96 481l-83 655q4 51 -7 80.5t-39 29.5q-6 0 -19.5 -2t-15.5 -3l27 222q17 10 37 14.5t44 4.5q108 0 160.5 -60.5 t70.5 -216.5l24 -385l-3 -56l3 -1l21 57z" />
<glyph unicode="&#x3d6;" horiz-adv-x="1356" d="M1433 883h-99q5 -74 -0.5 -153t-22.5 -169q-59 -293 -162.5 -437.5t-296.5 -144.5q-83 0 -139 50t-79 150q-61 -104 -137.5 -152t-169.5 -48q-178 0 -230 157t2 425q19 95 44.5 173t59.5 149h-92l39 199h1322zM1036 561q14 82 19.5 161t3.5 161h-579 q-36 -82 -61.5 -161.5t-43.5 -160.5q-34 -170 -36.5 -262.5t43.5 -92.5q45 0 89.5 68.5t75.5 219.5l40 202h292l-40 -202q-33 -163 -17 -225.5t65 -62.5q41 0 79 99.5t70 255.5z" />
<glyph unicode="&#x400;" horiz-adv-x="931" d="M855 639h-431l-83 -412h509l-45 -227h-786l291 1456h784l-45 -228h-508l-72 -362h431zM838 1559h-219l-190 266h295z" />
<glyph unicode="&#x401;" horiz-adv-x="931" d="M855 639h-431l-83 -412h509l-45 -227h-786l291 1456h784l-45 -228h-508l-72 -362h431zM1029 1606h-238l32 198h238zM620 1606h-237l32 198h237z" />
<glyph unicode="&#x402;" horiz-adv-x="1207" d="M1066 1228h-337l-72 -362q47 13 87 20.5t80 7.5q188 0 283.5 -114.5t50.5 -339.5q-42 -206 -169 -332t-366 -126l43 214q103 0 147 63.5t65 165.5q24 119 0 179.5t-100 60.5q-43 0 -82.5 -4.5t-82.5 -12.5l-129 -648h-277l245 1228h-258l45 228h872z" />
<glyph unicode="&#x403;" horiz-adv-x="909" d="M1014 1228h-470l-246 -1228h-278l291 1456h748zM773 1826h296l-276 -266h-220z" />
<glyph unicode="&#x404;" horiz-adv-x="1002" d="M981 496q-64 -261 -184.5 -388.5t-329.5 -127.5q-200 0 -312 170t-59 435l58 290q58 295 196 449t343 154q207 0 310.5 -139t70.5 -388h-275q24 152 -5 225.5t-129 73.5q-77 0 -138.5 -101t-95.5 -272l-7 -33h310l-46 -227h-309l-6 -32q-38 -183 -9.5 -280.5t122.5 -97.5 q83 0 132.5 68t87.5 221h275z" />
<glyph unicode="&#x405;" horiz-adv-x="1028" d="M669 353q20 101 -11.5 148.5t-132.5 108.5q-195 83 -279.5 194t-47.5 296q37 184 164.5 280.5t308.5 96.5q192 0 293.5 -118.5t59.5 -332.5h-276q21 104 -13 163.5t-109 59.5q-49 0 -94 -42.5t-57 -104.5q-19 -96 16.5 -140t163.5 -113q179 -79 253.5 -190t36.5 -304 q-39 -191 -163.5 -283.5t-309.5 -92.5q-189 0 -312 107t-75 343h277q-26 -130 23 -176.5t132 -46.5q47 0 93 42t59 105z" />
<glyph unicode="&#x406;" horiz-adv-x="508" d="M307 0h-277l291 1456h277z" />
<glyph unicode="&#x407;" horiz-adv-x="508" d="M307 0h-277l291 1456h277zM811 1606h-238l32 198h238zM402 1606h-237l32 198h237z" />
<glyph unicode="&#x408;" horiz-adv-x="940" d="M768 1456h276l-202 -1012q-47 -233 -177 -349t-306 -116q-174 0 -262 112.5t-43 335.5h277q-26 -129 -7.5 -175t80.5 -46q54 0 96 60t66 178z" />
<glyph unicode="&#x409;" horiz-adv-x="1680" d="M1244 1456l-102 -507h156q188 0 285.5 -133.5t56.5 -340.5q-46 -227 -186.5 -351t-345.5 -124h-432l245 1228h-240l-80 -426q-82 -434 -232 -618t-375 -184h-32l45 227h30q103 0 164 121t123 454l123 654h797zM1097 722l-99 -495h155q72 0 131.5 73t80.5 177 q22 109 -6.5 177t-106.5 68h-155z" />
<glyph unicode="&#x40a;" horiz-adv-x="1681" d="M464 836h380l124 620h277l-103 -516h155q188 0 286 -131.5t57 -337.5q-45 -225 -185.5 -348t-345.5 -123h-432l121 609h-380l-121 -609h-277l291 1456h277zM1097 713l-97 -485h155q72 0 130.5 71t79.5 174q21 108 -7 174t-106 66h-155z" />
<glyph unicode="&#x40b;" horiz-adv-x="1228" d="M1049 1228h-334l-63 -318q38 6 72.5 9.5t57.5 3.5q204 0 304.5 -118t52.5 -362l-89 -443h-276l89 443q30 154 0.5 203.5t-127.5 49.5q-22 0 -57 -3.5t-73 -9.5l-136 -683h-277l245 1228h-238l45 228h849z" />
<glyph unicode="&#x40c;" horiz-adv-x="1050" d="M490 602h-74l-120 -602h-278l291 1456h278l-119 -594h78l305 594h361l-475 -721l195 -735h-317zM749 1738h296l-276 -266h-220z" />
<glyph unicode="&#x40d;" horiz-adv-x="1126" d="M953 1456h277l-291 -1456h-277l172 864l-2 1l-548 -865h-276l291 1456h276l-173 -867l2 -1zM923 1559h-219l-190 266h295z" />
<glyph unicode="&#x40e;" horiz-adv-x="1025" d="M600 803l3 -1l305 654h290l-594 -1173q-87 -149 -169 -226.5t-208 -77.5q-18 0 -43 1.5t-41 2.5l42 227q6 -3 25 -3.5t32 -0.5q55 0 90 35.5t64 109.5l22 49h-4l-168 1056h295zM1088 1897q-23 -141 -113 -218.5t-227 -77.5q-132 0 -200.5 81t-46.5 215h193 q-10 -63 7.5 -99.5t71.5 -36.5q50 0 80.5 38t40.5 98h194z" />
<glyph unicode="&#x40f;" horiz-adv-x="1130" d="M296 1456h277l-246 -1229h380l246 1229h278l-291 -1456h-318l-71 -359h-277l71 359h-340z" />
<glyph unicode="&#x410;" horiz-adv-x="1055" d="M669 311h-330l-128 -311h-278l658 1456h286l74 -1456h-277zM433 538h232l-9 533h-3z" />
<glyph unicode="&#x411;" horiz-adv-x="1015" d="M1012 1228h-470l-62 -308h156q190 0 289 -125t58 -330q-46 -226 -185.5 -345.5t-345.5 -119.5h-435l291 1456h749zM435 693l-94 -466h156q72 0 130.5 68.5t79.5 171.5q21 107 -8 166.5t-108 59.5h-156z" />
<glyph unicode="&#x412;" horiz-adv-x="1053" d="M19 0l291 1456h406q195 0 291 -99.5t57 -298.5q-23 -112 -78 -189t-145 -114v-3q99 -27 129 -115.5t5 -211.5q-46 -229 -167.5 -327t-333.5 -98h-455zM424 642l-83 -415h178q68 0 114 53.5t65 146.5q22 110 4 162.5t-87 52.5h-191zM464 841h130q72 0 120.5 48t67.5 142 q22 112 -3.5 154.5t-107.5 42.5h-129z" />
<glyph unicode="&#x413;" horiz-adv-x="909" d="M1014 1228h-470l-246 -1228h-278l291 1456h748z" />
<glyph unicode="&#x414;" horiz-adv-x="1222" d="M1014 -357h-253l71 357h-617l-71 -357h-261l100 584h90q70 57 136 199t132 444l152 586h770l-246 -1229h137zM618 870q-52 -231 -115.5 -383.5t-141.5 -259.5h379l200 1001h-230z" />
<glyph unicode="&#x415;" horiz-adv-x="931" d="M855 639h-431l-83 -412h509l-45 -227h-786l291 1456h784l-45 -228h-508l-72 -362h431z" />
<glyph unicode="&#x416;" horiz-adv-x="1657" d="M1138 604h-124l-120 -604h-275l120 604h-127l-324 -604h-343l494 810l-189 646h343l90 -594h108l119 594h275l-119 -594h105l320 594h343l-442 -647l165 -809h-344z" />
<glyph unicode="&#x417;" horiz-adv-x="1009" d="M452 853h136q61 0 104.5 53.5t63.5 151.5q17 90 -8 140.5t-97 50.5q-55 0 -103 -50.5t-65 -135.5h-277q40 203 175.5 308.5t314.5 105.5q185 0 281 -108t56 -307q-22 -110 -84 -191.5t-155 -127.5q82 -45 115.5 -130t9.5 -207q-44 -218 -181.5 -322.5t-340.5 -104.5 q-166 0 -273.5 107t-64.5 318h277q-19 -93 10 -145.5t96 -52.5q70 0 126.5 57.5t74.5 146.5q25 127 0.5 174.5t-100.5 47.5h-136l31 152z" />
<glyph unicode="&#x418;" horiz-adv-x="1126" d="M953 1456h277l-291 -1456h-277l172 864l-2 1l-548 -865h-276l291 1456h276l-173 -867l2 -1z" />
<glyph unicode="&#x419;" horiz-adv-x="1126" d="M953 1456h277l-291 -1456h-277l172 864l-2 1l-548 -865h-276l291 1456h276l-173 -867l2 -1zM1134 1897q-23 -141 -113 -218.5t-227 -77.5q-132 0 -200.5 81t-46.5 215h193q-10 -63 7.5 -99.5t71.5 -36.5q50 0 80.5 38t40.5 98h194z" />
<glyph unicode="&#x41a;" horiz-adv-x="1050" d="M490 602h-74l-120 -602h-278l291 1456h278l-119 -594h78l305 594h361l-475 -721l195 -735h-317z" />
<glyph unicode="&#x41b;" horiz-adv-x="1143" d="M1244 1456l-291 -1456h-277l245 1228h-232l-97 -426q-104 -444 -233 -623t-329 -179h-66l45 227h31q103 11 148 113.5t127 461.5l150 654h779z" />
<glyph unicode="&#x41c;" horiz-adv-x="1359" d="M664 1456l3 -1073l3 -1l435 1074h361l-291 -1456h-276l85 423l126 521l-3 1l-423 -945h-183l-43 933h-3l-80 -510l-85 -423h-276l291 1456h359z" />
<glyph unicode="&#x41d;" horiz-adv-x="1142" d="M952 0h-276l120 603h-380l-120 -603h-277l291 1456h277l-125 -626h380l125 626h276z" />
<glyph unicode="&#x41e;" horiz-adv-x="1119" d="M1066 596q-59 -295 -211 -456t-369 -161q-203 0 -315.5 177t-58.5 444l52 259q59 295 206 456.5t363 161.5q205 0 321.5 -178.5t63.5 -443.5zM841 857q36 180 -7.5 285.5t-145.5 105.5q-88 0 -150.5 -104t-98.5 -283l-52 -261q-37 -184 2.5 -288.5t141.5 -104.5 q88 0 155 106t103 283z" />
<glyph unicode="&#x41f;" horiz-adv-x="1142" d="M952 0h-275l246 1228h-381l-246 -1228h-277l291 1456h933z" />
<glyph unicode="&#x420;" horiz-adv-x="1074" d="M400 522l-104 -522h-277l291 1456h468q188 0 283.5 -129.5t54.5 -337.5q-46 -227 -183 -347t-342 -120h-191zM446 750h191q71 0 126 67.5t75 169.5q23 113 -2 177t-103 64h-191z" />
<glyph unicode="&#x421;" horiz-adv-x="1013" d="M993 495q-64 -261 -184.5 -388.5t-329.5 -127.5q-200 0 -312 170t-59 435l58 290q58 295 196 449t343 154q207 0 310.5 -139t70.5 -388h-275q24 152 -5 225.5t-129 73.5q-77 0 -138.5 -101t-95.5 -272l-58 -292q-38 -183 -9.5 -280.5t122.5 -97.5q83 0 132.5 68t87.5 221 h275z" />
<glyph unicode="&#x422;" horiz-adv-x="1021" d="M1135 1228h-328l-245 -1228h-275l245 1228h-325l45 228h928z" />
<glyph unicode="&#x423;" horiz-adv-x="1025" d="M600 803l3 -1l305 654h290l-594 -1173q-87 -149 -169 -226.5t-208 -77.5q-18 0 -43 1.5t-41 2.5l42 227q6 -3 25 -3.5t32 -0.5q55 0 90 35.5t64 109.5l22 49h-4l-168 1056h295z" />
<glyph unicode="&#x424;" horiz-adv-x="1363" d="M1004 1326q197 -3 300 -169t50 -436q-58 -288 -215.5 -439.5t-373.5 -152.5l-38 -189h-277l38 189q-200 0 -305.5 162.5t-51.5 427.5q58 294 218 450t378 157l38 190h277zM402 719q-37 -180 0 -263t134 -83l142 710q-90 -2 -166.5 -96.5t-109.5 -267.5zM1084 721 q37 187 2 273.5t-131 88.5l-142 -710q88 1 162.5 92t108.5 256z" />
<glyph unicode="&#x425;" horiz-adv-x="1045" d="M591 944h3l246 512h320l-430 -722l219 -734h-335l-84 523h-3l-251 -523h-321l437 734l-198 722h319z" />
<glyph unicode="&#x426;" horiz-adv-x="1247" d="M299 1456h275l-246 -1229h381l246 1229h277l-246 -1230h166l-134 -577h-258l70 351h-822z" />
<glyph unicode="&#x427;" horiz-adv-x="1141" d="M1242 1456l-291 -1456h-277l112 561q-48 -13 -105 -20t-94 -7q-205 0 -305.5 117.5t-51.5 362.5l88 442h276l-88 -442q-32 -155 -2.5 -204t128.5 -49q33 0 91.5 7t107.5 20l134 668h277z" />
<glyph unicode="&#x428;" horiz-adv-x="1553" d="M586 1456l-246 -1229h260l246 1229h277l-246 -1229h256l246 1229h276l-291 -1456h-1347l291 1456h278z" />
<glyph unicode="&#x429;" horiz-adv-x="1686" d="M586 1456l-246 -1229h260l246 1229h277l-246 -1229h256l246 1229h276l-246 -1230h174l-134 -576h-257l70 350h-1245l291 1456h278z" />
<glyph unicode="&#x42a;" horiz-adv-x="1239" d="M254 1456h557l-107 -536h157q190 0 289 -125t58 -330q-46 -226 -185.5 -345.5t-345.5 -119.5h-435l245 1229h-278zM658 693l-93 -466h157q72 0 130.5 68.5t79.5 171.5q21 107 -8 166.5t-108 59.5h-158z" />
<glyph unicode="&#x42b;" horiz-adv-x="1423" d="M481 920h157q190 0 289 -125t58 -330q-46 -226 -185.5 -345.5t-345.5 -119.5h-435l291 1456h278zM1233 0h-277l291 1456h277zM435 693l-93 -466h157q72 0 130.5 68.5t79.5 171.5q21 107 -8 166.5t-108 59.5h-158z" />
<glyph unicode="&#x42c;" horiz-adv-x="1024" d="M479 920h157q190 0 289 -125t58 -330q-46 -226 -185.5 -345.5t-345.5 -119.5h-435l291 1456h278zM433 693l-93 -466h157q72 0 130.5 68.5t79.5 171.5q21 107 -8 166.5t-108 59.5h-158z" />
<glyph unicode="&#x42d;" horiz-adv-x="999" d="M170 973q53 265 184.5 385t345.5 120q187 0 273 -167.5t33 -436.5l-58 -291q-59 -293 -201.5 -448t-346.5 -155q-197 0 -288.5 128t-41.5 374h277q-32 -158 -10.5 -216.5t108.5 -58.5q76 0 133.5 100t92.5 274l7 35h-315l46 228h315l6 30q37 190 22 283t-98 93 q-79 0 -129 -66t-78 -211h-277z" />
<glyph unicode="&#x42e;" horiz-adv-x="1534" d="M1467 596q-59 -295 -211 -456t-369 -161q-201 0 -313 172.5t-64 434.5h-94l-117 -586h-277l291 1456h277l-129 -642h95l9 45q59 295 206 456.5t363 161.5q205 0 321.5 -178.5t63.5 -443.5zM1242 857q36 180 -7.5 285.5t-145.5 105.5q-88 0 -150.5 -104t-98.5 -283 l-52 -261q-37 -184 2.5 -288.5t141.5 -104.5q88 0 155 106t103 283z" />
<glyph unicode="&#x42f;" horiz-adv-x="968" d="M183 0h-299l363 637q-71 59 -93 147t6 224q42 216 182 332t329 116h405l-291 -1456h-277l107 533h-129zM754 1228h-128q-78 0 -123.5 -57t-71.5 -184q-25 -124 4 -182.5t106 -58.5h116z" />
<glyph unicode="&#x430;" horiz-adv-x="875" d="M473 0q-5 28 -7.5 57.5t-1.5 57.5l-3 1q-46 -62 -101.5 -99t-120.5 -37q-116 0 -175.5 87.5t-29.5 234.5q35 173 139 254t295 81h87l18 88q17 86 4 125t-59 39q-36 0 -60.5 -33.5t-37.5 -98.5h-277q32 159 147.5 252t287.5 93q147 0 227.5 -98t44.5 -281l-88 -438 q-17 -84 -19.5 -148t5.5 -137h-275zM363 193q31 0 62.5 20t55.5 54l42 207h-87q-48 0 -78.5 -44.5t-44.5 -114.5q-12 -59 1.5 -90.5t48.5 -31.5z" />
<glyph unicode="&#x431;" horiz-adv-x="937" d="M607 1020q169 0 243 -139.5t38 -365.5l-3 -23q-40 -243 -162.5 -378t-317.5 -135q-188 0 -272 145t-45 383l2 12l8 50q63 387 200.5 602t310.5 257q73 22 107.5 47t44.5 83h222q-34 -215 -117.5 -277.5t-276.5 -100.5q-67 -16 -115.5 -73.5t-83.5 -159.5l2 -2 q52 35 106 55t109 20zM533 793q-67 0 -107 -75.5t-60 -202.5l-3 -23q-24 -142 -9.5 -214t87.5 -72q67 0 106 75.5t62 210.5l3 23q22 135 7.5 206.5t-86.5 71.5z" />
<glyph unicode="&#x432;" horiz-adv-x="924" d="M19 0l216 1082h363q162 0 245.5 -76t53.5 -225q-17 -82 -68 -139t-132 -86v-3q97 -24 133 -89t18 -157q-33 -166 -133 -236.5t-280 -70.5h-416zM386 452l-45 -227h139q39 0 62.5 27.5t34.5 84.5q12 62 3 88.5t-55 26.5h-139zM424 639h91q39 0 63.5 25.5t35.5 78.5 q12 65 -2.5 89t-58.5 24h-86z" />
<glyph unicode="&#x433;" horiz-adv-x="688" d="M757 854h-310l-171 -854h-276l216 1082h586z" />
<glyph unicode="&#x434;" horiz-adv-x="1061" d="M72 228q107 101 144 192.5t82 305.5l70 356h659l-171 -855h135l-110 -552h-277l65 325h-434l-65 -325h-285l112 553h75zM573 726q-39 -167 -90.5 -288.5t-118.5 -210.5h217l125 624h-108z" />
<glyph unicode="&#x435;" horiz-adv-x="868" d="M387 -20q-176 0 -263 133t-54 338l24 152q37 233 155 366t304 133q172 0 248.5 -126t41.5 -347l-28 -174h-469v-4q-19 -115 5 -180t105 -65q87 0 140 20t107 58l24 -196q-58 -50 -147 -79t-193 -29zM517 874q-53 0 -86 -60.5t-54 -168.5h198l7 40q15 96 1 142.5t-66 46.5 z" />
<glyph unicode="&#x436;" horiz-adv-x="1429" d="M936 404h-83l-80 -404h-276l80 404h-80l-191 -404h-355l350 590l24 -16l3 2l-157 506h351l42 -407h67l82 407h276l-82 -407h70l204 407h350l-358 -505l2 -2l30 15l113 -590h-354z" />
<glyph unicode="&#x437;" horiz-adv-x="844" d="M356 643h116q34 0 58.5 32t36.5 89q11 60 4 92.5t-47 32.5q-38 0 -67 -31t-40 -86h-276q32 164 143 246t266 82q159 0 243.5 -81.5t54.5 -231.5q-16 -81 -62 -140.5t-116 -93.5q63 -34 88 -96.5t8 -152.5q-33 -164 -149.5 -243.5t-290.5 -79.5q-141 0 -231.5 85.5 t-56.5 251.5h276q-13 -62 3 -94.5t68 -32.5q42 0 70 38.5t40 97.5q15 76 0.5 106t-59.5 30h-116l10 54l10 48l4 21z" />
<glyph unicode="&#x438;" horiz-adv-x="926" d="M696 1082h277l-216 -1082h-277l110 551l-3 1l-310 -552h-277l216 1082h277l-110 -550l3 -1z" />
<glyph unicode="&#x439;" horiz-adv-x="926" d="M696 1082h277l-216 -1082h-277l110 551l-3 1l-310 -552h-277l216 1082h277l-110 -550l3 -1zM973 1554q-23 -141 -113 -218.5t-227 -77.5q-132 0 -200.5 81t-46.5 215h193q-10 -63 7.5 -99.5t71.5 -36.5q50 0 80.5 38t40.5 98h194z" />
<glyph unicode="&#x43a;" horiz-adv-x="945" d="M435 402h-58l-80 -402h-276l216 1082h276l-82 -409h59l208 409h350l-350 -491l2 -2l2 1l149 -590h-368z" />
<glyph unicode="&#x43b;" horiz-adv-x="927" d="M973 1082l-216 -1082h-277l170 854h-127l-55 -236q-79 -334 -183 -476t-306 -142h-37l42 230h22q68 0 97 69t89 319l106 464h675z" />
<glyph unicode="&#x43c;" horiz-adv-x="1241" d="M870 529l-3 1l-250 -530h-184l-35 495h-3l-99 -495h-277l216 1082h340l16 -745h3l315 745h348l-216 -1082h-277z" />
<glyph unicode="&#x43d;" horiz-adv-x="925" d="M754 0h-278l84 420h-200l-84 -420h-276l216 1082h276l-87 -436h200l87 436h278z" />
<glyph unicode="&#x43e;" d="M88 607q36 231 159 363t319 132q186 0 271 -137.5t50 -357.5l-21 -134q-38 -233 -160 -363t-317 -130q-188 0 -273 136t-49 357zM343 473q-22 -134 -7 -200.5t89 -66.5q66 0 105 70.5t60 196.5l21 134q21 130 5.5 198.5t-86.5 68.5q-68 0 -107.5 -72t-58.5 -195z" />
<glyph unicode="&#x43f;" horiz-adv-x="926" d="M757 0h-278l170 854h-203l-170 -854h-276l216 1082h757z" />
<glyph unicode="&#x440;" d="M880 494q-53 -264 -152 -389.5t-259 -125.5q-56 0 -100 22t-76 67l-97 -484h-276l299 1498h258l-8 -71l2 -2q42 45 89.5 69t100.5 24q148 0 210.5 -166.5t12.5 -420.5zM608 515q34 169 25 264t-75 95q-33 0 -64.5 -26.5t-59.5 -74.5l-105 -523q12 -23 35 -33.5t60 -10.5 q64 0 107.5 73t72.5 215z" />
<glyph unicode="&#x441;" horiz-adv-x="856" d="M410 206q48 0 84.5 44.5t44.5 126.5h257q-22 -179 -143 -288t-274 -109q-188 0 -269 135.5t-46 354.5l22 139q37 230 156 361.5t316 131.5q160 0 241.5 -113.5t44.5 -313.5h-257q19 92 2 145.5t-72 53.5q-69 0 -101 -68t-53 -197l-22 -139q-23 -138 -13.5 -201t82.5 -63z " />
<glyph unicode="&#x442;" horiz-adv-x="855" d="M899 856h-250l-171 -856h-277l171 856h-249l45 226h776z" />
<glyph unicode="&#x443;" horiz-adv-x="848" d="M417 478h3l249 604h297l-576 -1245q-53 -113 -134 -193.5t-213 -80.5q-32 0 -56 5.5t-68 18.5l76 212l19.5 -4.5t14.5 -1.5q52 0 84 28.5t60 89.5l36 76l-67 1095h297z" />
<glyph unicode="&#x444;" horiz-adv-x="1182" d="M77 535q55 277 161.5 422t260.5 145q22 0 42.5 -5t40.5 -13l95 476h276l-95 -475q22 8 45 12.5t48 4.5q141 0 194 -156t3 -411l-4 -21q-53 -263 -158 -399t-257 -136q-26 0 -47.5 5t-41.5 14l-82 -414h-276l82 410q-23 -7 -45 -11t-45 -4q-141 0 -195.5 146.5t-5.5 388.5 zM871 535q33 166 26.5 252.5t-64.5 86.5q-4 0 -9.5 -0.5t-8.5 -0.5l-133 -667h18q55 0 96 81.5t71 226.5zM349 514q-33 -159 -25.5 -233.5t68.5 -74.5h14l134 667q-4 0 -6.5 0.5t-6.5 0.5q-55 0 -99 -92.5t-75 -246.5z" />
<glyph unicode="&#x445;" horiz-adv-x="848" d="M468 738h3l145 344h311l-321 -535l156 -547h-310l-37 354h-3l-150 -354h-310l331 547l-153 535h309z" />
<glyph unicode="&#x446;" horiz-adv-x="1014" d="M216 1082h276l-171 -855h203l171 855h278l-171 -857h140l-128 -546h-256l64 321h-622z" />
<glyph unicode="&#x447;" horiz-adv-x="914" d="M745 0h-276l67 339q-21 -4 -39 -6t-33 -2q-187 0 -277 100.5t-47 314.5l67 336h277l-67 -336q-24 -119 -3.5 -153.5t96.5 -34.5q18 0 35.5 2t36.5 8l103 514h276z" />
<glyph unicode="&#x448;" horiz-adv-x="1351" d="M492 1082l-171 -855h166l171 855h277l-171 -855h168l171 855h277l-216 -1082h-1164l216 1082h276z" />
<glyph unicode="&#x449;" horiz-adv-x="1509" d="M490 1082l-171 -855h166l171 855h277l-171 -855h168l171 855h277l-171 -856h193l-128 -547h-257l64 321h-1081l216 1082h276z" />
<glyph unicode="&#x44a;" horiz-adv-x="1080" d="M610 763h124q168 0 251.5 -105.5t49.5 -278.5q-37 -184 -154.5 -281.5t-299.5 -97.5h-400l170 854h-223l45 228h501zM565 537l-62 -312h123q49 0 84.5 43.5t49.5 110.5q15 75 -1.5 116.5t-70.5 41.5h-123z" />
<glyph unicode="&#x44b;" horiz-adv-x="1382" d="M448 763h124q168 0 251.5 -105.5t49.5 -278.5q-37 -184 -154.5 -281.5t-299.5 -97.5h-400l216 1082h277zM1182 0h-278l216 1082h278zM403 537l-62 -312h123q49 0 84.5 43.5t49.5 110.5q15 75 -1.5 116.5t-70.5 41.5h-123z" />
<glyph unicode="&#x44c;" horiz-adv-x="923" d="M448 763h124q168 0 251.5 -105.5t49.5 -278.5q-37 -184 -154.5 -281.5t-299.5 -97.5h-400l216 1082h277zM403 537l-62 -312h123q49 0 84.5 43.5t49.5 110.5q15 75 -1.5 116.5t-70.5 41.5h-123z" />
<glyph unicode="&#x44d;" horiz-adv-x="837" d="M488 874q-45 0 -76.5 -43t-46.5 -123h-259q37 188 152.5 291t274.5 103q181 0 258 -154t29 -394l-6 -28q-53 -262 -180.5 -404.5t-322.5 -142.5q-153 0 -229.5 113t-37.5 310h259q-20 -99 -9 -147.5t62 -48.5q56 0 96.5 67.5t70.5 185.5h-159l34 169h159q20 123 7 184.5 t-76 61.5z" />
<glyph unicode="&#x44e;" horiz-adv-x="1305" d="M432 663h51q46 207 165.5 323t302.5 116q186 0 271 -137.5t50 -357.5l-21 -134q-38 -233 -160 -363t-317 -130q-179 0 -265 124.5t-62 331.5h-60l-87 -436h-278l216 1082h278zM728 473q-22 -134 -7 -200.5t89 -66.5q66 0 105 70.5t60 196.5l21 134q21 130 5.5 198.5 t-86.5 68.5q-68 0 -107.5 -72t-58.5 -195z" />
<glyph unicode="&#x44f;" horiz-adv-x="920" d="M944 1082l-216 -1082h-276l75 375h-68l-236 -375h-277l274 434q-68 47 -96 120t-9 166q34 172 152 267t297 95h380zM388 711q-13 -60 7 -100.5t72 -40.5h98l58 286h-104q-45 0 -82.5 -44.5t-48.5 -100.5z" />
<glyph unicode="&#x450;" horiz-adv-x="868" d="M387 -20q-176 0 -263 133t-54 338l24 152q37 233 155 366t304 133q172 0 248.5 -126t41.5 -347l-28 -174h-469v-4q-19 -115 5 -180t105 -65q87 0 140 20t107 58l24 -196q-58 -50 -147 -79t-193 -29zM517 874q-53 0 -86 -60.5t-54 -168.5h198l7 40q15 96 1 142.5t-66 46.5 zM691 1238h-219l-190 266h295z" />
<glyph unicode="&#x451;" horiz-adv-x="868" d="M387 -20q-176 0 -263 133t-54 338l24 152q37 233 155 366t304 133q172 0 248.5 -126t41.5 -347l-28 -174h-469v-4q-19 -115 5 -180t105 -65q87 0 140 20t107 58l24 -196q-58 -50 -147 -79t-193 -29zM517 874q-53 0 -86 -60.5t-54 -168.5h198l7 40q15 96 1 142.5t-66 46.5 zM883 1285h-238l32 198h238zM474 1285h-237l32 198h237z" />
<glyph unicode="&#x452;" horiz-adv-x="923" d="M669 1193h-159l-42 -212l3 -1q48 58 104 90t118 32q124 0 178.5 -114t7.5 -354l-34 -166h2l-101 -502q-42 -210 -141.5 -306.5t-253.5 -96.5q-32 0 -59 4t-54 13l55 223q19 -6 34 -9.5t36 -3.5q32 0 60 45.5t46 130.5l7 34h-1l127 636q29 146 14 192t-74 46 q-29 0 -55.5 -15t-51.5 -42l-163 -817h-276l238 1193h-96l35 175h96l39 192h276l-39 -192h159z" />
<glyph unicode="&#x453;" horiz-adv-x="688" d="M757 854h-310l-171 -854h-276l216 1082h586zM564 1483h296l-276 -266h-220z" />
<glyph unicode="&#x454;" horiz-adv-x="838" d="M404 206q48 0 84.5 44.5t44.5 126.5h257q-22 -179 -143 -288t-274 -109q-188 0 -269 135.5t-46 354.5l22 139q37 230 156 361.5t316 131.5q160 0 241.5 -113.5t44.5 -313.5h-257q19 92 2 145.5t-72 53.5q-69 0 -101 -67.5t-53 -193.5h184l-34 -169h-176 q-19 -123 -8 -180.5t81 -57.5z" />
<glyph unicode="&#x455;" horiz-adv-x="825" d="M482 283q8 49 -16 80t-106 82q-141 62 -202 137.5t-41 200.5q22 140 130.5 229.5t271.5 89.5q161 0 246 -96.5t61 -250.5h-274q11 72 -4 110t-62 38q-34 0 -65 -31t-37 -75q-9 -50 12.5 -77t105.5 -81q149 -59 209 -136.5t39 -209.5q-24 -146 -134.5 -229.5t-280.5 -83.5 q-168 0 -252 108.5t-62 251.5h260q-13 -88 11 -124.5t82 -36.5q44 0 72 27.5t36 76.5z" />
<glyph unicode="&#x456;" horiz-adv-x="477" d="M291 0h-276l216 1082h276zM560 1343h-276l43 217h276z" />
<glyph unicode="&#x457;" horiz-adv-x="497" d="M300 0h-278l216 1082h278zM738 1263h-238l32 198h238zM329 1263h-237l32 198h237z" />
<glyph unicode="&#x458;" horiz-adv-x="467" d="M513 1082l-223 -1115q-42 -210 -141 -307t-253 -97q-31 0 -58 4.5t-58 13.5l56 223q19 -6 34 -9t36 -3q34 0 63 44t45 131l223 1115h276zM562 1345h-277l43 215h277z" />
<glyph unicode="&#x459;" horiz-adv-x="1381" d="M968 1082l-69 -344h123q167 0 252.5 -101.5t53.5 -266.5q-36 -181 -153.5 -275.5t-300.5 -94.5h-400l170 854h-109l-47 -236q-69 -342 -183 -480t-324 -138h-37l42 228h22q61 0 111 94t91 296l92 464h666zM854 512l-57 -287h122q50 0 85.5 41.5t48.5 105.5 q13 66 -4.5 103t-72.5 37h-122z" />
<glyph unicode="&#x45a;" horiz-adv-x="1382" d="M407 660h200l85 422h278l-69 -344h123q167 0 252.5 -101.5t53.5 -266.5q-36 -181 -153.5 -275.5t-300.5 -94.5h-400l86 434h-200l-86 -434h-276l216 1082h276zM856 512l-57 -287h122q50 0 85.5 41.5t48.5 105.5q13 66 -4.5 103t-72.5 37h-122z" />
<glyph unicode="&#x45b;" horiz-adv-x="923" d="M683 1206h-170l-45 -226l3 -1q48 59 104 91t118 32q124 0 178.5 -114t7.5 -354l-127 -634h-277l127 636q29 146 14 192t-74 46q-29 0 -55.5 -15t-51.5 -42l-163 -817h-276l241 1206h-85l35 175h85l36 179h276l-36 -179h170z" />
<glyph unicode="&#x45c;" horiz-adv-x="945" d="M435 402h-58l-80 -402h-276l216 1082h276l-82 -409h59l208 409h350l-350 -491l2 -2l2 1l149 -590h-368zM685 1482h296l-276 -266h-220z" />
<glyph unicode="&#x45d;" horiz-adv-x="926" d="M696 1082h277l-216 -1082h-277l110 551l-3 1l-310 -552h-277l216 1082h277l-110 -550l3 -1zM762 1216h-219l-190 266h295z" />
<glyph unicode="&#x45e;" horiz-adv-x="848" d="M417 478h3l249 604h297l-576 -1245q-53 -113 -134 -193.5t-213 -80.5q-32 0 -56 5.5t-68 18.5l76 212l19.5 -4.5t14.5 -1.5q52 0 84 28.5t60 89.5l36 76l-67 1095h297zM928 1554q-23 -141 -113 -218.5t-227 -77.5q-132 0 -200.5 81t-46.5 215h193q-10 -63 7.5 -99.5 t71.5 -36.5q50 0 80.5 38t40.5 98h194z" />
<glyph unicode="&#x45f;" horiz-adv-x="926" d="M492 1082l-171 -855h203l171 855h278l-216 -1082h-243l-71 -358h-277l71 358h-237l216 1082h276z" />
<glyph unicode="&#x460;" horiz-adv-x="1542" d="M1643 1456l-199 -995q-50 -251 -180.5 -366.5t-319.5 -115.5q-78 0 -137.5 36t-93.5 108q-62 -75 -138 -109.5t-166 -34.5q-172 0 -262.5 125t-43.5 357l199 995h276l-199 -995q-28 -140 -8 -197.5t83 -57.5q60 0 107.5 62.5t73.5 192.5l199 995h277l-199 -995 q-28 -140 -7.5 -197.5t84.5 -57.5q59 0 106 62.5t73 192.5l199 995h276z" />
<glyph unicode="&#x461;" horiz-adv-x="1318" d="M1402 1082l-125 -629q-50 -248 -167.5 -361t-288.5 -113q-70 0 -121.5 31t-82.5 94q-57 -65 -124.5 -95t-146.5 -30q-156 0 -234 123t-31 351l125 629h276l-125 -629q-29 -139 -20 -193t54 -54q50 0 88 59.5t65 187.5l125 629h278l-125 -629q-29 -141 -19 -194t63 -53 q42 0 75 59t60 188l125 629h276z" />
<glyph unicode="&#x462;" horiz-adv-x="1024" d="M654 1093h-141l-34 -173h157q190 0 289 -125t58 -330q-46 -226 -185.5 -345.5t-345.5 -119.5h-435l218 1093h-112l35 175h112l38 188h278l-38 -188h141zM433 693l-93 -466h157q72 0 130.5 68.5t79.5 171.5q21 107 -8 166.5t-108 59.5h-158z" />
<glyph unicode="&#x463;" horiz-adv-x="923" d="M685 1081h-173l-60 -296h124q167 0 251 -108t49 -283q-39 -193 -157 -293.5t-300 -100.5h-401l216 1081h-104l35 175h104l61 305h278l-61 -305h173zM407 559l-66 -334h123q49 0 85 47t52 122q15 77 -1 121t-69 44h-124z" />
<glyph unicode="&#x464;" horiz-adv-x="1431" d="M452 858h109l4 17q58 295 196 449t343 154q207 0 310.5 -139t70.5 -388h-275q24 152 -5 225.5t-129 73.5q-77 0 -138.5 -101t-95.5 -272l-4 -19h312l-46 -228h-311l-9 -45q-38 -183 -9.5 -280.5t122.5 -97.5q83 0 132.5 68t87.5 221h275q-64 -261 -184.5 -388.5 t-329.5 -127.5q-200 0 -312 170t-59 435l9 45h-109l-126 -630h-277l291 1456h277z" />
<glyph unicode="&#x465;" horiz-adv-x="1222" d="M409 632h52q40 219 158 344.5t310 125.5q160 0 241.5 -113.5t44.5 -313.5h-257q19 92 2 145.5t-72 53.5q-66 0 -98 -62.5t-52 -179.5h213l-35 -175h-207q-21 -131 -10.5 -191t82.5 -60q48 0 84.5 44.5t44.5 126.5h257q-22 -179 -143 -288t-274 -109q-185 0 -266.5 131.5 t-50.5 345.5h-59l-91 -457h-278l216 1082h278z" />
<glyph unicode="&#x466;" horiz-adv-x="1098" d="M687 426h-25l-85 -426h-227l85 426h-17l-189 -426h-289l677 1456h286l93 -1456h-289zM505 623h174l-16 348l-3 1z" />
<glyph unicode="&#x467;" horiz-adv-x="930" d="M532 276h-24l-55 -276h-169l55 276h-14l-113 -276h-281l515 1082h289l83 -1082h-282zM399 457h131l-2 215l1 98h-3l-39 -98z" />
<glyph unicode="&#x468;" horiz-adv-x="1537" d="M424 624h228l387 832h286l93 -1456h-289l-20 426h-25l-85 -426h-227l85 426h-17l-189 -426h-289l197 425h-175l-85 -425h-277l291 1456h277zM927 623h174l-16 348l-3 1z" />
<glyph unicode="&#x469;" horiz-adv-x="1315" d="M373 457h162l298 625h289l83 -1082h-282l-4 276h-24l-55 -276h-169l55 276h-14l-113 -276h-281l132 277h-113l-55 -277h-278l216 1082h278zM786 457h131l-2 215l1 98h-3l-39 -98z" />
<glyph unicode="&#x46a;" horiz-adv-x="1434" d="M1031 795q181 -14 261 -121.5t35 -332.5l-68 -341h-277l68 341q27 137 -0.5 181.5t-115.5 44.5h-38l-113 -567h-276l113 567h-65q-82 0 -131.5 -49.5t-74.5 -176.5l-68 -341h-277l68 341q50 257 172 354.5t341 101.5l-158 659h1027zM830 904l188 321h-248z" />
<glyph unicode="&#x46b;" horiz-adv-x="1198" d="M858 604q133 -26 189 -125.5t18 -291.5l-37 -187h-277l37 187q24 121 11.5 163t-63.5 46l-79 -396h-277l79 397q-53 -2 -87.5 -48t-57.5 -162l-37 -187h-277l37 187q44 217 136.5 310.5t251.5 110.5l-117 474h858zM659 698l3 -1l107 201h-138z" />
<glyph unicode="&#x46c;" horiz-adv-x="1908" d="M477 0l68 341q13 69 31.5 124.5t44.5 103.5h-201l-113 -569h-277l291 1456h277l-132 -657h592l-158 657h1027l-423 -661q181 -14 261 -121.5t35 -332.5l-68 -341h-277l68 341q27 137 -0.5 181.5t-115.5 44.5h-38l-113 -567h-276l113 567h-65q-82 0 -131.5 -49.5 t-74.5 -176.5l-68 -341h-277zM1303 904l188 321h-248z" />
<glyph unicode="&#x46d;" horiz-adv-x="1661" d="M461 0l37 187q13 68 31 121t42 98h-190l-81 -406h-278l216 1082h278l-94 -469h463l-116 469h858l-308 -478q133 -26 189 -125.5t18 -291.5l-37 -187h-277l37 187q24 121 11.5 163t-63.5 46l-79 -396h-277l79 397q-53 -2 -87.5 -48t-57.5 -162l-37 -187h-277zM1120 698 l3 -1l107 201h-138z" />
<glyph unicode="&#x46e;" horiz-adv-x="838" d="M260 863h121q59 0 100.5 50.5t58.5 136.5q17 87 -7.5 129t-94.5 42h-180l47 235h180q196 0 286 -92t52 -286q-27 -132 -89.5 -213t-158.5 -123q96 -46 137 -130t17 -206q-44 -219 -164.5 -322t-307.5 -103h-40q-34 0 -57 -26t-31 -71q-13 -63 9 -95.5t63 -59.5l-111 -172 q-137 34 -184 127t-19 241q31 155 120.5 223t231.5 68h49q57 0 101.5 51t61.5 135q24 121 -7 173t-119 52h-113l32 157zM637 1771l116 142h233l-3 -17l-281 -253h-184l-179 255l3 15h232z" />
<glyph unicode="&#x46f;" horiz-adv-x="837" d="M425 1082q191 0 281 -71.5t61 -222.5q-20 -94 -67.5 -155t-122.5 -95q79 -36 114.5 -94.5t19.5 -139.5q-33 -166 -141.5 -244.5t-281.5 -78.5h-39q-42 0 -69 -26t-35 -71q-13 -63 4 -95.5t50 -59.5l-105 -156q-105 40 -152 131.5t-23 220.5q28 138 107.5 198.5 t205.5 60.5h48q59 0 102.5 36t55.5 95q14 72 -15.5 104.5t-100.5 32.5h-130l17 84l18 89h138q45 0 75.5 36.5t43.5 99.5q12 59 -11.5 88t-87.5 29h-190l40 204h190zM578 1385l116 142h233l-3 -17l-281 -253h-184l-179 255l3 15h232z" />
<glyph unicode="&#x470;" horiz-adv-x="1186" d="M775 630q73 30 123 118t81 241l93 467h277l-93 -467q-57 -281 -191.5 -425.5t-337.5 -170.5l-78 -393h-275l78 393q-185 27 -269.5 181t-31.5 415l93 467h277l-93 -467q-33 -163 -15 -248t86 -113l166 828h275z" />
<glyph unicode="&#x471;" horiz-adv-x="1239" d="M881 1081l-169 -842q89 44 147.5 136.5t84.5 222.5q22 120 26.5 237.5t-3.5 246.5h250q26 -98 29 -216.5t-26 -267.5q-53 -262 -183.5 -418t-374.5 -191l-92 -462h-277l93 467q-188 40 -271 185t-30 409l98 494h277l-99 -496q-32 -156 -11.5 -238t84.5 -116l170 849h277z " />
<glyph unicode="&#x472;" horiz-adv-x="1121" d="M1042 523q-57 -281 -204.5 -412.5t-368.5 -131.5q-203 0 -304 142.5t-49 401.5l81 408q56 281 202.5 413.5t366.5 132.5q202 0 305 -144t52 -402zM789 645h-373l-24 -122q-36 -175 -6.5 -245.5t128.5 -70.5q89 0 153.5 77.5t97.5 238.5zM451 820h373l23 113q34 173 3 244 t-129 71q-90 0 -152.5 -77.5t-94.5 -237.5z" />
<glyph unicode="&#x473;" horiz-adv-x="918" d="M86 607q36 231 159 363t319 132q186 0 271 -137.5t50 -357.5l-21 -134q-38 -233 -160 -363t-317 -130q-188 0 -273 136t-49 357zM528 874q-66 0 -104.5 -67t-58.5 -182h247q17 122 1 185.5t-85 63.5zM423 206q63 0 101 63.5t59 179.5h-246q-17 -122 -1 -182.5t87 -60.5z " />
<glyph unicode="&#x474;" horiz-adv-x="1057" d="M515 376l-1 -56l3 -1l21 54l283 758q79 177 164 260.5t206 83.5l34 -1l-49 -236h-26q-29 0 -52.5 -32t-40.5 -92l-462 -1114h-286l-81 1456h291z" />
<glyph unicode="&#x475;" horiz-adv-x="844" d="M397 408l-3 -53h3l18 53l109 364q76 167 163.5 248.5t204.5 81.5q23 0 42.5 -4.5t35.5 -13.5l-66 -222q-1 0 -14.5 2t-19.5 2q-30 0 -59 -30.5t-42 -77.5l-307 -758h-270l-41 1082h291z" />
<glyph unicode="&#x476;" horiz-adv-x="1057" d="M515 376l-1 -56l3 -1l21 54l283 758q79 177 164 260.5t206 83.5l34 -1l-49 -236h-26q-29 0 -52.5 -32t-40.5 -92l-462 -1114h-286l-81 1456h291zM708 1588h-220l-166 266h261zM999 1588h-218l-131 266h258z" />
<glyph unicode="&#x477;" horiz-adv-x="844" d="M397 408l-3 -53h3l18 53l109 364q76 167 163.5 248.5t204.5 81.5q23 0 42.5 -4.5t35.5 -13.5l-66 -222q-1 0 -14.5 2t-19.5 2q-30 0 -59 -30.5t-42 -77.5l-307 -758h-270l-41 1082h291zM582 1338h-220l-166 266h261zM873 1338h-218l-131 266h258z" />
<glyph unicode="&#x478;" horiz-adv-x="1967" d="M1066 596q-59 -295 -211 -456t-369 -161q-203 0 -315.5 177t-58.5 444l52 259q59 295 206 456.5t363 161.5q205 0 321.5 -178.5t63.5 -443.5zM841 857q36 180 -7.5 285.5t-145.5 105.5q-88 0 -150.5 -104t-98.5 -283l-52 -261q-37 -184 2.5 -288.5t141.5 -104.5 q88 0 155 106t103 283zM1536 478h3l249 604h297l-576 -1245q-53 -113 -134 -193.5t-213 -80.5q-32 0 -56 5.5t-68 18.5l76 212l19.5 -4.5t14.5 -1.5q52 0 84 28.5t60 89.5l36 76l-67 1095h297z" />
<glyph unicode="&#x479;" horiz-adv-x="1770" d="M88 607q36 231 159 363t319 132q186 0 271 -137.5t50 -357.5l-21 -134q-38 -233 -160 -363t-317 -130q-188 0 -273 136t-49 357zM343 473q-22 -134 -7 -200.5t89 -66.5q66 0 105 70.5t60 196.5l21 134q21 130 5.5 198.5t-86.5 68.5q-68 0 -107.5 -72t-58.5 -195z M1339 478h3l249 604h297l-576 -1245q-53 -113 -134 -193.5t-213 -80.5q-32 0 -56 5.5t-68 18.5l76 212l19.5 -4.5t14.5 -1.5q52 0 84 28.5t60 89.5l36 76l-67 1095h297z" />
<glyph unicode="&#x47a;" horiz-adv-x="1121" d="M786 1119h-173l91 457h173zM538 -135h-174l93 466h174zM1065 596q-59 -295 -211 -456t-369 -161q-203 0 -315.5 177t-58.5 444l52 259q59 295 206 456.5t363 161.5q205 0 321.5 -178.5t63.5 -443.5zM840 857q36 180 -7.5 285.5t-145.5 105.5q-88 0 -150.5 -104 t-98.5 -283l-52 -261q-37 -184 2.5 -288.5t141.5 -104.5q88 0 155 106t103 283z" />
<glyph unicode="&#x47b;" horiz-adv-x="923" d="M602 758h-141l89 446h141zM419 -126h-141l92 461h141zM88 607q36 231 159 363t319 132q186 0 271 -137.5t50 -357.5l-21 -134q-38 -233 -160 -363t-317 -130q-188 0 -273 136t-49 357zM343 473q-22 -134 -7 -200.5t89 -66.5q66 0 105 70.5t60 196.5l21 134 q21 130 5.5 198.5t-86.5 68.5q-68 0 -107.5 -72t-58.5 -195z" />
<glyph unicode="&#x47c;" horiz-adv-x="1544" d="M1223 1455q172 0 261.5 -127.5t43.5 -361.5l-99 -498q-52 -255 -182.5 -372t-318.5 -117q-75 0 -132.5 33t-93.5 99q-61 -69 -134 -100.5t-159 -31.5q-172 0 -261.5 127t-42.5 362l99 498q51 253 181.5 371t318.5 118l-45 -227q-57 0 -105 -65t-74 -197l-99 -498 q-30 -144 -10 -203t83 -59q60 0 107.5 62.5t73.5 192.5l73 364h260l-73 -364q-29 -141 -8.5 -198t86.5 -57q57 0 104.5 64.5t75.5 197.5l99 498q28 143 8.5 202.5t-82.5 59.5zM1358 1703l-26 -127h-17q-90 0 -208 62.5t-146 62.5q-27 0 -51 -28t-34 -80l-4 -18h-114l7 36 q23 117 77 167.5t143 50.5q45 0 157 -63t199 -63h17zM896 1290l-61 50l66 108l28 148h154l-26 -131z" />
<glyph unicode="&#x47d;" horiz-adv-x="1306" d="M963 1099q164 0 250 -121.5t42 -344.5l-38 -188q-49 -243 -165 -354.5t-280 -111.5q-61 0 -107 31.5t-73 95.5q-52 -66 -112 -96.5t-129 -30.5q-151 0 -227.5 121.5t-31.5 344.5l38 188q48 241 173 353.5t304 112.5l-46 -227q-48 0 -88.5 -59.5t-64.5 -179.5l-38 -188 q-27 -132 -19.5 -185.5t45.5 -53.5q37 0 70.5 60t59.5 187l32 160h261l-32 -160q-28 -137 -19.5 -192t49.5 -55q34 0 65.5 58.5t56.5 180.5l38 188q25 131 9 185t-69 54zM1191 1364l-26 -128h-18q-90 0 -207.5 62.5t-145.5 62.5q-27 0 -50.5 -27.5t-33.5 -80.5l-4 -18h-116 l7 36q23 118 77 168t143 50q45 0 158 -62.5t200 -62.5h16zM892 1140l-160 -174l-61 50l66 108l25 132h153z" />
<glyph unicode="&#x47e;" horiz-adv-x="1543" d="M665 1688l21 108h717l-19 -108h-286l-25 -125h-161l25 125h-272zM1367 1456l-199 -995q-26 -130 -73 -192.5t-106 -62.5q-64 0 -84.5 57.5t7.5 197.5l199 995h-277l-199 -995q-26 -130 -73.5 -192.5t-107.5 -62.5q-63 0 -83 57.5t8 197.5l199 995h-276l-199 -995 q-47 -232 43.5 -357t262.5 -125q90 0 166 34.5t138 109.5q34 -72 93.5 -108t137.5 -36q189 0 319.5 115.5t180.5 366.5l199 995h-276z" />
<glyph unicode="&#x47f;" horiz-adv-x="1318" d="M535 1349l20 108h651l-14 -108h-259l-26 -127h-160l26 127h-238zM1126 1082l-125 -629q-27 -129 -60 -188t-75 -59q-53 0 -63 53t19 194l125 629h-278l-125 -629q-27 -128 -65 -187.5t-88 -59.5q-45 0 -54 54t20 193l125 629h-276l-125 -629q-47 -228 31 -351t234 -123 q79 0 146.5 30t124.5 95q31 -63 82.5 -94t121.5 -31q171 0 288.5 113t167.5 361l125 629h-276z" />
<glyph unicode="&#x480;" horiz-adv-x="1005" d="M531 -360h-274l70 353q-144 43 -205.5 200.5t-15.5 388.5l59 291q58 291 204 447.5t352 156.5q195 0 283 -128.5t39 -374.5h-276q31 159 12.5 217t-103.5 58q-77 0 -138.5 -101.5t-95.5 -272.5l-59 -293q-38 -188 -19.5 -282t103.5 -94h177z" />
<glyph unicode="&#x481;" horiz-adv-x="878" d="M492 -362h-276l70 355q-133 41 -183.5 184t-8.5 349l6 28q52 262 179 405t324 143q153 0 229 -113.5t37 -309.5h-258q19 96 7.5 145.5t-60.5 49.5q-65 0 -109 -87.5t-73 -232.5l-6 -28q-32 -159 -25.5 -237.5t72.5 -82.5h188z" />
<glyph unicode="&#x482;" horiz-adv-x="1016" d="M489 446l186 -172l-85 -123l-190 170l-200 -321h-147l252 398l-187 171l84 123l191 -171l221 365l-188 171l87 125l187 -171l203 331h145l-251 -408l189 -171l-88 -122l-187 170z" />
<glyph unicode="&#x483;" horiz-adv-x="35" d="M-356 1315l-25 -125l-157 1l48 233h429l20 108l156 -1l-43 -216h-428z" />
<glyph unicode="&#x484;" horiz-adv-x="35" d="M-458 1431q91 0 232.5 63t189.5 63q89 0 125 -50.5t13 -167.5l-7 -36h-118l3 18q11 52 -3 80t-42 28q-29 0 -176 -62.5t-241 -62.5h-16l25 127h15z" />
<glyph unicode="&#x485;" horiz-adv-x="35" d="M-227 1500l29 146h161l-33 -163l21 -108l-82 -65z" />
<glyph unicode="&#x486;" horiz-adv-x="35" d="M-194 1310l-57 65l66 108l31 163h160l-29 -146z" />
<glyph unicode="&#x488;" horiz-adv-x="35" d="M-575 1267q19 90 71 139t128 49q71 0 105.5 -52.5t17.5 -135.5h-85q10 47 -2 74t-53 27q-35 0 -59.5 -29t-34.5 -72h-88zM-177 990q19 90 70.5 139t126.5 49q70 0 104.5 -52.5t18.5 -135.5h-85q9 47 -3.5 74t-52.5 27q-34 0 -59 -29t-34 -72h-86zM-136 487q19 90 71 139 t127 49q70 0 104 -52.5t18 -135.5h-85q9 47 -3 74t-51 27q-36 0 -60 -29t-34 -72h-87zM-389 -32q18 90 70 139t127 49q71 0 105 -52.5t17 -135.5h-83q10 47 -2.5 74t-53.5 27q-35 0 -60 -29t-34 -72h-86zM-886 -316q19 91 70 139.5t127 48.5q71 0 106 -52t18 -136h-85 q10 48 -3 74.5t-53 26.5q-35 0 -60 -29t-34 -72h-86zM-1067 990q19 90 71.5 139t128.5 49q71 0 105 -52.5t17 -135.5h-85q10 47 -2.5 74t-52.5 27q-36 0 -60 -29t-34 -72h-88zM-1303 487q19 90 71 139t128 49q71 0 105.5 -52.5t17.5 -135.5h-86q10 47 -1.5 74t-52.5 27 q-35 0 -60.5 -29.5t-34.5 -71.5h-87zM-1279 -32q18 90 70 139t128 49q71 0 106.5 -52.5t18.5 -135.5h-87q10 47 -2.5 74t-52.5 27q-35 0 -59.5 -29t-33.5 -72h-88z" />
<glyph unicode="&#x489;" horiz-adv-x="0" d="M-570 -60l5 -14l-161 -339h-73l124 353h105zM-482 1126l-6 14l161 338h73l-124 -352h-104zM-63 631l12 12l229 -124l-20 -98l-249 71zM-991 433l-13 -12l-230 124l20 98l250 -71zM-172 1002l5 16l273 153l39 -68q-32 -23 -263 -200zM-892 21l-3 -17l-276 -153l-39 69 l265 200zM-830 860l-13 2l-46 326l62 69l92 -299zM-235 161l12 -2l49 -325l-64 -71l-92 299z" />
<glyph unicode="&#x48a;" horiz-adv-x="1126" d="M953 1456h277l-291 -1456h-277l172 864l-2 1l-548 -865h-276l291 1456h276l-173 -867l2 -1zM1134 1897q-23 -141 -113 -218.5t-227 -77.5q-132 0 -200.5 81t-46.5 215h193q-10 -63 7.5 -99.5t71.5 -36.5q50 0 80.5 38t40.5 98h194zM1196 -14q-23 -111 -92 -216t-157 -182 l-117 76q44 72 72.5 143t47.5 164l45 226h244z" />
<glyph unicode="&#x48b;" horiz-adv-x="926" d="M696 1082h277l-216 -1082h-277l110 551l-3 1l-310 -552h-277l216 1082h277l-110 -550l3 -1zM973 1554q-23 -141 -113 -218.5t-227 -77.5q-132 0 -200.5 81t-46.5 215h193q-10 -63 7.5 -99.5t71.5 -36.5q50 0 80.5 38t40.5 98h194zM1013 -14q-23 -111 -92 -216t-157 -182 l-117 76q44 72 72.5 143t47.5 164l45 226h244z" />
<glyph unicode="&#x48c;" horiz-adv-x="1024" d="M654 1093h-141l-34 -173h157q190 0 289 -125t58 -330q-46 -226 -185.5 -345.5t-345.5 -119.5h-435l218 1093h-112l35 175h112l38 188h278l-38 -188h141zM433 693l-93 -466h157q72 0 130.5 68.5t79.5 171.5q21 107 -8 166.5t-108 59.5h-158z" />
<glyph unicode="&#x48d;" horiz-adv-x="923" d="M725 1280h-174l-99 -495h124q167 0 251 -108t49 -283q-39 -193 -157 -293.5t-300 -100.5h-401l255 1280h-103l35 176h104l31 156h278l-31 -156h173zM407 559l-66 -334h123q49 0 85 47t52 122q15 77 -1 121t-69 44h-124z" />
<glyph unicode="&#x48e;" horiz-adv-x="1018" d="M991 508l-103 -85l-270 487l103 86zM401 522l-104 -522h-277l291 1456h468q188 0 283.5 -129.5t54.5 -337.5q-46 -227 -183 -347t-342 -120h-191zM447 750h191q71 0 126 67.5t75 169.5q23 113 -2 177t-103 64h-191z" />
<glyph unicode="&#x48f;" horiz-adv-x="916" d="M766 -3l-106 -83l-231 462l104 83zM880 494q-53 -264 -152 -389.5t-259 -125.5q-56 0 -100 22t-76 67l-97 -484h-276l299 1498h258l-8 -71l2 -2q42 45 89.5 69t100.5 24q148 0 210.5 -166.5t12.5 -420.5zM608 515q34 169 25 264t-75 95q-33 0 -64.5 -26.5t-59.5 -74.5 l-105 -523q12 -23 35 -33.5t60 -10.5q64 0 107.5 73t72.5 215z" />
<glyph unicode="&#x490;" horiz-adv-x="908" d="M1027 1230h-15v-2h-470l-246 -1228h-278l291 1456h486l76 377h277z" />
<glyph unicode="&#x491;" horiz-adv-x="773" d="M799 855h-43v-1h-310l-171 -854h-276l216 1082h352l64 320h277z" />
<glyph unicode="&#x492;" horiz-adv-x="909" d="M570 666h-139l-133 -666h-278l133 666h-114l35 175h114l123 615h748l-45 -228h-470l-78 -387h139z" />
<glyph unicode="&#x493;" horiz-adv-x="688" d="M508 457h-141l-91 -457h-276l91 457h-114l35 175h114l90 450h586l-45 -228h-310l-45 -222h141z" />
<glyph unicode="&#x494;" horiz-adv-x="904" d="M1014 1228h-470l-79 -392h121q208 0 309 -147.5t43 -439.5q-53 -258 -188.5 -423.5t-374.5 -165.5l43 214q103 0 155 102.5t85 257.5q41 206 12 289.5t-130 83.5h-121l-121 -607h-278l291 1456h748z" />
<glyph unicode="&#x495;" horiz-adv-x="884" d="M756 854h-310l-38 -191h9q197 0 297.5 -122.5t52.5 -362.5q-25 -133 -125 -265t-250 -197l-85 186q70 52 117.5 117.5t66.5 158.5q27 140 -3 198t-117 58h-9l-87 -434h-276l216 1082h586z" />
<glyph unicode="&#x496;" horiz-adv-x="1657" d="M1138 604h-124l-120 -604h-275l120 604h-127l-324 -604h-343l494 810l-189 646h343l90 -594h108l119 594h275l-119 -594h105l320 594h343l-442 -647l165 -809h-344zM1597 -356h-277l111 558h277z" />
<glyph unicode="&#x497;" horiz-adv-x="1429" d="M936 404h-83l-80 -404h-276l80 404h-80l-191 -404h-355l350 590l24 -16l3 2l-157 506h351l42 -407h67l82 407h276l-82 -407h70l204 407h350l-358 -505l2 -2l30 15l113 -590h-354zM1317 -356h-277l111 558h277z" />
<glyph unicode="&#x498;" horiz-adv-x="1009" d="M452 853h136q61 0 104.5 53.5t63.5 151.5q17 90 -8 140.5t-97 50.5q-55 0 -103 -50.5t-65 -135.5h-277q40 203 175.5 308.5t314.5 105.5q185 0 281 -108t56 -307q-22 -110 -84 -191.5t-155 -127.5q82 -45 115.5 -130t9.5 -207q-44 -218 -181.5 -322.5t-340.5 -104.5 q-166 0 -273.5 107t-64.5 318h277q-19 -93 10 -145.5t96 -52.5q70 0 126.5 57.5t74.5 146.5q25 127 0.5 174.5t-100.5 47.5h-136l31 152zM456 -481h-277l111 558h277z" />
<glyph unicode="&#x499;" horiz-adv-x="844" d="M356 643h116q34 0 58.5 32t36.5 89q11 60 4 92.5t-47 32.5q-38 0 -67 -31t-40 -86h-276q32 164 143 246t266 82q159 0 243.5 -81.5t54.5 -231.5q-16 -81 -62 -140.5t-116 -93.5q63 -34 88 -96.5t8 -152.5q-33 -164 -149.5 -243.5t-290.5 -79.5q-141 0 -231.5 85.5 t-56.5 251.5h276q-13 -62 3 -94.5t68 -32.5q42 0 70 38.5t40 97.5q15 76 0.5 106t-59.5 30h-116l10 54l10 48l4 21zM389 -480h-277l111 558h277z" />
<glyph unicode="&#x49a;" horiz-adv-x="1050" d="M490 602h-74l-120 -602h-278l291 1456h278l-119 -594h78l305 594h361l-475 -721l195 -735h-317zM940 -356h-277l111 558h277z" />
<glyph unicode="&#x49b;" horiz-adv-x="945" d="M435 402h-58l-80 -402h-276l216 1082h276l-82 -409h59l208 409h350l-350 -491l2 -2l2 1l149 -590h-368zM857 -356h-277l111 558h277z" />
<glyph unicode="&#x49c;" horiz-adv-x="1096" d="M1293 1456l-414 -643l4 3l142 -816h-352l-44 602h-23l-47 -235h-148l47 235h-44l-120 -602h-276l291 1456h276l-119 -596h43l53 261h148l-53 -261h15l278 596h343z" />
<glyph unicode="&#x49d;" horiz-adv-x="1018" d="M1136 1082l-314 -491l2 -2l2 1l96 -590h-353l-1 402h-18l-35 -175h-132l35 175h-41l-80 -402h-276l216 1082h276l-82 -409h41l39 194h132l-39 -194h26l157 409h349z" />
<glyph unicode="&#x49e;" horiz-adv-x="1070" d="M510 602h-74l-120 -602h-278l228 1143h-165l35 175h165l28 138h278l-28 -138h88l-35 -175h-88l-56 -281h78l305 594h361l-475 -721l195 -735h-317z" />
<glyph unicode="&#x49f;" horiz-adv-x="920" d="M435 450h-45l-90 -450h-277l242 1212h-145l35 175h145l35 173h277l-35 -173h109l-35 -175h-109l-107 -538h46l217 408h318l-336 -482l148 -600h-316z" />
<glyph unicode="&#x4a0;" horiz-adv-x="1340" d="M779 602h-74l-120 -602h-278l245 1228h-359l45 228h638l-119 -594h78l305 594h361l-475 -721l195 -735h-317z" />
<glyph unicode="&#x4a1;" horiz-adv-x="1191" d="M694 402h-58l-80 -402h-276l170 854h-300l45 228h577l-82 -409h59l208 409h350l-350 -491l2 -2l2 1l149 -590h-368z" />
<glyph unicode="&#x4a2;" horiz-adv-x="1142" d="M952 0h-276l120 603h-380l-120 -603h-277l291 1456h277l-125 -626h380l125 626h276zM1048 -356h-277l111 558h277z" />
<glyph unicode="&#x4a3;" horiz-adv-x="925" d="M754 0h-278l84 420h-200l-84 -420h-276l216 1082h276l-87 -436h200l87 436h278zM850 -356h-277l111 558h277z" />
<glyph unicode="&#x4a4;" horiz-adv-x="1563" d="M462 830h380l125 626h723l-45 -227h-445l-2 2l-246 -1231h-276l120 603h-380l-120 -603h-277l291 1456h277z" />
<glyph unicode="&#x4a5;" horiz-adv-x="1128" d="M403 646h200l87 436h510l-45 -227h-233l-170 -855h-278l84 420h-200l-84 -420h-276l216 1082h276z" />
<glyph unicode="&#x4a6;" horiz-adv-x="1687" d="M1122 834h113q208 0 309 -147.5t43 -439.5q-53 -258 -188.5 -423.5t-374.5 -165.5l43 214q103 0 155 102.5t85 257.5q41 206 12 289.5t-130 83.5h-112l-121 -605h-275l246 1228h-381l-246 -1228h-277l291 1456h933z" />
<glyph unicode="&#x4a7;" horiz-adv-x="1399" d="M889 671h45q206 0 312 -122.5t58 -363.5q-24 -133 -124 -264.5t-251 -196.5l-84 185q70 52 117 117t66 159q25 132 -10 194.5t-130 62.5h-45l-88 -442h-278l170 854h-203l-170 -854h-276l216 1082h757z" />
<glyph unicode="&#x4a8;" horiz-adv-x="1319" d="M1140 -15q-84 0 -156.5 17t-137.5 52q-71 -38 -145 -56.5t-155 -18.5q-231 0 -353 195.5t-63 487.5l43 213q56 281 199 441.5t334 160.5l-48 -237q-54 0 -108 -103t-85 -260l-43 -215q-43 -215 1 -331t170 -116q16 0 31 2t32 7q-68 101 -89 226.5t9 276.5l41 202 q50 254 170 400t276 146t228.5 -166t20.5 -427l-35 -176q-31 -151 -87.5 -271.5t-138.5 -214.5q31 -9 63.5 -13t69.5 -4zM837 725q-22 -108 -17 -193.5t38 -152.5q51 67 87 149t55 178l42 209q37 189 29 257t-55 68q-36 0 -71.5 -75.5t-66.5 -234.5z" />
<glyph unicode="&#x4a9;" horiz-adv-x="1079" d="M932 -27q-88 0 -157 13t-124 38q-52 -23 -103.5 -34t-103.5 -11q-213 0 -308.5 145t-44.5 401l20 102q41 205 170.5 340t279.5 135l-47 -235q-34 -8 -60 -65.5t-49 -172.5l-21 -104q-26 -127 -0.5 -212.5t90.5 -96.5q-22 64 -23.5 140.5t17.5 170.5l32 157 q35 179 138 298t220 119q133 0 186 -123.5t11 -339.5l-30 -149q-21 -101 -68.5 -186t-118.5 -154q27 -10 58 -14.5t67 -4.5zM751 505l30 151q18 91 17.5 151t-20.5 60q-22 0 -45.5 -52.5t-40.5 -140.5l-32 -161q-12 -57 -9.5 -107t19.5 -94q28 37 48 85t33 108v0z" />
<glyph unicode="&#x4aa;" horiz-adv-x="1013" d="M993 495q-64 -261 -184.5 -388.5t-329.5 -127.5q-200 0 -312 170t-59 435l58 290q58 295 196 449t343 154q207 0 310.5 -139t70.5 -388h-275q24 152 -5 225.5t-129 73.5q-77 0 -138.5 -101t-95.5 -272l-58 -292q-38 -183 -9.5 -280.5t122.5 -97.5q83 0 132.5 68t87.5 221 h275zM483 -473h-277l111 558h277z" />
<glyph unicode="&#x4ab;" horiz-adv-x="856" d="M410 206q48 0 84.5 44.5t44.5 126.5h257q-22 -179 -143 -288t-274 -109q-188 0 -269 135.5t-46 354.5l22 139q37 230 156 361.5t316 131.5q160 0 241.5 -113.5t44.5 -313.5h-257q19 92 2 145.5t-72 53.5q-69 0 -101 -68t-53 -197l-22 -139q-23 -138 -13.5 -201t82.5 -63z M420 -473h-277l111 558h277z" />
<glyph unicode="&#x4ac;" horiz-adv-x="1021" d="M1135 1228h-328l-245 -1228h-275l245 1228h-325l45 228h928zM658 -356h-277l111 558h277z" />
<glyph unicode="&#x4ad;" horiz-adv-x="855" d="M899 856h-250l-171 -856h-277l171 856h-249l45 226h776zM574 -356h-277l111 558h277z" />
<glyph unicode="&#x4ae;" horiz-adv-x="1011" d="M593 873l3 -1l306 584h301l-546 -936l-104 -520h-274l109 544l-168 912h300z" />
<glyph unicode="&#x4af;" horiz-adv-x="848" d="M667 1082h290l-480 -1073l-85 -425h-275l84 423l-50 1075h291l-32 -674l-4 -70l3 -1l25 71z" />
<glyph unicode="&#x4b0;" horiz-adv-x="1011" d="M593 872l3 -1l306 585h301l-445 -762h78l-35 -175h-144l-104 -519h-274l104 519h-113l35 175h55l-140 762h300z" />
<glyph unicode="&#x4b1;" horiz-adv-x="848" d="M613 13h-134l-2 -4l-85 -425h-275l84 422v7h-119l35 175h76l-42 894h291l-32 -674l-4 -70l3 -1l25 71l233 674h290l-400 -894h91z" />
<glyph unicode="&#x4b2;" horiz-adv-x="1045" d="M591 944h3l246 512h320l-430 -722l219 -734h-335l-84 523h-3l-251 -523h-321l437 734l-198 722h319zM903 -356h-277l111 558h277z" />
<glyph unicode="&#x4b3;" horiz-adv-x="848" d="M468 738h3l145 344h311l-321 -535l156 -547h-310l-37 354h-3l-150 -354h-310l331 547l-153 535h309zM702 -356h-277l111 558h277z" />
<glyph unicode="&#x4b4;" horiz-adv-x="1453" d="M442 1228h-237l45 228h738l-45 -228h-226l-200 -1001h381l246 1229h277l-246 -1230h166l-134 -577h-258l70 351h-822z" />
<glyph unicode="&#x4b5;" horiz-adv-x="1132" d="M284 854h-140l45 228h540l-45 -228h-124l-125 -627h203l171 855h278l-171 -857h140l-128 -546h-256l64 321h-622z" />
<glyph unicode="&#x4b6;" horiz-adv-x="1141" d="M1242 1456l-291 -1456h-277l112 561q-48 -13 -105 -20t-94 -7q-205 0 -305.5 117.5t-51.5 362.5l88 442h276l-88 -442q-32 -155 -2.5 -204t128.5 -49q33 0 91.5 7t107.5 20l134 668h277zM1046 -356h-277l111 558h277z" />
<glyph unicode="&#x4b7;" horiz-adv-x="914" d="M745 0h-276l67 339q-21 -4 -39 -6t-33 -2q-187 0 -277 100.5t-47 314.5l67 336h277l-67 -336q-24 -119 -3.5 -153.5t96.5 -34.5q18 0 35.5 2t36.5 8l103 514h276zM841 -356h-277l111 558h277z" />
<glyph unicode="&#x4b8;" horiz-adv-x="1111" d="M652 295h-148l152 762h148zM1212 1456l-291 -1456h-277l112 561q-48 -13 -105 -20t-94 -7q-205 0 -305.5 117.5t-51.5 362.5l88 442h276l-88 -442q-32 -155 -2.5 -204t128.5 -49q33 0 91.5 7t107.5 20l134 668h277z" />
<glyph unicode="&#x4b9;" horiz-adv-x="918" d="M477 178h-148l130 652h148zM750 0h-276l67 339q-21 -4 -39 -6t-33 -2q-187 0 -277 100.5t-47 314.5l67 336h277l-67 -336q-24 -119 -3.5 -153.5t96.5 -34.5q18 0 35.5 2t36.5 8l103 514h276z" />
<glyph unicode="&#x4ba;" horiz-adv-x="1153" d="M167 0l291 1456h277l-112 -561q47 12 104 19.5t95 7.5q204 0 304.5 -118t52.5 -362l-88 -442h-276l88 442q31 154 1.5 203.5t-127.5 49.5q-35 0 -93.5 -8t-106.5 -20l-133 -667h-277z" />
<glyph unicode="&#x4bb;" d="M468 980l3 -1q48 59 104 91t118 32q124 0 178.5 -114t7.5 -354l-127 -634h-277l127 636q29 146 14 192t-74 46q-30 0 -56 -14.5t-51 -42.5l-163 -817h-276l312 1560h276z" />
<glyph unicode="&#x4bc;" horiz-adv-x="1225" d="M673 -23q-245 0 -352.5 171t-49.5 455l12 61q-110 29 -154.5 137.5t-10.5 279.5h179q-17 -83 -10.5 -133.5t38.5 -74.5q59 285 221 443.5t369 158.5q203 0 284.5 -182t18.5 -498l-31 -156h-633l-7 -36q-38 -188 -1.5 -284.5t176.5 -96.5q78 0 153.5 21t127.5 49l-5 -230 q-29 -28 -120 -56.5t-205 -28.5zM866 1229q-91 0 -163.5 -103t-103.5 -260h356l7 32q33 166 14 248.5t-110 82.5z" />
<glyph unicode="&#x4bd;" horiz-adv-x="976" d="M508 -20q-176 0 -263 133t-54 338l4 24q-105 31 -148 132t-12 257h165q-15 -73 -8.5 -120t36.5 -72q47 203 161 316.5t285 113.5q172 0 248.5 -126t41.5 -347l-28 -174h-469v-4q-19 -115 5 -180t105 -65q87 0 140 20t107 58l24 -196q-58 -50 -147 -79t-193 -29zM638 874 q-53 0 -86 -60.5t-54 -168.5h198l7 40q15 96 1 142.5t-66 46.5z" />
<glyph unicode="&#x4be;" horiz-adv-x="1225" d="M673 -23q-245 0 -352.5 171t-49.5 455l12 61q-110 29 -154.5 137.5t-10.5 279.5h179q-17 -83 -10.5 -133.5t38.5 -74.5q59 285 221 443.5t369 158.5q203 0 284.5 -182t18.5 -498l-31 -156h-633l-7 -36q-38 -188 -1.5 -284.5t176.5 -96.5q78 0 153.5 21t127.5 49l-5 -230 q-29 -28 -120 -56.5t-205 -28.5zM866 1229q-91 0 -163.5 -103t-103.5 -260h356l7 32q33 166 14 248.5t-110 82.5zM700 -474h-277l111 558h277z" />
<glyph unicode="&#x4bf;" horiz-adv-x="976" d="M508 -20q-176 0 -263 133t-54 338l4 24q-105 31 -148 132t-12 257h165q-15 -73 -8.5 -120t36.5 -72q47 203 161 316.5t285 113.5q172 0 248.5 -126t41.5 -347l-28 -174h-469v-4q-19 -115 5 -180t105 -65q87 0 140 20t107 58l24 -196q-58 -50 -147 -79t-193 -29zM638 874 q-53 0 -86 -60.5t-54 -168.5h198l7 40q15 96 1 142.5t-66 46.5zM533 -462h-277l111 558h277z" />
<glyph unicode="&#x4c0;" horiz-adv-x="508" d="M307 0h-277l291 1456h277z" />
<glyph unicode="&#x4c1;" horiz-adv-x="1657" d="M1138 604h-124l-120 -604h-275l120 604h-127l-324 -604h-343l494 810l-189 646h343l90 -594h108l119 594h275l-119 -594h105l320 594h343l-442 -647l165 -809h-344zM1416 1897q-23 -141 -113 -218.5t-227 -77.5q-132 0 -200.5 81t-46.5 215h193q-10 -63 7.5 -99.5 t71.5 -36.5q50 0 80.5 38t40.5 98h194z" />
<glyph unicode="&#x4c2;" horiz-adv-x="1429" d="M936 404h-83l-80 -404h-276l80 404h-80l-191 -404h-355l350 590l24 -16l3 2l-157 506h351l42 -407h67l82 407h276l-82 -407h70l204 407h350l-358 -505l2 -2l30 15l113 -590h-354zM1238 1554q-23 -141 -113 -218.5t-227 -77.5q-132 0 -200.5 81t-46.5 215h193 q-10 -63 7.5 -99.5t71.5 -36.5q50 0 80.5 38t40.5 98h194z" />
<glyph unicode="&#x4c3;" horiz-adv-x="1072" d="M748 818q158 -38 226.5 -181t19.5 -394q-53 -259 -188 -424.5t-373 -165.5l43 215q103 0 155 103t85 257q41 205 11.5 289t-129.5 84h-184l-120 -601h-276l291 1456h276l-119 -593h55l347 593h343z" />
<glyph unicode="&#x4c4;" horiz-adv-x="957" d="M690 588q106 -53 150 -161t11 -275q-24 -132 -123.5 -262t-250.5 -195l-84 186q70 51 116.5 115t64.5 156q25 129 -2.5 185.5t-108.5 64.5h-86l-80 -402h-276l216 1082h276l-82 -409h52l215 409h350z" />
<glyph unicode="&#x4c5;" horiz-adv-x="1143" d="M1244 1456l-291 -1456h-277l245 1228h-232l-97 -426q-104 -444 -233 -623t-329 -179h-66l45 227h31q103 11 148 113.5t127 461.5l150 654h779zM1209 -14q-23 -111 -92 -216t-157 -182l-117 76q44 72 72.5 143t47.5 164l45 226h244z" />
<glyph unicode="&#x4c6;" horiz-adv-x="927" d="M973 1082l-216 -1082h-277l170 854h-127l-55 -236q-79 -334 -183 -476t-306 -142h-37l42 230h22q68 0 97 69t89 319l106 464h675zM1014 -14q-23 -111 -92 -216t-157 -182l-117 76q44 72 72.5 143t47.5 164l45 226h244z" />
<glyph unicode="&#x4c7;" horiz-adv-x="1145" d="M588 1456l-125 -626h380l125 626h277l-298 -1489q-42 -210 -142 -307t-255 -97q-31 0 -58.5 4.5t-57.5 13.5l56 222q17 -6 33.5 -9t38.5 -3q33 0 61.5 45.5t46.5 130.5l128 636h-380l-121 -603h-277l291 1456h277z" />
<glyph unicode="&#x4c8;" d="M491 1082l-87 -436h200l87 436h277l-223 -1115q-42 -210 -141.5 -307t-254.5 -97q-31 0 -58.5 4.5t-57.5 13.5l56 222q18 -6 34 -9t38 -3q33 0 61 45t46 131l91 453h-200l-84 -420h-277l216 1082h277z" />
<glyph unicode="&#x4c9;" horiz-adv-x="1142" d="M952 0h-276l120 603h-380l-120 -603h-277l291 1456h277l-125 -626h380l125 626h276zM1209 -14q-23 -111 -92 -216t-157 -182l-117 76q44 72 72.5 143t47.5 164l45 226h244z" />
<glyph unicode="&#x4ca;" horiz-adv-x="925" d="M754 0h-278l84 420h-200l-84 -420h-276l216 1082h276l-87 -436h200l87 436h278zM1011 -14q-23 -111 -92 -216t-157 -182l-117 76q44 72 72.5 143t47.5 164l45 226h244z" />
<glyph unicode="&#x4cb;" horiz-adv-x="1141" d="M1242 1456l-291 -1456h-277l112 561q-48 -13 -105 -20t-94 -7q-205 0 -305.5 117.5t-51.5 362.5l88 442h276l-88 -442q-32 -155 -2.5 -204t128.5 -49q33 0 91.5 7t107.5 20l134 668h277zM704 -356h-277l111 558h277z" />
<glyph unicode="&#x4cc;" horiz-adv-x="914" d="M745 0h-276l67 339q-21 -4 -39 -6t-33 -2q-187 0 -277 100.5t-47 314.5l67 336h277l-67 -336q-24 -119 -3.5 -153.5t96.5 -34.5q18 0 35.5 2t36.5 8l103 514h276zM499 -356h-277l111 558h277z" />
<glyph unicode="&#x4cd;" horiz-adv-x="1359" d="M664 1456l3 -1073l3 -1l435 1074h361l-291 -1456h-276l85 423l126 521l-3 1l-423 -945h-183l-43 933h-3l-80 -510l-85 -423h-276l291 1456h359zM1432 -14q-23 -111 -92 -216t-157 -182l-117 76q44 72 72.5 143t47.5 164l45 226h244z" />
<glyph unicode="&#x4ce;" horiz-adv-x="1241" d="M870 529l-3 1l-250 -530h-184l-35 495h-3l-99 -495h-277l216 1082h340l16 -745h3l315 745h348l-216 -1082h-277zM1297 -14q-23 -111 -92 -216t-157 -182l-117 76q44 72 72.5 143t47.5 164l45 226h244z" />
<glyph unicode="&#x4cf;" horiz-adv-x="508" d="M307 0h-277l291 1456h277z" />
<glyph unicode="&#x4d0;" horiz-adv-x="1055" d="M669 311h-330l-128 -311h-278l658 1456h286l74 -1456h-277zM433 538h232l-9 533h-3zM1101 1897q-23 -141 -113 -218.5t-227 -77.5q-132 0 -200.5 81t-46.5 215h193q-10 -63 7.5 -99.5t71.5 -36.5q50 0 80.5 38t40.5 98h194z" />
<glyph unicode="&#x4d1;" horiz-adv-x="875" d="M473 0q-5 28 -7.5 57.5t-1.5 57.5l-3 1q-46 -62 -101.5 -99t-120.5 -37q-116 0 -175.5 87.5t-29.5 234.5q35 173 139 254t295 81h87l18 88q17 86 4 125t-59 39q-36 0 -60.5 -33.5t-37.5 -98.5h-277q32 159 147.5 252t287.5 93q147 0 227.5 -98t44.5 -281l-88 -438 q-17 -84 -19.5 -148t5.5 -137h-275zM363 193q31 0 62.5 20t55.5 54l42 207h-87q-48 0 -78.5 -44.5t-44.5 -114.5q-12 -59 1.5 -90.5t48.5 -31.5zM946 1575q-23 -141 -113 -218.5t-227 -77.5q-132 0 -200.5 81t-46.5 215h193q-10 -63 7.5 -99.5t71.5 -36.5q50 0 80.5 38 t40.5 98h194z" />
<glyph unicode="&#x4d2;" horiz-adv-x="1055" d="M669 311h-330l-128 -311h-278l658 1456h286l74 -1456h-277zM433 538h232l-9 533h-3zM1081 1606h-238l32 198h238zM672 1606h-237l32 198h237z" />
<glyph unicode="&#x4d3;" horiz-adv-x="875" d="M473 0q-5 28 -7.5 57.5t-1.5 57.5l-3 1q-46 -62 -101.5 -99t-120.5 -37q-116 0 -175.5 87.5t-29.5 234.5q35 173 139 254t295 81h87l18 88q17 86 4 125t-59 39q-36 0 -60.5 -33.5t-37.5 -98.5h-277q32 159 147.5 252t287.5 93q147 0 227.5 -98t44.5 -281l-88 -438 q-17 -84 -19.5 -148t5.5 -137h-275zM363 193q31 0 62.5 20t55.5 54l42 207h-87q-48 0 -78.5 -44.5t-44.5 -114.5q-12 -59 1.5 -90.5t48.5 -31.5zM926 1284h-238l32 198h238zM517 1284h-237l32 198h237z" />
<glyph unicode="&#x4d4;" horiz-adv-x="1524" d="M1370 0h-711l57 339h-277l-188 -339h-322l860 1456h826l-46 -231h-428l-61 -363h354l-46 -230h-347l-68 -402h443zM756 578l79 466l-3 1l-260 -467h184z" />
<glyph unicode="&#x4d5;" horiz-adv-x="1356" d="M874 -21q-93 0 -160.5 37.5t-108.5 111.5q-61 -67 -143.5 -108t-187.5 -41q-147 0 -216 91t-38 247q34 173 148 252.5t317 79.5h112l11 56q17 86 2.5 127.5t-57.5 41.5t-77 -37t-44 -92l-273 18q31 161 148.5 250t293.5 89q69 0 124.5 -21t96.5 -62q55 42 119 62.5 t141 20.5q158 0 231.5 -131.5t28.5 -355.5l-32 -160h-475q-21 -125 5 -187t112 -62q65 0 115.5 19t116.5 59l32 -183q-58 -50 -151.5 -86t-190.5 -36zM370 184q30 0 73.5 25t77.5 61l39 196h-111q-54 0 -97 -45t-55 -108q-14 -66 3 -97.5t70 -31.5zM1037 874 q-58 0 -96 -59.5t-66 -170.5h202l5 27q21 102 10.5 152.5t-55.5 50.5z" />
<glyph unicode="&#x4d6;" horiz-adv-x="931" d="M855 639h-431l-83 -412h509l-45 -227h-786l291 1456h784l-45 -228h-508l-72 -362h431zM1049 1897q-23 -141 -113 -218.5t-227 -77.5q-132 0 -200.5 81t-46.5 215h193q-10 -63 7.5 -99.5t71.5 -36.5q50 0 80.5 38t40.5 98h194z" />
<glyph unicode="&#x4d7;" horiz-adv-x="868" d="M387 -20q-176 0 -263 133t-54 338l24 152q37 233 155 366t304 133q172 0 248.5 -126t41.5 -347l-28 -174h-469v-4q-19 -115 5 -180t105 -65q87 0 140 20t107 58l24 -196q-58 -50 -147 -79t-193 -29zM517 874q-53 0 -86 -60.5t-54 -168.5h198l7 40q15 96 1 142.5t-66 46.5 zM902 1576q-23 -141 -113 -218.5t-227 -77.5q-132 0 -200.5 81t-46.5 215h193q-10 -63 7.5 -99.5t71.5 -36.5q50 0 80.5 38t40.5 98h194z" />
<glyph unicode="&#x4d8;" horiz-adv-x="1118" d="M681 1477q258 0 372.5 -183.5t54.5 -484.5l-33 -163q-64 -318 -233.5 -492.5t-383.5 -174.5q-228 0 -321.5 180.5t-29.5 498.5l31 157h696q39 203 -4 309.5t-198 106.5q-86 0 -165 -21t-133 -49l5 230q32 27 126.5 56.5t215.5 29.5zM507 224q88 0 163 101t117 264h-417 l-7 -34q-34 -166 -4.5 -248.5t148.5 -82.5z" />
<glyph unicode="&#x4d9;" horiz-adv-x="872" d="M547 1103q178 0 261 -149.5t38 -378.5l-8 -41q-54 -266 -180 -410t-313 -143q-167 0 -238.5 129.5t-26.5 355.5l32 161h467q17 119 -8.5 184t-102.5 65q-68 0 -118.5 -19t-118.5 -59l-34 181q61 53 153 88.5t197 35.5zM390 207q46 0 83 60.5t66 169.5h-195l-5 -27 q-22 -106 -12 -154.5t63 -48.5z" />
<glyph unicode="&#x4da;" horiz-adv-x="1118" d="M681 1477q258 0 372.5 -183.5t54.5 -484.5l-33 -163q-64 -318 -233.5 -492.5t-383.5 -174.5q-228 0 -321.5 180.5t-29.5 498.5l31 157h696q39 203 -4 309.5t-198 106.5q-86 0 -165 -21t-133 -49l5 230q32 27 126.5 56.5t215.5 29.5zM507 224q88 0 163 101t117 264h-417 l-7 -34q-34 -166 -4.5 -248.5t148.5 -82.5zM1062 1550h-238l32 198h238zM653 1550h-237l32 198h237z" />
<glyph unicode="&#x4db;" horiz-adv-x="872" d="M547 1103q178 0 261 -149.5t38 -378.5l-8 -41q-54 -266 -180 -410t-313 -143q-167 0 -238.5 129.5t-26.5 355.5l32 161h467q17 119 -8.5 184t-102.5 65q-68 0 -118.5 -19t-118.5 -59l-34 181q61 53 153 88.5t197 35.5zM390 207q46 0 83 60.5t66 169.5h-195l-5 -27 q-22 -106 -12 -154.5t63 -48.5zM922 1285h-238l32 198h238zM513 1285h-237l32 198h237z" />
<glyph unicode="&#x4dc;" horiz-adv-x="1657" d="M1138 604h-124l-120 -604h-275l120 604h-127l-324 -604h-343l494 810l-189 646h343l90 -594h108l119 594h275l-119 -594h105l320 594h343l-442 -647l165 -809h-344zM1396 1606h-238l32 198h238zM987 1606h-237l32 198h237z" />
<glyph unicode="&#x4dd;" horiz-adv-x="1429" d="M936 404h-83l-80 -404h-276l80 404h-80l-191 -404h-355l350 590l24 -16l3 2l-157 506h351l42 -407h67l82 407h276l-82 -407h70l204 407h350l-358 -505l2 -2l30 15l113 -590h-354zM1218 1263h-238l32 198h238zM809 1263h-237l32 198h237z" />
<glyph unicode="&#x4de;" horiz-adv-x="1009" d="M452 853h136q61 0 104.5 53.5t63.5 151.5q17 90 -8 140.5t-97 50.5q-55 0 -103 -50.5t-65 -135.5h-277q40 203 175.5 308.5t314.5 105.5q185 0 281 -108t56 -307q-22 -110 -84 -191.5t-155 -127.5q82 -45 115.5 -130t9.5 -207q-44 -218 -181.5 -322.5t-340.5 -104.5 q-166 0 -273.5 107t-64.5 318h277q-19 -93 10 -145.5t96 -52.5q70 0 126.5 57.5t74.5 146.5q25 127 0.5 174.5t-100.5 47.5h-136l31 152zM1061 1627h-238l32 198h238zM652 1627h-237l32 198h237z" />
<glyph unicode="&#x4df;" horiz-adv-x="844" d="M356 643h116q34 0 58.5 32t36.5 89q11 60 4 92.5t-47 32.5q-38 0 -67 -31t-40 -86h-276q32 164 143 246t266 82q159 0 243.5 -81.5t54.5 -231.5q-16 -81 -62 -140.5t-116 -93.5q63 -34 88 -96.5t8 -152.5q-33 -164 -149.5 -243.5t-290.5 -79.5q-141 0 -231.5 85.5 t-56.5 251.5h276q-13 -62 3 -94.5t68 -32.5q42 0 70 38.5t40 97.5q15 76 0.5 106t-59.5 30h-116l10 54l10 48l4 21zM925 1283h-238l32 198h238zM516 1283h-237l32 198h237z" />
<glyph unicode="&#x4e0;" horiz-adv-x="942" d="M413 867l304 361h-430l45 228h747l-38 -188l-359 -405q134 -38 192.5 -154.5t21.5 -302.5q-44 -218 -179 -322.5t-334 -104.5q-159 0 -260 107t-58 318h277q-20 -94 3 -146t83 -52q66 0 120 57.5t72 146.5q31 159 -2 219t-132 60h-108l34 173z" />
<glyph unicode="&#x4e1;" horiz-adv-x="942" d="M1004 1082l-38 -189l-356 -405q134 -37 191 -153t20 -304q-43 -215 -178.5 -320.5t-334.5 -105.5q-159 0 -259 107.5t-59 316.5h277q-19 -91 4 -143.5t83 -52.5q66 0 119.5 57.5t71.5 145.5q32 160 1 219.5t-131 59.5h-113l12 60l23 117l302 362h-435l45 228h755z" />
<glyph unicode="&#x4e2;" horiz-adv-x="1126" d="M953 1456h277l-291 -1456h-277l172 864l-2 1l-548 -865h-276l291 1456h276l-173 -867l2 -1zM1096 1617h-600l25 160h600z" />
<glyph unicode="&#x4e3;" horiz-adv-x="926" d="M696 1082h277l-216 -1082h-277l110 551l-3 1l-310 -552h-277l216 1082h277l-110 -550l3 -1zM935 1275h-600l25 160h600z" />
<glyph unicode="&#x4e4;" horiz-adv-x="1126" d="M953 1456h277l-291 -1456h-277l172 864l-2 1l-548 -865h-276l291 1456h276l-173 -867l2 -1zM1114 1606h-238l32 198h238zM705 1606h-237l32 198h237z" />
<glyph unicode="&#x4e5;" horiz-adv-x="926" d="M696 1082h277l-216 -1082h-277l110 551l-3 1l-310 -552h-277l216 1082h277l-110 -550l3 -1zM953 1263h-238l32 198h238zM544 1263h-237l32 198h237z" />
<glyph unicode="&#x4e6;" horiz-adv-x="1119" d="M1066 596q-59 -295 -211 -456t-369 -161q-203 0 -315.5 177t-58.5 444l52 259q59 295 206 456.5t363 161.5q205 0 321.5 -178.5t63.5 -443.5zM841 857q36 180 -7.5 285.5t-145.5 105.5q-88 0 -150.5 -104t-98.5 -283l-52 -261q-37 -184 2.5 -288.5t141.5 -104.5 q88 0 155 106t103 283zM1124 1627h-238l32 198h238zM715 1627h-237l32 198h237z" />
<glyph unicode="&#x4e7;" d="M88 607q36 231 159 363t319 132q186 0 271 -137.5t50 -357.5l-21 -134q-38 -233 -160 -363t-317 -130q-188 0 -273 136t-49 357zM343 473q-22 -134 -7 -200.5t89 -66.5q66 0 105 70.5t60 196.5l21 134q21 130 5.5 198.5t-86.5 68.5q-68 0 -107.5 -72t-58.5 -195z M915 1284h-238l32 198h238zM506 1284h-237l32 198h237z" />
<glyph unicode="&#x4e8;" horiz-adv-x="1121" d="M1042 523q-57 -281 -204.5 -412.5t-368.5 -131.5q-203 0 -304 142.5t-49 401.5l81 408q56 281 202.5 413.5t366.5 132.5q202 0 305 -144t52 -402zM789 645h-373l-24 -122q-36 -175 -6.5 -245.5t128.5 -70.5q89 0 153.5 77.5t97.5 238.5zM451 820h373l23 113q34 173 3 244 t-129 71q-90 0 -152.5 -77.5t-94.5 -237.5z" />
<glyph unicode="&#x4e9;" horiz-adv-x="918" d="M86 607q36 231 159 363t319 132q186 0 271 -137.5t50 -357.5l-21 -134q-38 -233 -160 -363t-317 -130q-188 0 -273 136t-49 357zM528 874q-66 0 -104.5 -67t-58.5 -182h247q17 122 1 185.5t-85 63.5zM423 206q63 0 101 63.5t59 179.5h-246q-17 -122 -1 -182.5t87 -60.5z " />
<glyph unicode="&#x4ea;" horiz-adv-x="1121" d="M1042 523q-57 -281 -204.5 -412.5t-368.5 -131.5q-203 0 -304 142.5t-49 401.5l81 408q56 281 202.5 413.5t366.5 132.5q202 0 305 -144t52 -402zM789 645h-373l-24 -122q-36 -175 -6.5 -245.5t128.5 -70.5q89 0 153.5 77.5t97.5 238.5zM451 820h373l23 113q34 173 3 244 t-129 71q-90 0 -152.5 -77.5t-94.5 -237.5zM1136 1601h-238l32 198h238zM727 1601h-237l32 198h237z" />
<glyph unicode="&#x4eb;" horiz-adv-x="918" d="M86 607q36 231 159 363t319 132q186 0 271 -137.5t50 -357.5l-21 -134q-38 -233 -160 -363t-317 -130q-188 0 -273 136t-49 357zM528 874q-66 0 -104.5 -67t-58.5 -182h247q17 122 1 185.5t-85 63.5zM423 206q63 0 101 63.5t59 179.5h-246q-17 -122 -1 -182.5t87 -60.5z M945 1312h-238l32 198h238zM536 1312h-237l32 198h237z" />
<glyph unicode="&#x4ec;" horiz-adv-x="999" d="M170 973q53 265 184.5 385t345.5 120q187 0 273 -167.5t33 -436.5l-58 -291q-59 -293 -201.5 -448t-346.5 -155q-197 0 -288.5 128t-41.5 374h277q-32 -158 -10.5 -216.5t108.5 -58.5q76 0 133.5 100t92.5 274l7 35h-315l46 228h315l6 30q37 190 22 283t-98 93 q-79 0 -129 -66t-78 -211h-277zM1055 1628h-238l32 198h238zM646 1628h-237l32 198h237z" />
<glyph unicode="&#x4ed;" horiz-adv-x="837" d="M488 874q-45 0 -76.5 -43t-46.5 -123h-259q37 188 152.5 291t274.5 103q181 0 258 -154t29 -394l-6 -28q-53 -262 -180.5 -404.5t-322.5 -142.5q-153 0 -229.5 113t-37.5 310h259q-20 -99 -9 -147.5t62 -48.5q56 0 96.5 67.5t70.5 185.5h-159l34 169h159q20 123 7 184.5 t-76 61.5zM915 1284h-238l32 198h238zM506 1284h-237l32 198h237z" />
<glyph unicode="&#x4ee;" horiz-adv-x="1025" d="M600 803l3 -1l305 654h290l-594 -1173q-87 -149 -169 -226.5t-208 -77.5q-18 0 -43 1.5t-41 2.5l42 227q6 -3 25 -3.5t32 -0.5q55 0 90 35.5t64 109.5l22 49h-4l-168 1056h295zM1050 1617h-600l25 160h600z" />
<glyph unicode="&#x4ef;" horiz-adv-x="848" d="M417 478h3l249 604h297l-576 -1245q-53 -113 -134 -193.5t-213 -80.5q-32 0 -56 5.5t-68 18.5l76 212l19.5 -4.5t14.5 -1.5q52 0 84 28.5t60 89.5l36 76l-67 1095h297zM890 1275h-600l25 160h600z" />
<glyph unicode="&#x4f0;" horiz-adv-x="1025" d="M600 803l3 -1l305 654h290l-594 -1173q-87 -149 -169 -226.5t-208 -77.5q-18 0 -43 1.5t-41 2.5l42 227q6 -3 25 -3.5t32 -0.5q55 0 90 35.5t64 109.5l22 49h-4l-168 1056h295zM1068 1606h-238l32 198h238zM659 1606h-237l32 198h237z" />
<glyph unicode="&#x4f1;" horiz-adv-x="848" d="M417 478h3l249 604h297l-576 -1245q-53 -113 -134 -193.5t-213 -80.5q-32 0 -56 5.5t-68 18.5l76 212l19.5 -4.5t14.5 -1.5q52 0 84 28.5t60 89.5l36 76l-67 1095h297zM909 1263h-238l32 198h238zM500 1263h-237l32 198h237z" />
<glyph unicode="&#x4f2;" horiz-adv-x="1025" d="M600 803l3 -1l305 654h290l-594 -1173q-87 -149 -169 -226.5t-208 -77.5q-18 0 -43 1.5t-41 2.5l42 227q6 -3 25 -3.5t32 -0.5q55 0 90 35.5t64 109.5l22 49h-4l-168 1056h295zM1008 1867h244l-273 -266h-205zM682 1867h244l-240 -266h-203z" />
<glyph unicode="&#x4f3;" horiz-adv-x="848" d="M417 478h3l249 604h297l-576 -1245q-53 -113 -134 -193.5t-213 -80.5q-32 0 -56 5.5t-68 18.5l76 212l19.5 -4.5t14.5 -1.5q52 0 84 28.5t60 89.5l36 76l-67 1095h297zM848 1524h244l-273 -266h-205zM522 1524h244l-240 -266h-203z" />
<glyph unicode="&#x4f4;" horiz-adv-x="1141" d="M1242 1456l-291 -1456h-277l112 561q-48 -13 -105 -20t-94 -7q-205 0 -305.5 117.5t-51.5 362.5l88 442h276l-88 -442q-32 -155 -2.5 -204t128.5 -49q33 0 91.5 7t107.5 20l134 668h277zM1174 1606h-238l32 198h238zM765 1606h-237l32 198h237z" />
<glyph unicode="&#x4f5;" horiz-adv-x="914" d="M745 0h-276l67 339q-21 -4 -39 -6t-33 -2q-187 0 -277 100.5t-47 314.5l67 336h277l-67 -336q-24 -119 -3.5 -153.5t96.5 -34.5q18 0 35.5 2t36.5 8l103 514h276zM943 1263h-238l32 198h238zM534 1263h-237l32 198h237z" />
<glyph unicode="&#x4f6;" horiz-adv-x="909" d="M1014 1228h-470l-246 -1228h-278l291 1456h748zM393 -356h-277l111 558h277z" />
<glyph unicode="&#x4f7;" horiz-adv-x="688" d="M757 854h-310l-171 -854h-276l216 1082h586zM330 -356h-277l111 558h277z" />
<glyph unicode="&#x4f8;" horiz-adv-x="1423" d="M481 920h157q190 0 289 -125t58 -330q-46 -226 -185.5 -345.5t-345.5 -119.5h-435l291 1456h278zM435 693l-93 -466h157q72 0 130.5 68.5t79.5 171.5q21 107 -8 166.5t-108 59.5h-158zM1233 0h-277l291 1456h277zM1260 1606h-238l32 198h238zM851 1606h-237l32 198h237z " />
<glyph unicode="&#x4f9;" horiz-adv-x="1382" d="M448 763h124q168 0 251.5 -105.5t49.5 -278.5q-37 -184 -154.5 -281.5t-299.5 -97.5h-400l216 1082h277zM403 537l-62 -312h123q49 0 84.5 43.5t49.5 110.5q15 75 -1.5 116.5t-70.5 41.5h-123zM1182 0h-278l216 1082h278zM1165 1263h-238l32 198h238zM756 1263h-237 l32 198h237z" />
<glyph unicode="&#x4fa;" horiz-adv-x="995" d="M1099 1228h-470l-246 -1228h-278l291 1456h748zM645 671h-531l35 175h531zM694 258l-59 -291q-42 -210 -141 -307t-253 -97q-31 0 -58 4.5t-58 13.5l56 224q20 -6 35.5 -9.5t36.5 -3.5q33 0 61 45t45 130l59 291h276z" />
<glyph unicode="&#x4fb;" horiz-adv-x="700" d="M832 854h-310l-171 -854h-276l216 1082h586zM591 493h-531l35 175h531zM620 251l-59 -291q-42 -210 -141 -307t-253 -97q-31 0 -58 4.5t-58 13.5l56 224q20 -6 35.5 -9.5t36.5 -3.5q33 0 61 45t45 130l59 291h276z" />
<glyph unicode="&#x4fc;" horiz-adv-x="1045" d="M591 944h3l246 512h320l-430 -722l219 -734h-335l-84 523h-3l-251 -523h-321l437 734l-198 722h319zM1135 258l-59 -291q-42 -210 -141 -307t-253 -97q-31 0 -58 4.5t-58 13.5l56 224q20 -6 35.5 -9.5t36.5 -3.5q33 0 61 45t45 130l59 291h276z" />
<glyph unicode="&#x4fd;" horiz-adv-x="848" d="M468 738h3l145 344h311l-321 -535l156 -547h-310l-37 354h-3l-150 -354h-310l331 547l-153 535h309zM934 258l-59 -291q-42 -210 -141 -307t-253 -97q-31 0 -58 4.5t-58 13.5l56 224q20 -6 35.5 -9.5t36.5 -3.5q33 0 61 45t45 130l59 291h276z" />
<glyph unicode="&#x4fe;" horiz-adv-x="1045" d="M819 659h-67l197 -659h-335l-84 523h-3l-251 -523h-321l392 659h-59l35 175h41l-170 622h319l78 -512h3l246 512h320l-371 -622h65z" />
<glyph unicode="&#x4ff;" horiz-adv-x="848" d="M699 468h-71l134 -468h-310l-37 354h-3l-150 -354h-310l283 468h-67l35 175h52l-125 439h309l29 -344h3l145 344h311l-264 -439h71z" />
<glyph unicode="&#x500;" horiz-adv-x="1049" d="M774 948l102 508h277l-291 -1456h-434q-188 0 -286.5 133t-56.5 342q44 225 185.5 349t347.5 124h156zM630 227l99 494h-157q-73 0 -131.5 -71.5t-78.5 -172.5q-23 -114 4 -182t107 -68h157z" />
<glyph unicode="&#x501;" d="M80 555q55 278 156.5 412.5t262.5 134.5q53 0 96 -25t76 -73l111 556h278l-312 -1560h-240l4 88l-3 2q-46 -54 -97.5 -82.5t-107.5 -28.5q-147 0 -212 157t-16 398zM352 534q-33 -161 -23.5 -244t77.5 -83q32 0 63 23t61 68l102 512q-13 32 -35 48t-54 16 q-63 0 -110 -84.5t-77 -234.5z" />
<glyph unicode="&#x502;" horiz-adv-x="1523" d="M469 0q-188 0 -286.5 133t-56.5 342q44 225 185.5 349t347.5 124h156l102 508h277l-246 -1229h35q61 1 103.5 51t63.5 143q17 77 21.5 159t-2.5 165h270q6 -108 5 -179.5t-17 -144.5q-46 -208 -182 -314.5t-307 -106.5h-469zM671 227l99 494h-157q-73 0 -131.5 -71.5 t-78.5 -172.5q-23 -114 4 -182t107 -68h157z" />
<glyph unicode="&#x503;" horiz-adv-x="1366" d="M101 535q55 277 166 422t273 145q47 0 82 -23.5t61 -69.5l110 551h276l-237 -1184q-16 -82 -7.5 -124.5t41.5 -42.5q58 1 106.5 84t82.5 236q21 100 29.5 199t5.5 203l271 1q0 -135 -5 -223t-24 -180q-58 -270 -200 -410t-312 -140q-107 -1 -171.5 37t-88.5 124 q-54 -80 -114.5 -120.5t-131.5 -40.5q-147 0 -206.5 147t-10.5 388zM645 822q-13 25 -32 38.5t-45 13.5q-63 0 -111.5 -93t-79.5 -246l-4 -21q-32 -158 -21.5 -232.5t80.5 -74.5q30 0 58.5 16.5t55.5 49.5q0 25 2.5 50t7.5 53z" />
<glyph unicode="&#x504;" horiz-adv-x="1267" d="M468 321l13 65q20 105 -4 161.5t-84 56.5h-195l46 230h141q91 0 142.5 51t73.5 161q18 93 -7 136t-105 43h-259l46 231h259q197 0 290 -105.5t53 -306.5q-26 -128 -96.5 -208.5t-190.5 -125.5v-3q111 -34 151 -116t17 -203l-14 -69q-11 -49 -9 -79.5t16 -30.5 q55 1 100.5 84.5t81.5 235.5q21 100 29 200t5 203h270q0 -135 -5 -223t-24 -180q-56 -268 -201.5 -409t-317.5 -141q-139 -3 -195.5 77t-26.5 263v2z" />
<glyph unicode="&#x505;" horiz-adv-x="1038" d="M613 261q-11 -50 -10 -77.5t18 -27.5q34 2 67 69.5t61 193.5q15 78 20.5 158.5t0.5 160.5h267q6 -103 5.5 -174.5t-16.5 -144.5q-47 -219 -164 -332t-261 -113q-162 -3 -226.5 52t-47.5 188l15 75q10 54 5 79.5t-26 25.5h-210l42 214h133q43 0 68.5 29t36.5 85 q13 66 3.5 99t-52.5 33h-201l41 228h205q161 0 240 -85t49 -237q-18 -86 -58 -139.5t-109 -88.5q75 -26 102 -84t11 -142l-9 -46v1z" />
<glyph unicode="&#x506;" horiz-adv-x="987" d="M125 580l43 227h210q65 0 115.5 53.5t69.5 150.5q21 109 -2.5 163.5t-96.5 54.5h-240l39 227h246q186 0 280 -114t53 -316q-25 -124 -85.5 -202.5t-162.5 -127.5q91 -41 120.5 -128.5t3.5 -215.5l-20 -103q-13 -66 -14 -131t24 -97l-4 -21h-286q-26 32 -20 99.5t23 151.5 l20 99q24 119 -0.5 174.5t-95.5 55.5h-220zM873 31q-23 -111 -92 -216t-157 -182l-117 76q44 72 72.5 143t47.5 164l45 226h244z" />
<glyph unicode="&#x507;" horiz-adv-x="949" d="M125 388l36 194h204q42 0 78 35.5t48 95.5q12 66 -7 105t-64 39h-224l35 225h234q163 0 251.5 -94t56.5 -253q-19 -88 -62.5 -148t-115.5 -100q66 -36 88 -101.5t4 -156.5l-15 -73q-7 -39 -10 -82t9 -60l-3 -14h-283q-10 17 -4.5 64t15.5 93l15 71q16 86 -4.5 123 t-81.5 37h-200zM852 21q-23 -111 -92 -216t-157 -182l-117 76q44 72 72.5 143t47.5 164l45 226h244z" />
<glyph unicode="&#x508;" horiz-adv-x="1545" d="M1243 1456l-216 -1080q-17 -77 -8 -122t41 -45q59 1 107.5 84t82.5 236q21 100 29 199.5t5 202.5l270 1q1 -123 -3.5 -216t-24.5 -187q-57 -270 -199.5 -410t-312.5 -140q-164 -3 -230.5 90.5t-33.5 306.5l170 849h-232l-91 -457q-87 -431 -213.5 -599.5t-362.5 -168.5 h-40l46 230h32q78 0 140.5 125.5t120.5 412.5l137 688h786z" />
<glyph unicode="&#x509;" horiz-adv-x="1388" d="M664 850h-92l-45 -228q-69 -345 -175.5 -483.5t-311.5 -138.5h-60l52 243l32 1q58 0 102 88t85 290l92 460h644l-141 -706q-17 -77 -2.5 -122t57.5 -45q40 1 76 72t65 203q20 96 28 190t5 191h268q2 -131 -1.5 -212.5t-22.5 -168.5q-53 -248 -182 -376.5t-282 -128.5 q-174 -3 -246 91t-39 306z" />
<glyph unicode="&#x50a;" horiz-adv-x="1605" d="M1259 1456l-216 -1080q-17 -77 -7.5 -122t41.5 -45q58 1 106.5 84.5t82.5 235.5q20 102 29 201t6 201l270 1q0 -130 -4.5 -220t-24.5 -183q-57 -270 -199 -410t-312 -140q-164 -3 -231 91t-33 306l45 227h-400l-120 -603h-276l291 1456h276l-125 -626h400l125 626h276z " />
<glyph unicode="&#x50b;" horiz-adv-x="1325" d="M561 430h-213l-86 -430h-278l216 1082h278l-85 -423h213l85 423h277l-141 -706q-18 -77 -4 -122t57 -45q41 1 77.5 72t65.5 203q20 93 27.5 187.5t4.5 193.5h269q1 -137 -2.5 -216t-22.5 -165q-53 -248 -182 -376.5t-283 -128.5q-173 -3 -245 90.5t-39 306.5z" />
<glyph unicode="&#x50c;" horiz-adv-x="1034" d="M465 -21q-212 0 -321 174.5t-55 443.5l53 262q58 291 224.5 454.5t397.5 163.5q85 0 152.5 -22.5t112.5 -65.5l-98 -211q-46 34 -96.5 51t-116.5 17q-95 0 -180.5 -111.5t-117.5 -273.5l-53 -264q-36 -180 2 -284t142 -104q70 1 119 60.5t74 170.5q18 81 24.5 166 t6.5 180h269q-4 -177 -5.5 -223.5t-18.5 -122.5q-48 -228 -190 -344.5t-325 -116.5z" />
<glyph unicode="&#x50d;" horiz-adv-x="874" d="M447 209q32 1 49.5 30t32.5 92q11 53 18 103t11 103h269q-4 -72 -7.5 -117t-12.5 -89q-39 -177 -147 -264.5t-259 -87.5q-191 0 -281.5 157.5t-44.5 383.5l8 42q49 245 187.5 392.5t339.5 147.5q69 0 122.5 -17.5t84.5 -48.5l-83 -222q-31 28 -73.5 42.5t-96.5 14.5 q-67 0 -123.5 -93.5t-81.5 -215.5l-8 -42q-28 -138 -7.5 -224.5t103.5 -86.5z" />
<glyph unicode="&#x50e;" horiz-adv-x="1137" d="M507 1225h-306l46 231h880l-46 -231h-299l-170 -849q-15 -78 -6.5 -122.5t40.5 -44.5q59 1 108 84.5t81 235.5q21 101 30 200t6 202l270 1q1 -120 -4 -214t-25 -189q-56 -270 -198.5 -410t-313.5 -140q-163 -3 -230 91t-33 306z" />
<glyph unicode="&#x50f;" horiz-adv-x="1030" d="M348 853h-195l45 229h693l-45 -229h-221l-95 -477q-17 -77 -4.5 -122t52.5 -45q41 1 74.5 56.5t57.5 160.5q16 73 20 147t-5 146h270q7 -100 7 -163.5t-15 -129.5q-47 -219 -173.5 -333t-281.5 -114q-171 -3 -241.5 90.5t-37.5 306.5z" />
<glyph unicode="&#x510;" horiz-adv-x="1061" d="M751 698l-13 -66h-155q-84 0 -140 -53t-79 -169q-20 -98 19 -151t131 -53q68 0 127 56.5t77 141.5h276q-46 -228 -192 -326.5t-333 -98.5q-200 0 -311.5 113t-71.5 314q27 138 96.5 221.5t181.5 123.5q-79 50 -114 131t-15 180q43 217 179 316t354 99q170 0 275 -113.5 t68 -300.5h-278q18 92 -13 139t-97 47q-82 0 -139.5 -54.5t-72.5 -136.5q-22 -106 5 -155.5t112 -49.5h155l-31 -155h-1z" />
<glyph unicode="&#x511;" horiz-adv-x="913" d="M61 304q20 100 73 162.5t140 93.5q-61 37 -89 96.5t-13 130.5q33 162 150.5 237.5t300.5 75.5q145 0 233.5 -89t58.5 -239h-276q12 59 -8 88t-66 29q-47 0 -80 -37t-42 -88q-13 -59 7.5 -88.5t68.5 -29.5h143l-12 -60l-25 -126h-143q-51 0 -89 -32t-52 -101 q-13 -62 7.5 -99t75.5 -37q53 0 89 35.5t48 91.5h277q-37 -180 -158.5 -258.5t-280.5 -78.5q-168 0 -268.5 86.5t-69.5 236.5z" />
<glyph unicode="&#x512;" horiz-adv-x="1143" d="M1244 1456l-291 -1456h-277l245 1228h-232l-97 -426q-104 -444 -233 -623t-329 -179h-66l45 227h31q103 11 148 113.5t127 461.5l150 654h779zM1280 258l-59 -291q-42 -210 -141 -307t-253 -97q-31 0 -58 4.5t-58 13.5l56 224q20 -6 35.5 -9.5t36.5 -3.5q33 0 61 45 t45 130l59 291h276z" />
<glyph unicode="&#x513;" horiz-adv-x="927" d="M973 1082l-216 -1082h-277l170 854h-127l-55 -236q-79 -334 -183 -476t-306 -142h-37l42 230h22q68 0 97 69t89 319l106 464h675zM1085 258l-59 -291q-42 -210 -141 -307t-253 -97q-31 0 -58 4.5t-58 13.5l56 224q20 -6 35.5 -9.5t36.5 -3.5q33 0 61 45t45 130l59 291 h276z" />
<glyph unicode="&#x1e00;" horiz-adv-x="1055" d="M669 311h-330l-128 -311h-278l658 1456h286l74 -1456h-277zM433 538h232l-9 533h-3zM240 -226q15 77 65.5 121t118.5 44q60 0 95 -47t21 -118q-16 -76 -66 -119t-116 -43q-62 0 -97 46t-21 116zM339 -226q-7 -31 3.5 -49.5t34.5 -18.5q21 0 38.5 19t24.5 49q6 35 -3.5 53 t-31.5 18t-41.5 -19.5t-24.5 -51.5z" />
<glyph unicode="&#x1e01;" horiz-adv-x="875" d="M473 0q-5 28 -7.5 57.5t-1.5 57.5l-3 1q-46 -62 -101.5 -99t-120.5 -37q-116 0 -175.5 87.5t-29.5 234.5q35 173 139 254t295 81h87l18 88q17 86 4 125t-59 39q-36 0 -60.5 -33.5t-37.5 -98.5h-277q32 159 147.5 252t287.5 93q147 0 227.5 -98t44.5 -281l-88 -438 q-17 -84 -19.5 -148t5.5 -137h-275zM363 193q31 0 62.5 20t55.5 54l42 207h-87q-48 0 -78.5 -44.5t-44.5 -114.5q-12 -59 1.5 -90.5t48.5 -31.5zM91 -210q15 77 65.5 121t118.5 44q60 0 95 -47t21 -118q-16 -76 -66 -119t-116 -43q-62 0 -97 46t-21 116zM190 -210 q-7 -31 3.5 -49.5t34.5 -18.5q21 0 38.5 19t24.5 49q6 35 -3.5 53t-31.5 18t-41.5 -19.5t-24.5 -51.5z" />
<glyph unicode="&#x1e3e;" horiz-adv-x="1359" d="M664 1456l3 -1073l3 -1l435 1074h361l-291 -1456h-276l85 423l126 521l-3 1l-423 -945h-183l-43 933h-3l-80 -510l-85 -423h-276l291 1456h359zM967 1826h296l-276 -266h-220z" />
<glyph unicode="&#x1e3f;" horiz-adv-x="1375" d="M465 969l2 -1q51 64 113.5 99t137.5 35q66 0 111.5 -39.5t62.5 -121.5q53 78 118.5 119.5t146.5 41.5q115 0 166.5 -109.5t6.5 -335.5l-131 -657h-277l131 657q27 134 14.5 175.5t-60.5 41.5q-32 -1 -59.5 -19t-51.5 -51q-2 -20 -5 -41t-8 -50l-143 -713h-277l132 659 q26 132 13.5 173.5t-61.5 41.5q-27 0 -53 -15.5t-50 -44.5l-163 -814h-275l216 1082h256zM933 1504h296l-276 -266h-220z" />
<glyph unicode="&#x1e80;" horiz-adv-x="1339" d="M942 629h3l232 827h262l-444 -1456h-252l-16 796l-3 1l-269 -797h-251l21 1456h264l-34 -826l3 -1l278 827h192zM987 1559h-219l-190 266h295z" />
<glyph unicode="&#x1e81;" horiz-adv-x="1173" d="M810 458h3l204 624h257l-414 -1082h-230l-6 608l-3 1l-250 -609h-231l19 1082h255l-43 -622h3l253 622h178zM883 1216h-219l-190 266h295z" />
<glyph unicode="&#x1e82;" horiz-adv-x="1339" d="M942 629h3l232 827h262l-444 -1456h-252l-16 796l-3 1l-269 -797h-251l21 1456h264l-34 -826l3 -1l278 827h192zM911 1826h296l-276 -266h-220z" />
<glyph unicode="&#x1e83;" horiz-adv-x="1173" d="M810 458h3l204 624h257l-414 -1082h-230l-6 608l-3 1l-250 -609h-231l19 1082h255l-43 -622h3l253 622h178zM807 1483h296l-276 -266h-220z" />
<glyph unicode="&#x1e84;" horiz-adv-x="1339" d="M942 629h3l232 827h262l-444 -1456h-252l-16 796l-3 1l-269 -797h-251l21 1456h264l-34 -826l3 -1l278 827h192zM1178 1606h-238l32 198h238zM769 1606h-237l32 198h237z" />
<glyph unicode="&#x1e85;" horiz-adv-x="1173" d="M810 458h3l204 624h257l-414 -1082h-230l-6 608l-3 1l-250 -609h-231l19 1082h255l-43 -622h3l253 622h178zM1074 1263h-238l32 198h238zM665 1263h-237l32 198h237z" />
<glyph unicode="&#x1ea0;" horiz-adv-x="1055" d="M669 311h-330l-128 -311h-278l658 1456h286l74 -1456h-277zM433 538h232l-9 533h-3zM521 -353h-305l49 241h305z" />
<glyph unicode="&#x1ea1;" horiz-adv-x="875" d="M473 0q-5 28 -7.5 57.5t-1.5 57.5l-3 1q-46 -62 -101.5 -99t-120.5 -37q-116 0 -175.5 87.5t-29.5 234.5q35 173 139 254t295 81h87l18 88q17 86 4 125t-59 39q-36 0 -60.5 -33.5t-37.5 -98.5h-277q32 159 147.5 252t287.5 93q147 0 227.5 -98t44.5 -281l-88 -438 q-17 -84 -19.5 -148t5.5 -137h-275zM363 193q31 0 62.5 20t55.5 54l42 207h-87q-48 0 -78.5 -44.5t-44.5 -114.5q-12 -59 1.5 -90.5t48.5 -31.5zM372 -337h-305l49 241h305z" />
<glyph unicode="&#x1ea2;" horiz-adv-x="1055" d="M669 311h-330l-128 -311h-278l658 1456h286l74 -1456h-277zM433 538h232l-9 533h-3zM650 1587l10 129q55 3 79.5 18t31.5 51q8 39 -11.5 55t-64.5 16l31 131q163 0 231 -47t48 -146q-13 -65 -50.5 -100.5t-83.5 -43.5l-14 -63h-207z" />
<glyph unicode="&#x1ea3;" horiz-adv-x="875" d="M473 0q-5 28 -7.5 57.5t-1.5 57.5l-3 1q-46 -62 -101.5 -99t-120.5 -37q-116 0 -175.5 87.5t-29.5 234.5q35 173 139 254t295 81h87l18 88q17 86 4 125t-59 39q-36 0 -60.5 -33.5t-37.5 -98.5h-277q32 159 147.5 252t287.5 93q147 0 227.5 -98t44.5 -281l-88 -438 q-17 -84 -19.5 -148t5.5 -137h-275zM363 193q31 0 62.5 20t55.5 54l42 207h-87q-48 0 -78.5 -44.5t-44.5 -114.5q-12 -59 1.5 -90.5t48.5 -31.5zM495 1266l10 129q55 3 79.5 18t31.5 51q8 39 -11.5 55t-64.5 16l31 131q163 0 231 -47t48 -146q-13 -65 -50.5 -100.5 t-83.5 -43.5l-14 -63h-207z" />
<glyph unicode="&#x1ea4;" horiz-adv-x="1055" d="M669 311h-330l-128 -311h-278l658 1456h286l74 -1456h-277zM433 538h232l-9 533h-3zM720 1767h139l179 -227h-190l-78 128l-129 -128h-189zM1186 1937h207l-242 -268h-147z" />
<glyph unicode="&#x1ea5;" horiz-adv-x="875" d="M473 0q-5 28 -7.5 57.5t-1.5 57.5l-3 1q-46 -62 -101.5 -99t-120.5 -37q-116 0 -175.5 87.5t-29.5 234.5q35 173 139 254t295 81h87l18 88q17 86 4 125t-59 39q-36 0 -60.5 -33.5t-37.5 -98.5h-277q32 159 147.5 252t287.5 93q147 0 227.5 -98t44.5 -281l-88 -438 q-17 -84 -19.5 -148t5.5 -137h-275zM363 193q31 0 62.5 20t55.5 54l42 207h-87q-48 0 -78.5 -44.5t-44.5 -114.5q-12 -59 1.5 -90.5t48.5 -31.5zM565 1446h139l179 -227h-190l-78 128l-129 -128h-189zM1031 1616h207l-242 -268h-147z" />
<glyph unicode="&#x1ea6;" horiz-adv-x="1055" d="M669 311h-330l-128 -311h-278l658 1456h286l74 -1456h-277zM433 538h232l-9 533h-3zM1039 1539h-188l-79 129l-129 -129h-186l-1 3l267 224h139zM539 1669h-148l-133 267h207z" />
<glyph unicode="&#x1ea7;" horiz-adv-x="875" d="M473 0q-5 28 -7.5 57.5t-1.5 57.5l-3 1q-46 -62 -101.5 -99t-120.5 -37q-116 0 -175.5 87.5t-29.5 234.5q35 173 139 254t295 81h87l18 88q17 86 4 125t-59 39q-36 0 -60.5 -33.5t-37.5 -98.5h-277q32 159 147.5 252t287.5 93q147 0 227.5 -98t44.5 -281l-88 -438 q-17 -84 -19.5 -148t5.5 -137h-275zM363 193q31 0 62.5 20t55.5 54l42 207h-87q-48 0 -78.5 -44.5t-44.5 -114.5q-12 -59 1.5 -90.5t48.5 -31.5zM884 1218h-188l-79 129l-129 -129h-186l-1 3l267 224h139zM384 1348h-148l-133 267h207z" />
<glyph unicode="&#x1ea8;" horiz-adv-x="1055" d="M669 311h-330l-128 -311h-278l658 1456h286l74 -1456h-277zM433 538h232l-9 533h-3zM860 1766h-144l-266 -227h186l135 133l81 -133h184zM974 1664l8 110q46 3 67 15t27 41q7 33 -11.5 47t-55.5 14l28 111q121 0 169.5 -39.5t32.5 -122.5q-12 -56 -43.5 -86t-69.5 -37 l-11 -53h-141z" />
<glyph unicode="&#x1ea9;" horiz-adv-x="875" d="M473 0q-5 28 -7.5 57.5t-1.5 57.5l-3 1q-46 -62 -101.5 -99t-120.5 -37q-116 0 -175.5 87.5t-29.5 234.5q35 173 139 254t295 81h87l18 88q17 86 4 125t-59 39q-36 0 -60.5 -33.5t-37.5 -98.5h-277q32 159 147.5 252t287.5 93q147 0 227.5 -98t44.5 -281l-88 -438 q-17 -84 -19.5 -148t5.5 -137h-275zM363 193q31 0 62.5 20t55.5 54l42 207h-87q-48 0 -78.5 -44.5t-44.5 -114.5q-12 -59 1.5 -90.5t48.5 -31.5zM705 1445h-144l-266 -227h186l135 133l81 -133h184zM819 1343l8 110q46 3 67 15t27 41q7 33 -11.5 47t-55.5 14l28 111 q121 0 169.5 -39.5t32.5 -122.5q-12 -56 -43.5 -86t-69.5 -37l-11 -53h-141z" />
<glyph unicode="&#x1eaa;" horiz-adv-x="1055" d="M669 311h-330l-128 -311h-278l658 1456h286l74 -1456h-277zM433 538h232l-9 533h-3zM1039 1539h-184l-82 128l-134 -128h-182l-1 3l265 220h141zM1031 1971q-14 -68 -50 -111.5t-83 -43.5q-31 0 -77 33.5t-72 33.5q-14 0 -27.5 -22t-19.5 -52l-82 28q13 67 48 112t81 45 q24 0 74.5 -32.5t76.5 -32.5q13 0 27 23t21 55z" />
<glyph unicode="&#x1eab;" horiz-adv-x="875" d="M473 0q-5 28 -7.5 57.5t-1.5 57.5l-3 1q-46 -62 -101.5 -99t-120.5 -37q-116 0 -175.5 87.5t-29.5 234.5q35 173 139 254t295 81h87l18 88q17 86 4 125t-59 39q-36 0 -60.5 -33.5t-37.5 -98.5h-277q32 159 147.5 252t287.5 93q147 0 227.5 -98t44.5 -281l-88 -438 q-17 -84 -19.5 -148t5.5 -137h-275zM363 193q31 0 62.5 20t55.5 54l42 207h-87q-48 0 -78.5 -44.5t-44.5 -114.5q-12 -59 1.5 -90.5t48.5 -31.5zM884 1218h-184l-82 128l-134 -128h-182l-1 3l265 220h141zM876 1650q-14 -68 -50 -111.5t-83 -43.5q-31 0 -77 33.5t-72 33.5 q-14 0 -27.5 -22t-19.5 -52l-82 28q13 67 48 112t81 45q24 0 74.5 -32.5t76.5 -32.5q13 0 27 23t21 55z" />
<glyph unicode="&#x1eac;" horiz-adv-x="1055" d="M669 311h-330l-128 -311h-278l658 1456h286l74 -1456h-277zM433 538h232l-9 533h-3zM1073 1613l-5 -22h-198l-84 149l-144 -149h-195l5 25l282 237h150zM521 -353h-305l49 241h305z" />
<glyph unicode="&#x1ead;" horiz-adv-x="875" d="M473 0q-5 28 -7.5 57.5t-1.5 57.5l-3 1q-46 -62 -101.5 -99t-120.5 -37q-116 0 -175.5 87.5t-29.5 234.5q35 173 139 254t295 81h87l18 88q17 86 4 125t-59 39q-36 0 -60.5 -33.5t-37.5 -98.5h-277q32 159 147.5 252t287.5 93q147 0 227.5 -98t44.5 -281l-88 -438 q-17 -84 -19.5 -148t5.5 -137h-275zM363 193q31 0 62.5 20t55.5 54l42 207h-87q-48 0 -78.5 -44.5t-44.5 -114.5q-12 -59 1.5 -90.5t48.5 -31.5zM918 1291l-5 -22h-198l-84 149l-144 -149h-195l5 25l282 237h150zM372 -337h-305l49 241h305z" />
<glyph unicode="&#x1eae;" horiz-adv-x="1055" d="M669 311h-330l-128 -311h-278l658 1456h286l74 -1456h-277zM433 538h232l-9 533h-3zM1078 1787q-23 -114 -110 -174t-220 -60q-123 0 -190 64.5t-46 169.5h175q-11 -55 8 -85.5t77 -30.5q53 0 87 33t44 83h175zM854 1973h185l-172 -188h-139z" />
<glyph unicode="&#x1eaf;" horiz-adv-x="875" d="M473 0q-5 28 -7.5 57.5t-1.5 57.5l-3 1q-46 -62 -101.5 -99t-120.5 -37q-116 0 -175.5 87.5t-29.5 234.5q35 173 139 254t295 81h87l18 88q17 86 4 125t-59 39q-36 0 -60.5 -33.5t-37.5 -98.5h-277q32 159 147.5 252t287.5 93q147 0 227.5 -98t44.5 -281l-88 -438 q-17 -84 -19.5 -148t5.5 -137h-275zM363 193q31 0 62.5 20t55.5 54l42 207h-87q-48 0 -78.5 -44.5t-44.5 -114.5q-12 -59 1.5 -90.5t48.5 -31.5zM923 1465q-23 -114 -110 -174t-220 -60q-123 0 -190 64.5t-46 169.5h175q-11 -55 8 -85.5t77 -30.5q53 0 87 33t44 83h175z M699 1651h185l-172 -188h-139z" />
<glyph unicode="&#x1eb0;" horiz-adv-x="1055" d="M669 311h-330l-128 -311h-278l658 1456h286l74 -1456h-277zM433 538h232l-9 533h-3zM1102 1870q-29 -143 -119.5 -219t-224.5 -76q-125 0 -189 81.5t-37 213.5h188q-11 -56 5.5 -87.5t67.5 -31.5q46 0 77 33.5t41 85.5h191zM946 1919h-208l-118 220h249z" />
<glyph unicode="&#x1eb1;" horiz-adv-x="875" d="M473 0q-5 28 -7.5 57.5t-1.5 57.5l-3 1q-46 -62 -101.5 -99t-120.5 -37q-116 0 -175.5 87.5t-29.5 234.5q35 173 139 254t295 81h87l18 88q17 86 4 125t-59 39q-36 0 -60.5 -33.5t-37.5 -98.5h-277q32 159 147.5 252t287.5 93q147 0 227.5 -98t44.5 -281l-88 -438 q-17 -84 -19.5 -148t5.5 -137h-275zM363 193q31 0 62.5 20t55.5 54l42 207h-87q-48 0 -78.5 -44.5t-44.5 -114.5q-12 -59 1.5 -90.5t48.5 -31.5zM947 1548q-29 -143 -119.5 -219t-224.5 -76q-125 0 -189 81.5t-37 213.5h188q-11 -56 5.5 -87.5t67.5 -31.5q46 0 77 33.5 t41 85.5h191zM791 1597h-208l-118 220h249z" />
<glyph unicode="&#x1eb2;" horiz-adv-x="1055" d="M669 311h-330l-128 -311h-278l658 1456h286l74 -1456h-277zM433 538h232l-9 533h-3zM898 1770q-10 -48 -45 -79.5t-87 -31.5q-60 0 -80 29t-9 82h-178q-22 -105 47 -168t196 -63q136 0 223 58.5t110 172.5h-177zM703 1798l3 103q53 3 76.5 14t29.5 39q6 31 -14 43.5 t-64 12.5l26 104q143 0 204 -37t46 -114q-11 -52 -46.5 -80t-81.5 -34l-10 -51h-169z" />
<glyph unicode="&#x1eb3;" horiz-adv-x="875" d="M473 0q-5 28 -7.5 57.5t-1.5 57.5l-3 1q-46 -62 -101.5 -99t-120.5 -37q-116 0 -175.5 87.5t-29.5 234.5q35 173 139 254t295 81h87l18 88q17 86 4 125t-59 39q-36 0 -60.5 -33.5t-37.5 -98.5h-277q32 159 147.5 252t287.5 93q147 0 227.5 -98t44.5 -281l-88 -438 q-17 -84 -19.5 -148t5.5 -137h-275zM363 193q31 0 62.5 20t55.5 54l42 207h-87q-48 0 -78.5 -44.5t-44.5 -114.5q-12 -59 1.5 -90.5t48.5 -31.5zM743 1449q-10 -48 -45 -79.5t-87 -31.5q-60 0 -80 29t-9 82h-178q-22 -105 47 -168t196 -63q136 0 223 58.5t110 172.5h-177z M548 1477l3 103q53 3 76.5 14t29.5 39q6 31 -14 43.5t-64 12.5l26 104q143 0 204 -37t46 -114q-11 -52 -46.5 -80t-81.5 -34l-10 -51h-169z" />
<glyph unicode="&#x1eb4;" horiz-adv-x="1055" d="M669 311h-330l-128 -311h-278l658 1456h286l74 -1456h-277zM433 538h232l-9 533h-3zM1073 1772q-23 -115 -110.5 -175.5t-221.5 -60.5q-124 0 -192.5 65t-46.5 171h175q-11 -53 9 -82t80 -29q54 0 88.5 31t44.5 80h174zM1070 2043q-17 -80 -61.5 -129.5t-100.5 -49.5 q-39 0 -89 34.5t-82 34.5q-18 0 -35.5 -25.5t-23.5 -61.5l-103 33q16 79 59.5 129t101.5 50q29 0 83.5 -34t87.5 -34q16 0 33.5 25t25.5 62z" />
<glyph unicode="&#x1eb5;" horiz-adv-x="875" d="M473 0q-5 28 -7.5 57.5t-1.5 57.5l-3 1q-46 -62 -101.5 -99t-120.5 -37q-116 0 -175.5 87.5t-29.5 234.5q35 173 139 254t295 81h87l18 88q17 86 4 125t-59 39q-36 0 -60.5 -33.5t-37.5 -98.5h-277q32 159 147.5 252t287.5 93q147 0 227.5 -98t44.5 -281l-88 -438 q-17 -84 -19.5 -148t5.5 -137h-275zM363 193q31 0 62.5 20t55.5 54l42 207h-87q-48 0 -78.5 -44.5t-44.5 -114.5q-12 -59 1.5 -90.5t48.5 -31.5zM918 1451q-23 -115 -110.5 -175.5t-221.5 -60.5q-124 0 -192.5 65t-46.5 171h175q-11 -53 9 -82t80 -29q54 0 88.5 31t44.5 80 h174zM915 1722q-17 -80 -61.5 -129.5t-100.5 -49.5q-39 0 -89 34.5t-82 34.5q-18 0 -35.5 -25.5t-23.5 -61.5l-103 33q16 79 59.5 129t101.5 50q29 0 83.5 -34t87.5 -34q16 0 33.5 25t25.5 62z" />
<glyph unicode="&#x1eb6;" horiz-adv-x="1055" d="M669 311h-330l-128 -311h-278l658 1456h286l74 -1456h-277zM433 538h232l-9 533h-3zM1101 1897q-23 -141 -113 -218.5t-227 -77.5q-132 0 -200.5 81t-46.5 215h193q-10 -63 7.5 -99.5t71.5 -36.5q50 0 80.5 38t40.5 98h194zM521 -353h-305l49 241h305z" />
</font>
</defs>
</svg>
